{"glyphs":{"0":{"ha":883,"x_min":53,"x_max":831,"o":"m 53 521 q 84 770 53 668 q 170 936 116 873 q 295 1027 225 999 q 442 1056 365 1056 q 595 1027 524 1056 q 719 936 666 999 q 801 770 772 873 q 831 521 831 668 q 797 271 831 374 q 708 106 764 169 q 583 15 652 43 q 442 -14 514 -14 q 295 15 365 -14 q 170 106 225 43 q 84 271 116 169 q 53 521 53 374 m 275 521 q 295 266 275 360 q 353 133 316 173 q 442 94 390 94 q 535 133 499 94 q 590 266 572 173 q 608 521 608 360 q 590 775 608 682 q 535 908 572 869 q 442 948 499 948 q 353 908 390 948 q 295 775 316 869 q 275 521 275 682 "},"1":{"ha":781,"x_min":59,"x_max":736,"o":"m 59 36 l 59 85 q 66 108 59 104 q 92 111 73 111 l 272 111 q 300 117 294 111 q 306 144 306 124 l 306 780 q 300 806 306 800 q 276 813 295 813 l 114 813 q 90 816 97 813 q 83 838 83 820 l 83 890 q 93 919 83 914 q 125 924 103 924 q 240 934 190 925 q 327 973 290 943 q 397 1067 365 1003 q 409 1089 403 1081 q 437 1097 415 1097 l 476 1097 q 500 1093 494 1097 q 507 1072 507 1090 l 507 149 q 514 117 507 123 q 549 111 522 111 l 703 111 q 727 108 718 111 q 736 87 736 104 l 736 35 q 732 7 736 13 q 707 0 728 0 l 94 0 q 65 6 71 0 q 59 36 59 13 "},"2":{"ha":891,"x_min":47,"x_max":843,"o":"m 842 290 q 813 114 843 181 q 728 16 783 47 q 596 -14 672 -14 q 490 -1 538 -14 q 402 28 442 11 q 324 57 361 44 q 249 69 287 69 q 199 57 218 69 q 169 22 181 44 q 160 6 164 11 q 137 0 156 0 l 71 0 q 51 5 56 0 q 47 25 47 10 q 124 289 50 170 q 342 509 197 408 q 424 566 381 536 q 505 631 467 596 q 567 710 543 667 q 592 806 592 753 q 548 927 592 888 q 404 966 505 966 q 314 953 354 966 q 249 921 273 940 q 225 885 225 902 q 238 867 225 874 q 269 849 251 859 q 300 819 287 838 q 314 765 314 799 q 277 682 314 711 q 197 653 240 653 q 136 666 166 653 q 88 708 107 680 q 69 779 69 735 q 117 922 69 859 q 249 1020 164 984 q 446 1056 333 1056 q 715 991 614 1056 q 815 792 815 927 q 786 673 815 724 q 705 582 756 622 q 586 505 653 541 q 442 431 518 469 q 291 331 349 383 q 204 224 234 278 q 184 191 194 208 q 170 163 174 174 q 173 151 167 151 q 189 170 184 151 q 217 210 194 188 q 276 245 242 234 q 349 256 311 256 q 446 241 405 256 q 528 210 488 226 q 622 195 569 195 q 708 221 680 195 q 741 291 735 247 q 746 311 743 308 q 767 315 749 315 l 819 315 q 839 311 836 315 q 842 290 842 308 "},"3":{"ha":797,"x_min":28,"x_max":753,"o":"m 28 224 q 65 319 28 285 q 155 354 101 354 q 235 327 204 354 q 265 256 265 301 q 256 214 265 230 q 233 189 246 199 q 210 170 219 179 q 200 150 200 162 q 219 115 200 131 q 273 89 239 99 q 349 79 306 79 q 456 103 413 79 q 522 172 499 127 q 544 278 544 216 q 526 368 544 325 q 464 443 508 412 q 344 482 421 474 q 318 483 329 483 q 301 487 307 482 q 294 510 294 492 l 294 562 q 300 584 294 579 q 317 589 306 589 q 341 590 327 588 q 432 618 397 597 q 485 671 467 640 q 510 738 503 702 q 516 807 516 773 q 472 925 516 884 q 349 966 428 966 q 269 948 301 966 q 238 907 238 931 q 249 887 238 895 q 273 870 259 879 q 297 844 287 860 q 307 801 307 828 q 275 731 307 760 q 197 703 243 703 q 137 716 166 703 q 89 757 108 729 q 69 826 69 784 q 107 940 69 888 q 215 1024 144 992 q 390 1056 287 1056 q 559 1027 483 1056 q 681 944 635 999 q 726 807 726 889 q 710 711 726 758 q 655 625 694 665 q 547 560 616 586 q 504 547 517 547 q 492 537 492 547 q 506 527 492 528 q 545 519 520 527 q 706 419 659 485 q 753 271 753 353 q 725 151 753 203 q 644 61 696 98 q 524 5 592 24 q 376 -14 455 -14 q 185 20 263 -14 q 67 108 107 53 q 28 224 28 163 "},"4":{"ha":830,"x_min":29,"x_max":816,"o":"m 795 86 l 795 22 q 790 3 795 7 q 770 0 785 0 l 353 0 q 329 5 335 0 q 323 28 323 9 l 323 84 q 328 106 323 101 q 349 111 333 111 l 447 111 q 468 116 463 111 q 472 138 472 121 l 472 270 q 468 297 472 292 q 442 302 465 302 l 94 302 q 70 306 76 302 q 57 320 65 310 l 38 349 q 31 366 29 360 q 38 385 33 373 q 118 509 69 452 q 224 620 167 567 q 336 732 281 674 q 434 855 391 789 q 499 1004 477 922 q 507 1032 503 1023 q 537 1042 511 1042 l 668 1042 q 699 1036 693 1042 q 702 1010 706 1031 q 648 861 690 926 q 545 742 605 795 q 422 642 486 689 q 301 550 358 595 q 207 455 244 505 q 196 435 199 444 q 201 419 193 426 q 232 413 208 413 l 453 413 q 470 418 467 413 q 472 438 472 423 l 472 497 q 478 522 472 517 q 496 533 483 526 q 553 580 525 552 q 600 652 582 607 q 608 668 604 662 q 626 674 611 674 l 651 674 q 670 670 666 674 q 674 652 674 666 l 674 449 q 679 422 674 431 q 704 413 685 413 l 793 413 q 812 408 808 413 q 816 388 816 403 l 816 332 q 811 308 816 313 q 788 302 807 302 l 705 302 q 680 297 686 302 q 674 272 674 291 l 674 142 q 679 117 674 122 q 705 111 685 111 l 768 111 q 790 107 785 111 q 795 86 795 103 "},"5":{"ha":809,"x_min":44,"x_max":769,"o":"m 44 207 q 81 302 44 270 q 167 333 119 333 q 246 305 214 333 q 278 235 278 277 q 266 190 278 207 q 242 159 253 172 q 230 129 230 145 q 263 88 230 104 q 344 72 295 72 q 455 108 406 72 q 532 205 503 144 q 560 337 560 265 q 535 479 560 422 q 468 566 510 537 q 375 595 426 595 q 282 575 325 595 q 199 506 238 554 q 183 491 191 496 q 156 485 176 485 l 119 485 q 93 494 95 485 q 92 522 90 503 l 153 1015 q 162 1037 156 1033 q 188 1042 169 1042 l 401 1042 q 516 1038 474 1042 q 581 1040 557 1035 q 627 1069 606 1045 q 639 1081 633 1076 q 660 1086 645 1086 l 716 1086 q 732 1071 735 1086 l 725 1042 q 701 964 716 999 q 650 902 686 928 q 541 861 613 876 q 346 847 469 847 l 252 847 q 229 842 235 847 q 220 822 223 838 l 199 658 q 191 620 196 636 q 191 603 187 605 q 205 611 199 599 q 229 635 212 622 q 310 677 263 660 q 423 694 358 694 q 615 648 538 694 q 731 523 692 602 q 769 347 769 444 q 716 155 769 236 q 572 30 663 74 q 365 -14 480 -14 q 197 15 269 -14 q 84 93 124 44 q 44 207 44 143 "},"6":{"ha":844,"x_min":63,"x_max":802,"o":"m 546 935 q 531 961 546 949 q 478 973 516 973 q 374 928 417 973 q 305 800 331 884 q 274 599 280 717 q 272 573 273 581 q 274 563 270 565 q 282 567 278 560 q 295 584 285 574 q 386 644 331 622 q 508 667 440 667 q 653 631 585 667 q 761 521 720 594 q 802 337 802 448 q 774 181 802 247 q 695 72 745 115 q 579 7 645 28 q 436 -14 513 -14 q 284 13 352 -14 q 166 101 215 40 q 89 264 116 163 q 63 514 63 365 q 115 802 63 681 q 259 990 167 924 q 471 1056 351 1056 q 615 1033 552 1056 q 714 968 678 1010 q 750 869 750 926 q 716 776 750 809 q 630 743 681 743 q 547 771 581 743 q 513 848 513 799 q 521 889 513 873 q 538 916 529 905 q 546 935 546 926 m 594 326 q 551 492 594 435 q 440 550 509 550 q 354 524 392 550 q 293 454 316 499 q 271 354 271 410 q 315 167 271 236 q 443 97 358 97 q 528 126 494 97 q 577 206 561 155 q 594 326 594 258 "},"7":{"ha":782,"x_min":50,"x_max":772,"o":"m 51 744 q 82 925 53 856 q 161 1024 111 993 q 276 1056 211 1056 q 364 1043 327 1056 q 433 1014 401 1031 q 498 985 465 997 q 575 972 532 972 q 631 987 612 972 q 660 1026 650 1001 q 667 1038 664 1034 q 683 1042 671 1042 l 751 1042 q 769 1037 767 1042 q 769 1019 772 1033 q 740 920 763 979 q 683 793 717 862 q 608 654 649 725 q 527 518 567 583 q 468 419 490 458 q 437 350 447 379 q 428 294 428 322 q 440 243 428 263 q 469 205 453 222 q 499 168 486 188 q 512 115 512 147 q 499 53 512 83 q 458 5 485 24 q 388 -14 431 -14 q 290 29 329 -14 q 251 154 251 72 q 271 275 251 216 q 326 397 290 335 q 414 529 363 459 q 509 670 463 599 q 594 817 555 742 q 611 847 603 835 q 615 862 619 858 q 601 857 610 867 q 578 838 592 846 q 538 818 560 826 q 492 810 515 810 q 420 817 450 810 q 366 833 390 824 q 316 850 342 842 q 258 857 290 857 q 176 830 203 857 q 144 745 148 802 q 143 731 144 735 q 131 726 142 726 l 71 726 q 55 730 60 726 q 51 744 50 733 "},"8":{"ha":816,"x_min":52,"x_max":764,"o":"m 260 300 q 277 186 260 235 q 326 110 294 138 q 406 83 358 83 q 484 110 453 83 q 532 186 516 138 q 549 300 549 235 q 532 408 549 358 q 484 488 516 458 q 406 517 453 517 q 326 488 358 517 q 277 408 294 458 q 260 300 260 358 m 87 792 q 126 928 87 868 q 237 1022 165 988 q 406 1056 308 1056 q 578 1022 506 1056 q 690 928 651 988 q 729 792 729 868 q 690 661 729 714 q 585 580 651 608 q 563 572 572 574 q 553 563 553 569 q 562 555 553 558 q 583 547 570 552 q 715 449 666 515 q 764 292 764 383 q 721 136 764 205 q 598 26 678 67 q 406 -14 518 -14 q 215 26 294 -14 q 94 136 136 67 q 52 292 52 205 q 101 450 52 384 q 235 547 151 515 q 255 553 246 551 q 263 563 263 556 q 255 571 263 569 q 234 578 246 574 q 126 659 166 606 q 87 792 87 713 m 295 780 q 309 690 295 728 q 348 629 323 651 q 406 608 372 608 q 468 629 444 608 q 505 690 493 651 q 517 780 517 728 q 505 872 517 831 q 469 935 493 912 q 410 958 446 958 q 349 935 374 958 q 309 872 323 912 q 295 780 295 831 "},"9":{"ha":844,"x_min":42,"x_max":781,"o":"m 298 106 q 313 81 298 93 q 366 69 328 69 q 470 114 427 69 q 539 242 514 158 q 571 443 565 326 q 573 469 572 461 q 570 479 574 477 q 562 475 566 481 q 549 458 558 468 q 458 398 513 420 q 335 375 403 375 q 191 411 258 375 q 83 521 124 448 q 42 705 42 594 q 70 861 42 795 q 149 970 99 927 q 266 1034 199 1013 q 408 1056 332 1056 q 560 1028 492 1056 q 678 940 629 1001 q 755 778 728 879 q 781 528 781 676 q 730 240 781 361 q 586 52 678 118 q 373 -14 494 -14 q 229 9 292 -14 q 130 74 166 32 q 94 172 94 115 q 128 266 94 233 q 214 299 163 299 q 297 271 263 299 q 331 194 331 243 q 323 153 331 169 q 306 126 315 137 q 298 106 298 115 m 250 715 q 292 549 250 607 q 404 492 335 492 q 490 517 451 492 q 550 588 528 543 q 573 688 573 632 q 530 876 573 807 q 401 944 486 944 q 316 916 349 944 q 266 836 283 888 q 250 715 250 784 "}," ":{"ha":417,"x_min":0,"x_max":0,"o":""}," ":{"ha":417,"x_min":0,"x_max":0,"o":""}," ":{"ha":694,"x_min":0,"x_max":0,"o":""}," ":{"ha":1389,"x_min":0,"x_max":0,"o":""}," ":{"ha":694,"x_min":0,"x_max":0,"o":""}," ":{"ha":1389,"x_min":0,"x_max":0,"o":""}," ":{"ha":463,"x_min":0,"x_max":0,"o":""}," ":{"ha":347,"x_min":0,"x_max":0,"o":""}," ":{"ha":231,"x_min":0,"x_max":0,"o":""}," ":{"ha":806,"x_min":0,"x_max":0,"o":""}," ":{"ha":277,"x_min":0,"x_max":0,"o":""}," ":{"ha":231,"x_min":0,"x_max":0,"o":""}," ":{"ha":139,"x_min":0,"x_max":0,"o":""},"A":{"ha":1257,"x_min":0,"x_max":1257,"o":"m 572 792 l 429 456 q 424 433 424 442 q 449 424 425 424 l 697 424 q 726 433 726 424 q 720 461 727 442 l 598 792 q 584 811 590 814 q 572 792 578 809 m 0 35 l 0 106 q 5 126 0 120 q 26 132 10 132 l 127 132 q 151 139 147 132 q 162 159 156 146 l 544 1048 q 553 1060 549 1058 q 573 1063 558 1063 l 705 1063 q 727 1059 722 1063 q 737 1044 733 1055 l 1085 169 q 1097 141 1093 151 q 1128 132 1101 132 l 1229 132 q 1251 128 1245 132 q 1257 108 1257 125 l 1257 28 q 1253 5 1257 10 q 1231 0 1249 0 l 715 0 q 693 5 698 0 q 688 28 688 10 l 688 106 q 693 128 688 124 q 715 132 699 132 l 808 132 q 834 139 831 132 q 831 162 836 147 l 791 269 q 779 293 784 288 q 747 299 774 299 l 399 299 q 369 295 377 299 q 354 276 361 292 l 307 164 q 303 140 300 147 q 326 132 306 132 l 415 132 q 434 127 430 132 q 438 108 438 122 l 438 24 q 433 3 438 7 q 413 0 428 0 l 40 0 q 8 5 16 0 q 0 35 0 10 "},"À":{"ha":1257,"x_min":0,"x_max":1257,"o":"m 641 1142 l 442 1251 q 401 1307 410 1269 q 420 1382 392 1344 q 465 1412 437 1404 q 520 1414 492 1419 q 564 1390 548 1408 l 713 1224 q 713 1199 725 1211 l 662 1146 q 652 1138 656 1140 q 641 1142 649 1137 m 572 792 l 429 456 q 424 433 424 442 q 449 424 425 424 l 697 424 q 726 433 726 424 q 720 461 727 442 l 598 792 q 584 811 590 814 q 572 792 578 809 m 0 35 l 0 106 q 5 126 0 120 q 26 132 10 132 l 127 132 q 151 139 147 132 q 162 159 156 146 l 544 1048 q 553 1060 549 1058 q 573 1063 558 1063 l 705 1063 q 727 1059 722 1063 q 737 1044 733 1055 l 1085 169 q 1097 141 1093 151 q 1128 132 1101 132 l 1229 132 q 1251 128 1245 132 q 1257 108 1257 125 l 1257 28 q 1253 5 1257 10 q 1231 0 1249 0 l 715 0 q 693 5 698 0 q 688 28 688 10 l 688 106 q 693 128 688 124 q 715 132 699 132 l 808 132 q 834 139 831 132 q 831 162 836 147 l 791 269 q 779 293 784 288 q 747 299 774 299 l 399 299 q 369 295 377 299 q 354 276 361 292 l 307 164 q 303 140 300 147 q 326 132 306 132 l 415 132 q 434 127 430 132 q 438 108 438 122 l 438 24 q 433 3 438 7 q 413 0 428 0 l 40 0 q 8 5 16 0 q 0 35 0 10 "},"Á":{"ha":1257,"x_min":0,"x_max":1257,"o":"m 609 1147 l 558 1199 q 558 1223 547 1212 l 708 1390 q 752 1414 724 1408 q 808 1412 780 1419 q 851 1382 836 1404 q 871 1307 880 1344 q 829 1251 862 1269 l 633 1144 q 620 1139 625 1138 q 609 1147 616 1140 m 572 792 l 429 456 q 424 433 424 442 q 449 424 425 424 l 697 424 q 726 433 726 424 q 720 461 727 442 l 598 792 q 584 811 590 814 q 572 792 578 809 m 0 35 l 0 106 q 5 126 0 120 q 26 132 10 132 l 127 132 q 151 139 147 132 q 162 159 156 146 l 544 1048 q 553 1060 549 1058 q 573 1063 558 1063 l 705 1063 q 727 1059 722 1063 q 737 1044 733 1055 l 1085 169 q 1097 141 1093 151 q 1128 132 1101 132 l 1229 132 q 1251 128 1245 132 q 1257 108 1257 125 l 1257 28 q 1253 5 1257 10 q 1231 0 1249 0 l 715 0 q 693 5 698 0 q 688 28 688 10 l 688 106 q 693 128 688 124 q 715 132 699 132 l 808 132 q 834 139 831 132 q 831 162 836 147 l 791 269 q 779 293 784 288 q 747 299 774 299 l 399 299 q 369 295 377 299 q 354 276 361 292 l 307 164 q 303 140 300 147 q 326 132 306 132 l 415 132 q 434 127 430 132 q 438 108 438 122 l 438 24 q 433 3 438 7 q 413 0 428 0 l 40 0 q 8 5 16 0 q 0 35 0 10 "},"Â":{"ha":1257,"x_min":0,"x_max":1257,"o":"m 456 1156 l 425 1189 q 417 1200 417 1197 q 424 1211 417 1203 l 554 1366 q 568 1376 561 1374 q 591 1378 576 1378 l 685 1378 q 705 1375 699 1378 q 717 1366 711 1373 l 850 1208 q 855 1200 856 1203 q 848 1191 853 1197 l 810 1153 q 800 1146 803 1146 q 788 1153 797 1147 l 653 1253 q 618 1254 635 1267 l 481 1152 q 456 1156 469 1143 m 572 792 l 429 456 q 424 433 424 442 q 449 424 425 424 l 697 424 q 726 433 726 424 q 720 461 727 442 l 598 792 q 584 811 590 814 q 572 792 578 809 m 0 35 l 0 106 q 5 126 0 120 q 26 132 10 132 l 127 132 q 151 139 147 132 q 162 159 156 146 l 544 1048 q 553 1060 549 1058 q 573 1063 558 1063 l 705 1063 q 727 1059 722 1063 q 737 1044 733 1055 l 1085 169 q 1097 141 1093 151 q 1128 132 1101 132 l 1229 132 q 1251 128 1245 132 q 1257 108 1257 125 l 1257 28 q 1253 5 1257 10 q 1231 0 1249 0 l 715 0 q 693 5 698 0 q 688 28 688 10 l 688 106 q 693 128 688 124 q 715 132 699 132 l 808 132 q 834 139 831 132 q 831 162 836 147 l 791 269 q 779 293 784 288 q 747 299 774 299 l 399 299 q 369 295 377 299 q 354 276 361 292 l 307 164 q 303 140 300 147 q 326 132 306 132 l 415 132 q 434 127 430 132 q 438 108 438 122 l 438 24 q 433 3 438 7 q 413 0 428 0 l 40 0 q 8 5 16 0 q 0 35 0 10 "},"Ã":{"ha":1257,"x_min":0,"x_max":1257,"o":"m 746 1149 q 673 1166 702 1149 q 619 1201 643 1182 q 575 1232 597 1218 q 528 1245 554 1245 q 483 1230 498 1245 q 465 1190 469 1215 q 447 1181 460 1181 l 394 1181 q 380 1186 382 1181 q 379 1201 378 1191 q 405 1285 383 1246 q 462 1350 427 1325 q 540 1374 497 1374 q 611 1358 583 1374 q 661 1323 638 1342 q 704 1292 682 1306 q 754 1278 726 1278 q 810 1328 801 1278 q 816 1339 813 1335 q 828 1343 818 1343 l 883 1343 q 895 1340 893 1343 q 897 1328 897 1336 q 877 1236 895 1276 q 827 1173 860 1196 q 746 1149 794 1149 m 572 792 l 429 456 q 424 433 424 442 q 449 424 425 424 l 697 424 q 726 433 726 424 q 720 461 727 442 l 598 792 q 584 811 590 814 q 572 792 578 809 m 0 35 l 0 106 q 5 126 0 120 q 26 132 10 132 l 127 132 q 151 139 147 132 q 162 159 156 146 l 544 1048 q 553 1060 549 1058 q 573 1063 558 1063 l 705 1063 q 727 1059 722 1063 q 737 1044 733 1055 l 1085 169 q 1097 141 1093 151 q 1128 132 1101 132 l 1229 132 q 1251 128 1245 132 q 1257 108 1257 125 l 1257 28 q 1253 5 1257 10 q 1231 0 1249 0 l 715 0 q 693 5 698 0 q 688 28 688 10 l 688 106 q 693 128 688 124 q 715 132 699 132 l 808 132 q 834 139 831 132 q 831 162 836 147 l 791 269 q 779 293 784 288 q 747 299 774 299 l 399 299 q 369 295 377 299 q 354 276 361 292 l 307 164 q 303 140 300 147 q 326 132 306 132 l 415 132 q 434 127 430 132 q 438 108 438 122 l 438 24 q 433 3 438 7 q 413 0 428 0 l 40 0 q 8 5 16 0 q 0 35 0 10 "},"Ä":{"ha":1257,"x_min":0,"x_max":1257,"o":"m 787 1174 q 716 1203 746 1174 q 687 1274 687 1233 q 716 1345 687 1315 q 787 1374 746 1374 q 858 1345 828 1374 q 887 1274 887 1315 q 858 1203 887 1233 q 787 1174 828 1174 m 481 1174 q 411 1203 440 1174 q 381 1274 381 1233 q 411 1345 381 1315 q 481 1374 440 1374 q 552 1345 523 1374 q 581 1274 581 1315 q 552 1203 581 1233 q 481 1174 523 1174 m 572 792 l 429 456 q 424 433 424 442 q 449 424 425 424 l 697 424 q 726 433 726 424 q 720 461 727 442 l 598 792 q 584 811 590 814 q 572 792 578 809 m 0 35 l 0 106 q 5 126 0 120 q 26 132 10 132 l 127 132 q 151 139 147 132 q 162 159 156 146 l 544 1048 q 553 1060 549 1058 q 573 1063 558 1063 l 705 1063 q 727 1059 722 1063 q 737 1044 733 1055 l 1085 169 q 1097 141 1093 151 q 1128 132 1101 132 l 1229 132 q 1251 128 1245 132 q 1257 108 1257 125 l 1257 28 q 1253 5 1257 10 q 1231 0 1249 0 l 715 0 q 693 5 698 0 q 688 28 688 10 l 688 106 q 693 128 688 124 q 715 132 699 132 l 808 132 q 834 139 831 132 q 831 162 836 147 l 791 269 q 779 293 784 288 q 747 299 774 299 l 399 299 q 369 295 377 299 q 354 276 361 292 l 307 164 q 303 140 300 147 q 326 132 306 132 l 415 132 q 434 127 430 132 q 438 108 438 122 l 438 24 q 433 3 438 7 q 413 0 428 0 l 40 0 q 8 5 16 0 q 0 35 0 10 "},"Å":{"ha":1257,"x_min":0,"x_max":1257,"o":"m 635 1153 q 558 1173 592 1153 q 505 1228 524 1194 q 486 1301 486 1262 q 505 1376 486 1342 q 558 1431 524 1410 q 635 1451 592 1451 q 713 1431 679 1451 q 765 1376 747 1410 q 784 1301 784 1342 q 765 1228 784 1262 q 713 1173 746 1194 q 635 1153 679 1153 m 635 1235 q 681 1255 664 1235 q 699 1302 699 1274 q 681 1353 699 1333 q 635 1373 664 1373 q 589 1353 606 1373 q 572 1302 572 1333 q 589 1255 572 1274 q 635 1235 606 1235 m 572 792 l 429 456 q 424 433 424 442 q 449 424 425 424 l 697 424 q 726 433 726 424 q 720 461 727 442 l 598 792 q 584 811 590 814 q 572 792 578 809 m 0 35 l 0 106 q 5 126 0 120 q 26 132 10 132 l 127 132 q 151 139 147 132 q 162 159 156 146 l 544 1048 q 553 1060 549 1058 q 573 1063 558 1063 l 705 1063 q 727 1059 722 1063 q 737 1044 733 1055 l 1085 169 q 1097 141 1093 151 q 1128 132 1101 132 l 1229 132 q 1251 128 1245 132 q 1257 108 1257 125 l 1257 28 q 1253 5 1257 10 q 1231 0 1249 0 l 715 0 q 693 5 698 0 q 688 28 688 10 l 688 106 q 693 128 688 124 q 715 132 699 132 l 808 132 q 834 139 831 132 q 831 162 836 147 l 791 269 q 779 293 784 288 q 747 299 774 299 l 399 299 q 369 295 377 299 q 354 276 361 292 l 307 164 q 303 140 300 147 q 326 132 306 132 l 415 132 q 434 127 430 132 q 438 108 438 122 l 438 24 q 433 3 438 7 q 413 0 428 0 l 40 0 q 8 5 16 0 q 0 35 0 10 "},"Ā":{"ha":1257,"x_min":0,"x_max":1257,"o":"m 468 1172 l 468 1229 q 470 1243 468 1239 q 482 1248 473 1248 l 778 1248 q 796 1244 791 1248 q 801 1226 801 1240 l 801 1170 q 799 1154 801 1159 q 786 1149 797 1149 l 492 1149 q 474 1153 479 1149 q 468 1172 468 1157 m 572 792 l 429 456 q 424 433 424 442 q 449 424 425 424 l 697 424 q 726 433 726 424 q 720 461 727 442 l 598 792 q 584 811 590 814 q 572 792 578 809 m 0 35 l 0 106 q 5 126 0 120 q 26 132 10 132 l 127 132 q 151 139 147 132 q 162 159 156 146 l 544 1048 q 553 1060 549 1058 q 573 1063 558 1063 l 705 1063 q 727 1059 722 1063 q 737 1044 733 1055 l 1085 169 q 1097 141 1093 151 q 1128 132 1101 132 l 1229 132 q 1251 128 1245 132 q 1257 108 1257 125 l 1257 28 q 1253 5 1257 10 q 1231 0 1249 0 l 715 0 q 693 5 698 0 q 688 28 688 10 l 688 106 q 693 128 688 124 q 715 132 699 132 l 808 132 q 834 139 831 132 q 831 162 836 147 l 791 269 q 779 293 784 288 q 747 299 774 299 l 399 299 q 369 295 377 299 q 354 276 361 292 l 307 164 q 303 140 300 147 q 326 132 306 132 l 415 132 q 434 127 430 132 q 438 108 438 122 l 438 24 q 433 3 438 7 q 413 0 428 0 l 40 0 q 8 5 16 0 q 0 35 0 10 "},"Ă":{"ha":1257,"x_min":0,"x_max":1257,"o":"m 635 1146 q 499 1200 538 1146 q 459 1347 460 1253 q 475 1360 459 1360 l 523 1360 q 535 1349 535 1360 q 561 1295 539 1315 q 635 1274 584 1274 q 706 1292 683 1274 q 735 1340 728 1310 q 739 1355 738 1349 q 752 1360 740 1360 l 799 1360 q 811 1357 810 1360 q 813 1343 813 1353 q 770 1199 810 1252 q 635 1146 731 1146 m 572 792 l 429 456 q 424 433 424 442 q 449 424 425 424 l 697 424 q 726 433 726 424 q 720 461 727 442 l 598 792 q 584 811 590 814 q 572 792 578 809 m 0 35 l 0 106 q 5 126 0 120 q 26 132 10 132 l 127 132 q 151 139 147 132 q 162 159 156 146 l 544 1048 q 553 1060 549 1058 q 573 1063 558 1063 l 705 1063 q 727 1059 722 1063 q 737 1044 733 1055 l 1085 169 q 1097 141 1093 151 q 1128 132 1101 132 l 1229 132 q 1251 128 1245 132 q 1257 108 1257 125 l 1257 28 q 1253 5 1257 10 q 1231 0 1249 0 l 715 0 q 693 5 698 0 q 688 28 688 10 l 688 106 q 693 128 688 124 q 715 132 699 132 l 808 132 q 834 139 831 132 q 831 162 836 147 l 791 269 q 779 293 784 288 q 747 299 774 299 l 399 299 q 369 295 377 299 q 354 276 361 292 l 307 164 q 303 140 300 147 q 326 132 306 132 l 415 132 q 434 127 430 132 q 438 108 438 122 l 438 24 q 433 3 438 7 q 413 0 428 0 l 40 0 q 8 5 16 0 q 0 35 0 10 "},"Ą":{"ha":1257,"x_min":0,"x_max":1257,"o":"m 972 -308 q 852 -280 900 -308 q 804 -192 804 -252 q 825 -123 804 -155 q 877 -65 846 -92 q 943 -15 909 -37 q 1006 26 978 8 q 1031 31 1017 34 q 1049 23 1045 28 q 1064 6 1062 13 q 1058 -11 1066 -1 q 1020 -51 1042 -29 q 984 -97 999 -72 q 968 -151 968 -122 q 984 -193 968 -177 q 1031 -210 1000 -210 q 1073 -199 1056 -210 q 1101 -174 1090 -188 q 1121 -169 1111 -161 l 1148 -190 q 1155 -199 1155 -195 q 1151 -210 1155 -202 q 1088 -278 1130 -248 q 972 -308 1046 -308 m 572 792 l 429 456 q 424 433 424 442 q 449 424 425 424 l 697 424 q 726 433 726 424 q 720 461 727 442 l 598 792 q 584 811 590 814 q 572 792 578 809 m 0 35 l 0 106 q 5 126 0 120 q 26 132 10 132 l 127 132 q 151 139 147 132 q 162 159 156 146 l 544 1048 q 553 1060 549 1058 q 573 1063 558 1063 l 705 1063 q 727 1059 722 1063 q 737 1044 733 1055 l 1085 169 q 1097 141 1093 151 q 1128 132 1101 132 l 1229 132 q 1251 128 1245 132 q 1257 108 1257 125 l 1257 28 q 1253 5 1257 10 q 1231 0 1249 0 l 715 0 q 693 5 698 0 q 688 28 688 10 l 688 106 q 693 128 688 124 q 715 132 699 132 l 808 132 q 834 139 831 132 q 831 162 836 147 l 791 269 q 779 293 784 288 q 747 299 774 299 l 399 299 q 369 295 377 299 q 354 276 361 292 l 307 164 q 303 140 300 147 q 326 132 306 132 l 415 132 q 434 127 430 132 q 438 108 438 122 l 438 24 q 433 3 438 7 q 413 0 428 0 l 40 0 q 8 5 16 0 q 0 35 0 10 "},"B":{"ha":1110,"x_min":44,"x_max":1065,"o":"m 627 132 q 729 153 687 132 q 793 215 771 175 q 815 309 815 254 q 790 400 815 364 q 722 454 765 436 q 627 472 680 472 l 457 472 q 432 465 439 472 q 426 438 426 458 l 426 165 q 432 139 426 145 q 457 132 438 132 l 627 132 m 463 604 l 606 604 q 693 620 653 604 q 756 671 733 637 q 780 760 780 706 q 758 848 780 815 q 696 895 735 881 q 606 910 657 910 l 456 910 q 432 905 439 910 q 426 883 426 900 l 426 639 q 432 610 426 616 q 463 604 439 604 m 648 0 l 74 0 q 49 7 54 0 q 44 34 44 14 l 44 110 q 49 128 44 125 q 69 132 55 132 l 166 132 q 191 139 185 132 q 197 164 197 145 l 197 878 q 191 903 197 897 q 167 910 185 910 l 73 910 q 49 914 54 910 q 44 937 44 919 l 44 1013 q 49 1036 44 1030 q 72 1042 55 1042 l 613 1042 q 835 1015 746 1042 q 970 930 925 988 q 1016 778 1016 872 q 972 635 1016 690 q 842 555 927 581 q 825 542 824 550 q 843 530 825 534 q 1007 447 949 506 q 1065 292 1065 389 q 1018 120 1065 184 q 880 28 972 56 q 648 0 788 0 "},"C":{"ha":1153,"x_min":63,"x_max":1097,"o":"m 63 521 q 106 736 63 637 q 225 908 149 835 q 401 1022 301 981 q 618 1063 502 1063 q 773 1034 705 1063 q 889 960 840 1005 q 913 948 905 947 q 931 970 920 949 l 958 1035 q 966 1046 963 1044 q 985 1049 970 1049 l 1052 1049 q 1073 1044 1069 1049 q 1076 1022 1076 1039 l 1076 691 q 1072 671 1076 676 q 1051 667 1067 667 l 956 667 q 933 673 937 667 q 926 693 929 678 q 875 813 912 758 q 777 900 838 867 q 632 933 716 933 q 466 882 535 933 q 360 737 397 830 q 323 521 323 644 q 359 306 323 398 q 463 164 394 215 q 632 113 532 113 q 787 149 720 113 q 895 247 853 185 q 947 381 936 308 q 956 404 951 398 q 978 410 962 410 l 1070 410 q 1093 406 1088 410 q 1096 388 1097 401 q 1025 178 1084 270 q 862 32 966 85 q 611 -21 758 -21 q 389 18 490 -21 q 216 129 289 57 q 102 300 142 201 q 63 521 63 400 "},"Ç":{"ha":1153,"x_min":63,"x_max":1097,"o":"m 485 -364 l 485 -324 q 490 -309 485 -312 q 506 -306 496 -306 q 585 -291 549 -302 q 621 -250 621 -280 q 599 -213 621 -226 q 545 -194 578 -200 q 481 -186 513 -189 q 458 -180 461 -184 q 463 -166 456 -175 l 571 -15 q 577 -9 574 -10 q 588 -8 580 -8 l 640 -8 q 657 -11 656 -8 q 652 -22 658 -14 l 604 -90 q 597 -106 595 -102 q 617 -110 599 -109 q 717 -144 680 -115 q 754 -232 754 -174 q 731 -309 754 -280 q 669 -355 707 -339 q 587 -377 631 -371 q 502 -384 543 -383 q 485 -364 485 -385 m 63 521 q 106 736 63 637 q 225 908 149 835 q 401 1022 301 981 q 618 1063 502 1063 q 773 1034 705 1063 q 889 960 840 1005 q 913 948 905 947 q 931 970 920 949 l 958 1035 q 966 1046 963 1044 q 985 1049 970 1049 l 1052 1049 q 1073 1044 1069 1049 q 1076 1022 1076 1039 l 1076 691 q 1072 671 1076 676 q 1051 667 1067 667 l 956 667 q 933 673 937 667 q 926 693 929 678 q 875 813 912 758 q 777 900 838 867 q 632 933 716 933 q 466 882 535 933 q 360 737 397 830 q 323 521 323 644 q 359 306 323 398 q 463 164 394 215 q 632 113 532 113 q 787 149 720 113 q 895 247 853 185 q 947 381 936 308 q 956 404 951 398 q 978 410 962 410 l 1070 410 q 1093 406 1088 410 q 1096 388 1097 401 q 1025 178 1084 270 q 862 32 966 85 q 611 -21 758 -21 q 389 18 490 -21 q 216 129 289 57 q 102 300 142 201 q 63 521 63 400 "},"Ć":{"ha":1153,"x_min":63,"x_max":1097,"o":"m 593 1147 l 542 1199 q 542 1223 531 1212 l 692 1390 q 736 1414 708 1408 q 792 1412 764 1419 q 835 1382 820 1404 q 855 1307 864 1344 q 813 1251 846 1269 l 617 1144 q 605 1139 609 1138 q 593 1147 600 1140 m 63 521 q 106 736 63 637 q 225 908 149 835 q 401 1022 301 981 q 618 1063 502 1063 q 773 1034 705 1063 q 889 960 840 1005 q 913 948 905 947 q 931 970 920 949 l 958 1035 q 966 1046 963 1044 q 985 1049 970 1049 l 1052 1049 q 1073 1044 1069 1049 q 1076 1022 1076 1039 l 1076 691 q 1072 671 1076 676 q 1051 667 1067 667 l 956 667 q 933 673 937 667 q 926 693 929 678 q 875 813 912 758 q 777 900 838 867 q 632 933 716 933 q 466 882 535 933 q 360 737 397 830 q 323 521 323 644 q 359 306 323 398 q 463 164 394 215 q 632 113 532 113 q 787 149 720 113 q 895 247 853 185 q 947 381 936 308 q 956 404 951 398 q 978 410 962 410 l 1070 410 q 1093 406 1088 410 q 1096 388 1097 401 q 1025 178 1084 270 q 862 32 966 85 q 611 -21 758 -21 q 389 18 490 -21 q 216 129 289 57 q 102 300 142 201 q 63 521 63 400 "},"Ĉ":{"ha":1153,"x_min":63,"x_max":1097,"o":"m 440 1156 l 409 1189 q 401 1200 401 1197 q 408 1211 401 1203 l 538 1366 q 552 1376 545 1374 q 575 1378 560 1378 l 669 1378 q 689 1375 683 1378 q 701 1366 695 1373 l 834 1208 q 839 1200 840 1203 q 832 1191 838 1197 l 794 1153 q 784 1146 787 1146 q 772 1153 781 1147 l 637 1253 q 602 1254 619 1267 l 465 1152 q 440 1156 453 1143 m 63 521 q 106 736 63 637 q 225 908 149 835 q 401 1022 301 981 q 618 1063 502 1063 q 773 1034 705 1063 q 889 960 840 1005 q 913 948 905 947 q 931 970 920 949 l 958 1035 q 966 1046 963 1044 q 985 1049 970 1049 l 1052 1049 q 1073 1044 1069 1049 q 1076 1022 1076 1039 l 1076 691 q 1072 671 1076 676 q 1051 667 1067 667 l 956 667 q 933 673 937 667 q 926 693 929 678 q 875 813 912 758 q 777 900 838 867 q 632 933 716 933 q 466 882 535 933 q 360 737 397 830 q 323 521 323 644 q 359 306 323 398 q 463 164 394 215 q 632 113 532 113 q 787 149 720 113 q 895 247 853 185 q 947 381 936 308 q 956 404 951 398 q 978 410 962 410 l 1070 410 q 1093 406 1088 410 q 1096 388 1097 401 q 1025 178 1084 270 q 862 32 966 85 q 611 -21 758 -21 q 389 18 490 -21 q 216 129 289 57 q 102 300 142 201 q 63 521 63 400 "},"Ċ":{"ha":1153,"x_min":63,"x_max":1097,"o":"m 622 1201 q 545 1233 577 1201 q 513 1309 513 1265 q 545 1386 513 1354 q 622 1418 577 1418 q 698 1386 667 1418 q 730 1309 730 1354 q 698 1233 730 1265 q 622 1201 667 1201 m 63 521 q 106 736 63 637 q 225 908 149 835 q 401 1022 301 981 q 618 1063 502 1063 q 773 1034 705 1063 q 889 960 840 1005 q 913 948 905 947 q 931 970 920 949 l 958 1035 q 966 1046 963 1044 q 985 1049 970 1049 l 1052 1049 q 1073 1044 1069 1049 q 1076 1022 1076 1039 l 1076 691 q 1072 671 1076 676 q 1051 667 1067 667 l 956 667 q 933 673 937 667 q 926 693 929 678 q 875 813 912 758 q 777 900 838 867 q 632 933 716 933 q 466 882 535 933 q 360 737 397 830 q 323 521 323 644 q 359 306 323 398 q 463 164 394 215 q 632 113 532 113 q 787 149 720 113 q 895 247 853 185 q 947 381 936 308 q 956 404 951 398 q 978 410 962 410 l 1070 410 q 1093 406 1088 410 q 1096 388 1097 401 q 1025 178 1084 270 q 862 32 966 85 q 611 -21 758 -21 q 389 18 490 -21 q 216 129 289 57 q 102 300 142 201 q 63 521 63 400 "},"Č":{"ha":1153,"x_min":63,"x_max":1097,"o":"m 533 1173 l 409 1322 q 402 1334 402 1329 q 410 1346 403 1339 l 442 1376 q 456 1384 451 1385 q 470 1376 460 1383 l 592 1290 q 619 1280 607 1280 q 646 1290 631 1279 l 772 1381 q 786 1386 781 1388 q 800 1376 792 1384 l 827 1349 q 837 1336 836 1340 q 830 1322 838 1331 l 703 1171 q 690 1159 697 1163 q 667 1156 683 1156 l 576 1156 q 549 1160 558 1156 q 533 1173 540 1165 m 63 521 q 106 736 63 637 q 225 908 149 835 q 401 1022 301 981 q 618 1063 502 1063 q 773 1034 705 1063 q 889 960 840 1005 q 913 948 905 947 q 931 970 920 949 l 958 1035 q 966 1046 963 1044 q 985 1049 970 1049 l 1052 1049 q 1073 1044 1069 1049 q 1076 1022 1076 1039 l 1076 691 q 1072 671 1076 676 q 1051 667 1067 667 l 956 667 q 933 673 937 667 q 926 693 929 678 q 875 813 912 758 q 777 900 838 867 q 632 933 716 933 q 466 882 535 933 q 360 737 397 830 q 323 521 323 644 q 359 306 323 398 q 463 164 394 215 q 632 113 532 113 q 787 149 720 113 q 895 247 853 185 q 947 381 936 308 q 956 404 951 398 q 978 410 962 410 l 1070 410 q 1093 406 1088 410 q 1096 388 1097 401 q 1025 178 1084 270 q 862 32 966 85 q 611 -21 758 -21 q 389 18 490 -21 q 216 129 289 57 q 102 300 142 201 q 63 521 63 400 "},"D":{"ha":1210,"x_min":44,"x_max":1148,"o":"m 44 24 l 44 105 q 49 127 44 122 q 69 132 53 132 l 173 132 q 193 138 190 132 q 197 162 197 144 l 197 877 q 192 903 197 897 q 168 910 188 910 l 81 910 q 51 915 58 910 q 44 939 44 919 l 44 1013 q 53 1037 44 1032 q 81 1042 62 1042 l 599 1042 q 848 1002 744 1042 q 1018 892 952 963 q 1116 727 1085 822 q 1148 521 1148 632 q 1115 315 1148 410 q 1013 149 1081 220 q 842 39 945 78 q 599 0 739 0 l 72 0 q 50 4 56 0 q 44 24 44 8 m 460 132 l 592 132 q 761 180 696 132 q 857 314 826 227 q 888 521 888 401 q 854 728 888 640 q 755 863 820 815 q 592 910 689 910 l 461 910 q 432 904 439 910 q 426 875 426 898 l 426 160 q 433 136 426 140 q 460 132 440 132 "},"Ď":{"ha":1210,"x_min":44,"x_max":1148,"o":"m 476 1173 l 352 1322 q 345 1334 345 1329 q 353 1346 346 1339 l 385 1376 q 399 1384 394 1385 q 413 1376 403 1383 l 535 1290 q 562 1280 550 1280 q 589 1290 574 1279 l 715 1381 q 730 1386 724 1388 q 743 1376 735 1384 l 770 1349 q 780 1336 779 1340 q 773 1322 781 1331 l 647 1171 q 633 1159 640 1163 q 610 1156 626 1156 l 519 1156 q 492 1160 501 1156 q 476 1173 483 1165 m 44 24 l 44 105 q 49 127 44 122 q 69 132 53 132 l 173 132 q 193 138 190 132 q 197 162 197 144 l 197 877 q 192 903 197 897 q 168 910 188 910 l 81 910 q 51 915 58 910 q 44 939 44 919 l 44 1013 q 53 1037 44 1032 q 81 1042 62 1042 l 599 1042 q 848 1002 744 1042 q 1018 892 952 963 q 1116 727 1085 822 q 1148 521 1148 632 q 1115 315 1148 410 q 1013 149 1081 220 q 842 39 945 78 q 599 0 739 0 l 72 0 q 50 4 56 0 q 44 24 44 8 m 460 132 l 592 132 q 761 180 696 132 q 857 314 826 227 q 888 521 888 401 q 854 728 888 640 q 755 863 820 815 q 592 910 689 910 l 461 910 q 432 904 439 910 q 426 875 426 898 l 426 160 q 433 136 426 140 q 460 132 440 132 "},"E":{"ha":1109,"x_min":44,"x_max":1037,"o":"m 164 910 l 72 910 q 48 916 53 910 q 44 941 44 923 l 44 1013 q 50 1037 44 1033 q 75 1042 56 1042 l 990 1042 q 1017 1036 1012 1042 q 1023 1008 1023 1031 l 1023 701 q 1021 678 1023 683 q 1000 674 1019 674 l 920 674 q 901 681 905 674 q 897 701 898 688 q 877 824 895 778 q 816 890 859 870 q 697 910 774 910 l 461 910 q 434 905 442 910 q 426 878 426 899 l 426 617 q 430 590 426 597 q 451 582 434 582 l 499 582 q 604 620 568 582 q 646 713 640 658 q 651 734 648 728 q 667 740 655 740 l 717 740 q 740 735 735 740 q 745 713 745 731 l 745 345 q 741 322 745 328 q 719 317 737 317 l 670 317 q 652 323 656 317 q 645 347 648 330 q 623 414 641 383 q 574 463 604 444 q 503 481 544 481 l 455 481 q 432 474 439 481 q 426 446 426 466 l 426 161 q 432 136 426 140 q 460 132 438 132 l 683 132 q 821 155 772 132 q 890 230 870 177 q 911 372 910 282 q 915 397 912 392 q 938 403 919 403 l 1010 403 q 1032 398 1028 403 q 1037 375 1037 394 l 1037 26 q 1033 4 1037 8 q 1010 0 1028 0 l 75 0 q 50 3 57 0 q 44 25 44 6 l 44 111 q 48 130 44 127 q 69 132 53 132 l 163 132 q 191 137 186 132 q 197 166 197 142 l 197 882 q 190 906 197 902 q 164 910 184 910 "},"È":{"ha":1109,"x_min":44,"x_max":1037,"o":"m 575 1142 l 376 1251 q 335 1307 344 1269 q 354 1382 326 1344 q 399 1412 371 1404 q 454 1414 426 1419 q 498 1390 482 1408 l 647 1224 q 647 1199 659 1211 l 596 1146 q 586 1138 590 1140 q 575 1142 583 1137 m 164 910 l 72 910 q 48 916 53 910 q 44 941 44 923 l 44 1013 q 50 1037 44 1033 q 75 1042 56 1042 l 990 1042 q 1017 1036 1012 1042 q 1023 1008 1023 1031 l 1023 701 q 1021 678 1023 683 q 1000 674 1019 674 l 920 674 q 901 681 905 674 q 897 701 898 688 q 877 824 895 778 q 816 890 859 870 q 697 910 774 910 l 461 910 q 434 905 442 910 q 426 878 426 899 l 426 617 q 430 590 426 597 q 451 582 434 582 l 499 582 q 604 620 568 582 q 646 713 640 658 q 651 734 648 728 q 667 740 655 740 l 717 740 q 740 735 735 740 q 745 713 745 731 l 745 345 q 741 322 745 328 q 719 317 737 317 l 670 317 q 652 323 656 317 q 645 347 648 330 q 623 414 641 383 q 574 463 604 444 q 503 481 544 481 l 455 481 q 432 474 439 481 q 426 446 426 466 l 426 161 q 432 136 426 140 q 460 132 438 132 l 683 132 q 821 155 772 132 q 890 230 870 177 q 911 372 910 282 q 915 397 912 392 q 938 403 919 403 l 1010 403 q 1032 398 1028 403 q 1037 375 1037 394 l 1037 26 q 1033 4 1037 8 q 1010 0 1028 0 l 75 0 q 50 3 57 0 q 44 25 44 6 l 44 111 q 48 130 44 127 q 69 132 53 132 l 163 132 q 191 137 186 132 q 197 166 197 142 l 197 882 q 190 906 197 902 q 164 910 184 910 "},"É":{"ha":1109,"x_min":44,"x_max":1037,"o":"m 543 1147 l 492 1199 q 492 1223 481 1212 l 642 1390 q 686 1414 658 1408 q 742 1412 714 1419 q 785 1382 770 1404 q 805 1307 814 1344 q 763 1251 796 1269 l 567 1144 q 555 1139 559 1138 q 543 1147 550 1140 m 164 910 l 72 910 q 48 916 53 910 q 44 941 44 923 l 44 1013 q 50 1037 44 1033 q 75 1042 56 1042 l 990 1042 q 1017 1036 1012 1042 q 1023 1008 1023 1031 l 1023 701 q 1021 678 1023 683 q 1000 674 1019 674 l 920 674 q 901 681 905 674 q 897 701 898 688 q 877 824 895 778 q 816 890 859 870 q 697 910 774 910 l 461 910 q 434 905 442 910 q 426 878 426 899 l 426 617 q 430 590 426 597 q 451 582 434 582 l 499 582 q 604 620 568 582 q 646 713 640 658 q 651 734 648 728 q 667 740 655 740 l 717 740 q 740 735 735 740 q 745 713 745 731 l 745 345 q 741 322 745 328 q 719 317 737 317 l 670 317 q 652 323 656 317 q 645 347 648 330 q 623 414 641 383 q 574 463 604 444 q 503 481 544 481 l 455 481 q 432 474 439 481 q 426 446 426 466 l 426 161 q 432 136 426 140 q 460 132 438 132 l 683 132 q 821 155 772 132 q 890 230 870 177 q 911 372 910 282 q 915 397 912 392 q 938 403 919 403 l 1010 403 q 1032 398 1028 403 q 1037 375 1037 394 l 1037 26 q 1033 4 1037 8 q 1010 0 1028 0 l 75 0 q 50 3 57 0 q 44 25 44 6 l 44 111 q 48 130 44 127 q 69 132 53 132 l 163 132 q 191 137 186 132 q 197 166 197 142 l 197 882 q 190 906 197 902 q 164 910 184 910 "},"Ê":{"ha":1109,"x_min":44,"x_max":1037,"o":"m 390 1156 l 359 1189 q 351 1200 351 1197 q 358 1211 351 1203 l 488 1366 q 502 1376 495 1374 q 525 1378 510 1378 l 619 1378 q 639 1375 633 1378 q 651 1366 645 1373 l 784 1208 q 789 1200 790 1203 q 782 1191 788 1197 l 744 1153 q 734 1146 737 1146 q 722 1153 731 1147 l 587 1253 q 552 1254 569 1267 l 415 1152 q 390 1156 403 1143 m 164 910 l 72 910 q 48 916 53 910 q 44 941 44 923 l 44 1013 q 50 1037 44 1033 q 75 1042 56 1042 l 990 1042 q 1017 1036 1012 1042 q 1023 1008 1023 1031 l 1023 701 q 1021 678 1023 683 q 1000 674 1019 674 l 920 674 q 901 681 905 674 q 897 701 898 688 q 877 824 895 778 q 816 890 859 870 q 697 910 774 910 l 461 910 q 434 905 442 910 q 426 878 426 899 l 426 617 q 430 590 426 597 q 451 582 434 582 l 499 582 q 604 620 568 582 q 646 713 640 658 q 651 734 648 728 q 667 740 655 740 l 717 740 q 740 735 735 740 q 745 713 745 731 l 745 345 q 741 322 745 328 q 719 317 737 317 l 670 317 q 652 323 656 317 q 645 347 648 330 q 623 414 641 383 q 574 463 604 444 q 503 481 544 481 l 455 481 q 432 474 439 481 q 426 446 426 466 l 426 161 q 432 136 426 140 q 460 132 438 132 l 683 132 q 821 155 772 132 q 890 230 870 177 q 911 372 910 282 q 915 397 912 392 q 938 403 919 403 l 1010 403 q 1032 398 1028 403 q 1037 375 1037 394 l 1037 26 q 1033 4 1037 8 q 1010 0 1028 0 l 75 0 q 50 3 57 0 q 44 25 44 6 l 44 111 q 48 130 44 127 q 69 132 53 132 l 163 132 q 191 137 186 132 q 197 166 197 142 l 197 882 q 190 906 197 902 q 164 910 184 910 "},"Ë":{"ha":1109,"x_min":44,"x_max":1037,"o":"m 721 1174 q 650 1203 680 1174 q 621 1274 621 1233 q 650 1345 621 1315 q 721 1374 680 1374 q 792 1345 763 1374 q 821 1274 821 1315 q 792 1203 821 1233 q 721 1174 763 1174 m 415 1174 q 345 1203 374 1174 q 315 1274 315 1233 q 345 1345 315 1315 q 415 1374 374 1374 q 486 1345 457 1374 q 515 1274 515 1315 q 486 1203 515 1233 q 415 1174 457 1174 m 164 910 l 72 910 q 48 916 53 910 q 44 941 44 923 l 44 1013 q 50 1037 44 1033 q 75 1042 56 1042 l 990 1042 q 1017 1036 1012 1042 q 1023 1008 1023 1031 l 1023 701 q 1021 678 1023 683 q 1000 674 1019 674 l 920 674 q 901 681 905 674 q 897 701 898 688 q 877 824 895 778 q 816 890 859 870 q 697 910 774 910 l 461 910 q 434 905 442 910 q 426 878 426 899 l 426 617 q 430 590 426 597 q 451 582 434 582 l 499 582 q 604 620 568 582 q 646 713 640 658 q 651 734 648 728 q 667 740 655 740 l 717 740 q 740 735 735 740 q 745 713 745 731 l 745 345 q 741 322 745 328 q 719 317 737 317 l 670 317 q 652 323 656 317 q 645 347 648 330 q 623 414 641 383 q 574 463 604 444 q 503 481 544 481 l 455 481 q 432 474 439 481 q 426 446 426 466 l 426 161 q 432 136 426 140 q 460 132 438 132 l 683 132 q 821 155 772 132 q 890 230 870 177 q 911 372 910 282 q 915 397 912 392 q 938 403 919 403 l 1010 403 q 1032 398 1028 403 q 1037 375 1037 394 l 1037 26 q 1033 4 1037 8 q 1010 0 1028 0 l 75 0 q 50 3 57 0 q 44 25 44 6 l 44 111 q 48 130 44 127 q 69 132 53 132 l 163 132 q 191 137 186 132 q 197 166 197 142 l 197 882 q 190 906 197 902 q 164 910 184 910 "},"Ē":{"ha":1109,"x_min":44,"x_max":1037,"o":"m 402 1172 l 402 1229 q 405 1243 402 1239 q 416 1248 407 1248 l 712 1248 q 730 1244 725 1248 q 735 1226 735 1240 l 735 1170 q 733 1154 735 1159 q 720 1149 731 1149 l 426 1149 q 408 1153 413 1149 q 402 1172 402 1157 m 164 910 l 72 910 q 48 916 53 910 q 44 941 44 923 l 44 1013 q 50 1037 44 1033 q 75 1042 56 1042 l 990 1042 q 1017 1036 1012 1042 q 1023 1008 1023 1031 l 1023 701 q 1021 678 1023 683 q 1000 674 1019 674 l 920 674 q 901 681 905 674 q 897 701 898 688 q 877 824 895 778 q 816 890 859 870 q 697 910 774 910 l 461 910 q 434 905 442 910 q 426 878 426 899 l 426 617 q 430 590 426 597 q 451 582 434 582 l 499 582 q 604 620 568 582 q 646 713 640 658 q 651 734 648 728 q 667 740 655 740 l 717 740 q 740 735 735 740 q 745 713 745 731 l 745 345 q 741 322 745 328 q 719 317 737 317 l 670 317 q 652 323 656 317 q 645 347 648 330 q 623 414 641 383 q 574 463 604 444 q 503 481 544 481 l 455 481 q 432 474 439 481 q 426 446 426 466 l 426 161 q 432 136 426 140 q 460 132 438 132 l 683 132 q 821 155 772 132 q 890 230 870 177 q 911 372 910 282 q 915 397 912 392 q 938 403 919 403 l 1010 403 q 1032 398 1028 403 q 1037 375 1037 394 l 1037 26 q 1033 4 1037 8 q 1010 0 1028 0 l 75 0 q 50 3 57 0 q 44 25 44 6 l 44 111 q 48 130 44 127 q 69 132 53 132 l 163 132 q 191 137 186 132 q 197 166 197 142 l 197 882 q 190 906 197 902 q 164 910 184 910 "},"Ĕ":{"ha":1109,"x_min":44,"x_max":1037,"o":"m 569 1146 q 433 1200 472 1146 q 393 1347 394 1253 q 409 1360 393 1360 l 457 1360 q 469 1349 469 1360 q 495 1295 473 1315 q 569 1274 518 1274 q 640 1292 617 1274 q 669 1340 663 1310 q 673 1355 672 1349 q 686 1360 674 1360 l 733 1360 q 745 1357 744 1360 q 747 1343 747 1353 q 704 1199 744 1252 q 569 1146 665 1146 m 164 910 l 72 910 q 48 916 53 910 q 44 941 44 923 l 44 1013 q 50 1037 44 1033 q 75 1042 56 1042 l 990 1042 q 1017 1036 1012 1042 q 1023 1008 1023 1031 l 1023 701 q 1021 678 1023 683 q 1000 674 1019 674 l 920 674 q 901 681 905 674 q 897 701 898 688 q 877 824 895 778 q 816 890 859 870 q 697 910 774 910 l 461 910 q 434 905 442 910 q 426 878 426 899 l 426 617 q 430 590 426 597 q 451 582 434 582 l 499 582 q 604 620 568 582 q 646 713 640 658 q 651 734 648 728 q 667 740 655 740 l 717 740 q 740 735 735 740 q 745 713 745 731 l 745 345 q 741 322 745 328 q 719 317 737 317 l 670 317 q 652 323 656 317 q 645 347 648 330 q 623 414 641 383 q 574 463 604 444 q 503 481 544 481 l 455 481 q 432 474 439 481 q 426 446 426 466 l 426 161 q 432 136 426 140 q 460 132 438 132 l 683 132 q 821 155 772 132 q 890 230 870 177 q 911 372 910 282 q 915 397 912 392 q 938 403 919 403 l 1010 403 q 1032 398 1028 403 q 1037 375 1037 394 l 1037 26 q 1033 4 1037 8 q 1010 0 1028 0 l 75 0 q 50 3 57 0 q 44 25 44 6 l 44 111 q 48 130 44 127 q 69 132 53 132 l 163 132 q 191 137 186 132 q 197 166 197 142 l 197 882 q 190 906 197 902 q 164 910 184 910 "},"Ė":{"ha":1109,"x_min":44,"x_max":1037,"o":"m 572 1201 q 495 1233 527 1201 q 463 1309 463 1265 q 495 1386 463 1354 q 572 1418 527 1418 q 648 1386 617 1418 q 680 1309 680 1354 q 648 1233 680 1265 q 572 1201 617 1201 m 164 910 l 72 910 q 48 916 53 910 q 44 941 44 923 l 44 1013 q 50 1037 44 1033 q 75 1042 56 1042 l 990 1042 q 1017 1036 1012 1042 q 1023 1008 1023 1031 l 1023 701 q 1021 678 1023 683 q 1000 674 1019 674 l 920 674 q 901 681 905 674 q 897 701 898 688 q 877 824 895 778 q 816 890 859 870 q 697 910 774 910 l 461 910 q 434 905 442 910 q 426 878 426 899 l 426 617 q 430 590 426 597 q 451 582 434 582 l 499 582 q 604 620 568 582 q 646 713 640 658 q 651 734 648 728 q 667 740 655 740 l 717 740 q 740 735 735 740 q 745 713 745 731 l 745 345 q 741 322 745 328 q 719 317 737 317 l 670 317 q 652 323 656 317 q 645 347 648 330 q 623 414 641 383 q 574 463 604 444 q 503 481 544 481 l 455 481 q 432 474 439 481 q 426 446 426 466 l 426 161 q 432 136 426 140 q 460 132 438 132 l 683 132 q 821 155 772 132 q 890 230 870 177 q 911 372 910 282 q 915 397 912 392 q 938 403 919 403 l 1010 403 q 1032 398 1028 403 q 1037 375 1037 394 l 1037 26 q 1033 4 1037 8 q 1010 0 1028 0 l 75 0 q 50 3 57 0 q 44 25 44 6 l 44 111 q 48 130 44 127 q 69 132 53 132 l 163 132 q 191 137 186 132 q 197 166 197 142 l 197 882 q 190 906 197 902 q 164 910 184 910 "},"Ę":{"ha":1109,"x_min":44,"x_max":1068,"o":"m 885 -291 q 765 -263 813 -291 q 717 -175 717 -235 q 738 -106 717 -137 q 791 -47 759 -74 q 857 2 822 -20 q 919 44 891 25 q 944 48 931 51 q 963 40 958 45 q 977 23 975 30 q 971 6 979 16 q 934 -33 955 -12 q 897 -80 913 -55 q 881 -133 881 -105 q 897 -176 881 -160 q 944 -192 913 -192 q 986 -182 969 -192 q 1014 -157 1003 -171 q 1034 -152 1024 -144 l 1061 -173 q 1068 -181 1068 -178 q 1064 -192 1068 -185 q 1001 -261 1043 -231 q 885 -291 959 -291 m 164 910 l 72 910 q 48 916 53 910 q 44 941 44 923 l 44 1013 q 50 1037 44 1033 q 75 1042 56 1042 l 990 1042 q 1017 1036 1012 1042 q 1023 1008 1023 1031 l 1023 701 q 1021 678 1023 683 q 1000 674 1019 674 l 920 674 q 901 681 905 674 q 897 701 898 688 q 877 824 895 778 q 816 890 859 870 q 697 910 774 910 l 461 910 q 434 905 442 910 q 426 878 426 899 l 426 617 q 430 590 426 597 q 451 582 434 582 l 499 582 q 604 620 568 582 q 646 713 640 658 q 651 734 648 728 q 667 740 655 740 l 717 740 q 740 735 735 740 q 745 713 745 731 l 745 345 q 741 322 745 328 q 719 317 737 317 l 670 317 q 652 323 656 317 q 645 347 648 330 q 623 414 641 383 q 574 463 604 444 q 503 481 544 481 l 455 481 q 432 474 439 481 q 426 446 426 466 l 426 161 q 432 136 426 140 q 460 132 438 132 l 683 132 q 821 155 772 132 q 890 230 870 177 q 911 372 910 282 q 915 397 912 392 q 938 403 919 403 l 1010 403 q 1032 398 1028 403 q 1037 375 1037 394 l 1037 26 q 1033 4 1037 8 q 1010 0 1028 0 l 75 0 q 50 3 57 0 q 44 25 44 6 l 44 111 q 48 130 44 127 q 69 132 53 132 l 163 132 q 191 137 186 132 q 197 166 197 142 l 197 882 q 190 906 197 902 q 164 910 184 910 "},"Ě":{"ha":1109,"x_min":44,"x_max":1037,"o":"m 483 1173 l 359 1322 q 352 1334 352 1329 q 360 1346 353 1339 l 392 1376 q 406 1384 401 1385 q 420 1376 410 1383 l 542 1290 q 569 1280 557 1280 q 596 1290 581 1279 l 722 1381 q 736 1386 731 1388 q 750 1376 742 1384 l 777 1349 q 787 1336 786 1340 q 780 1322 788 1331 l 653 1171 q 640 1159 647 1163 q 617 1156 633 1156 l 526 1156 q 499 1160 508 1156 q 483 1173 490 1165 m 164 910 l 72 910 q 48 916 53 910 q 44 941 44 923 l 44 1013 q 50 1037 44 1033 q 75 1042 56 1042 l 990 1042 q 1017 1036 1012 1042 q 1023 1008 1023 1031 l 1023 701 q 1021 678 1023 683 q 1000 674 1019 674 l 920 674 q 901 681 905 674 q 897 701 898 688 q 877 824 895 778 q 816 890 859 870 q 697 910 774 910 l 461 910 q 434 905 442 910 q 426 878 426 899 l 426 617 q 430 590 426 597 q 451 582 434 582 l 499 582 q 604 620 568 582 q 646 713 640 658 q 651 734 648 728 q 667 740 655 740 l 717 740 q 740 735 735 740 q 745 713 745 731 l 745 345 q 741 322 745 328 q 719 317 737 317 l 670 317 q 652 323 656 317 q 645 347 648 330 q 623 414 641 383 q 574 463 604 444 q 503 481 544 481 l 455 481 q 432 474 439 481 q 426 446 426 466 l 426 161 q 432 136 426 140 q 460 132 438 132 l 683 132 q 821 155 772 132 q 890 230 870 177 q 911 372 910 282 q 915 397 912 392 q 938 403 919 403 l 1010 403 q 1032 398 1028 403 q 1037 375 1037 394 l 1037 26 q 1033 4 1037 8 q 1010 0 1028 0 l 75 0 q 50 3 57 0 q 44 25 44 6 l 44 111 q 48 130 44 127 q 69 132 53 132 l 163 132 q 191 137 186 132 q 197 166 197 142 l 197 882 q 190 906 197 902 q 164 910 184 910 "},"F":{"ha":1066,"x_min":44,"x_max":1009,"o":"m 174 910 l 60 910 q 47 914 50 910 q 44 928 44 917 l 44 1026 q 47 1039 44 1037 q 60 1042 51 1042 l 988 1042 q 1006 1037 1002 1042 q 1009 1018 1009 1033 l 1009 685 q 1004 669 1009 672 q 987 667 999 667 l 907 667 q 888 670 892 667 q 884 688 884 674 q 865 818 883 769 q 804 888 847 867 q 683 910 761 910 l 452 910 q 431 905 437 910 q 426 885 426 900 l 426 586 q 429 571 426 575 q 442 567 432 567 l 495 567 q 602 603 563 567 q 647 699 641 640 q 648 715 648 710 q 661 719 649 719 l 726 719 q 741 716 738 719 q 745 701 745 713 l 745 316 q 742 300 745 305 q 727 296 739 296 l 667 296 q 652 299 655 296 q 647 313 649 302 q 603 416 643 376 q 497 456 564 456 l 440 456 q 428 451 430 456 q 426 438 426 447 l 426 163 q 431 138 426 144 q 455 132 435 132 l 576 132 q 595 130 591 132 q 599 113 599 127 l 599 27 q 594 5 599 10 q 572 0 588 0 l 67 0 q 48 3 53 0 q 44 19 44 6 l 44 116 q 49 130 44 128 q 66 132 54 132 l 172 132 q 192 137 188 132 q 197 159 197 142 l 197 888 q 192 906 197 902 q 174 910 188 910 "},"G":{"ha":1260,"x_min":63,"x_max":1243,"o":"m 713 556 l 1208 556 q 1237 550 1231 556 q 1243 522 1243 545 l 1243 441 q 1238 421 1243 425 q 1215 417 1233 417 l 1128 417 q 1109 412 1113 417 q 1104 392 1104 408 l 1104 283 q 1102 251 1104 263 q 1092 227 1100 240 q 1029 144 1070 188 q 928 64 988 101 q 789 3 868 26 q 611 -21 709 -21 q 392 18 492 -21 q 218 129 292 57 q 103 300 144 201 q 63 521 63 400 q 105 736 63 637 q 221 908 147 835 q 395 1022 296 981 q 611 1063 495 1063 q 779 1036 707 1063 q 901 963 851 1009 q 922 953 915 952 q 938 972 928 955 l 964 1026 q 974 1040 968 1035 q 990 1045 979 1045 l 1058 1045 q 1077 1041 1071 1045 q 1083 1024 1083 1037 l 1083 717 q 1080 690 1083 699 q 1059 681 1076 681 l 974 681 q 946 687 951 681 q 936 710 942 693 q 882 825 917 774 q 786 905 847 876 q 633 935 726 935 q 470 883 540 935 q 362 737 401 831 q 323 521 323 644 q 356 304 323 398 q 454 157 390 210 q 611 104 518 104 q 735 126 685 104 q 814 183 784 149 q 858 253 843 217 q 866 275 863 265 q 868 303 868 286 l 868 390 q 863 412 868 408 q 840 417 857 417 l 710 417 q 685 424 690 417 q 681 451 681 431 l 681 525 q 687 551 681 546 q 713 556 694 556 "},"Ĝ":{"ha":1260,"x_min":63,"x_max":1243,"o":"m 440 1156 l 409 1189 q 401 1200 401 1197 q 408 1211 401 1203 l 538 1366 q 552 1376 545 1374 q 575 1378 560 1378 l 669 1378 q 689 1375 683 1378 q 701 1366 695 1373 l 834 1208 q 839 1200 840 1203 q 832 1191 838 1197 l 794 1153 q 784 1146 787 1146 q 772 1153 781 1147 l 637 1253 q 602 1254 619 1267 l 465 1152 q 440 1156 453 1143 m 713 556 l 1208 556 q 1237 550 1231 556 q 1243 522 1243 545 l 1243 441 q 1238 421 1243 425 q 1215 417 1233 417 l 1128 417 q 1109 412 1113 417 q 1104 392 1104 408 l 1104 283 q 1102 251 1104 263 q 1092 227 1100 240 q 1029 144 1070 188 q 928 64 988 101 q 789 3 868 26 q 611 -21 709 -21 q 392 18 492 -21 q 218 129 292 57 q 103 300 144 201 q 63 521 63 400 q 105 736 63 637 q 221 908 147 835 q 395 1022 296 981 q 611 1063 495 1063 q 779 1036 707 1063 q 901 963 851 1009 q 922 953 915 952 q 938 972 928 955 l 964 1026 q 974 1040 968 1035 q 990 1045 979 1045 l 1058 1045 q 1077 1041 1071 1045 q 1083 1024 1083 1037 l 1083 717 q 1080 690 1083 699 q 1059 681 1076 681 l 974 681 q 946 687 951 681 q 936 710 942 693 q 882 825 917 774 q 786 905 847 876 q 633 935 726 935 q 470 883 540 935 q 362 737 401 831 q 323 521 323 644 q 356 304 323 398 q 454 157 390 210 q 611 104 518 104 q 735 126 685 104 q 814 183 784 149 q 858 253 843 217 q 866 275 863 265 q 868 303 868 286 l 868 390 q 863 412 868 408 q 840 417 857 417 l 710 417 q 685 424 690 417 q 681 451 681 431 l 681 525 q 687 551 681 546 q 713 556 694 556 "},"Ğ":{"ha":1260,"x_min":63,"x_max":1243,"o":"m 619 1146 q 483 1200 522 1146 q 443 1347 444 1253 q 459 1360 443 1360 l 507 1360 q 519 1349 519 1360 q 545 1295 523 1315 q 619 1274 568 1274 q 690 1292 667 1274 q 719 1340 713 1310 q 723 1355 722 1349 q 736 1360 724 1360 l 783 1360 q 795 1357 794 1360 q 797 1343 797 1353 q 754 1199 794 1252 q 619 1146 715 1146 m 713 556 l 1208 556 q 1237 550 1231 556 q 1243 522 1243 545 l 1243 441 q 1238 421 1243 425 q 1215 417 1233 417 l 1128 417 q 1109 412 1113 417 q 1104 392 1104 408 l 1104 283 q 1102 251 1104 263 q 1092 227 1100 240 q 1029 144 1070 188 q 928 64 988 101 q 789 3 868 26 q 611 -21 709 -21 q 392 18 492 -21 q 218 129 292 57 q 103 300 144 201 q 63 521 63 400 q 105 736 63 637 q 221 908 147 835 q 395 1022 296 981 q 611 1063 495 1063 q 779 1036 707 1063 q 901 963 851 1009 q 922 953 915 952 q 938 972 928 955 l 964 1026 q 974 1040 968 1035 q 990 1045 979 1045 l 1058 1045 q 1077 1041 1071 1045 q 1083 1024 1083 1037 l 1083 717 q 1080 690 1083 699 q 1059 681 1076 681 l 974 681 q 946 687 951 681 q 936 710 942 693 q 882 825 917 774 q 786 905 847 876 q 633 935 726 935 q 470 883 540 935 q 362 737 401 831 q 323 521 323 644 q 356 304 323 398 q 454 157 390 210 q 611 104 518 104 q 735 126 685 104 q 814 183 784 149 q 858 253 843 217 q 866 275 863 265 q 868 303 868 286 l 868 390 q 863 412 868 408 q 840 417 857 417 l 710 417 q 685 424 690 417 q 681 451 681 431 l 681 525 q 687 551 681 546 q 713 556 694 556 "},"Ġ":{"ha":1260,"x_min":63,"x_max":1243,"o":"m 622 1201 q 545 1233 577 1201 q 513 1309 513 1265 q 545 1386 513 1354 q 622 1418 577 1418 q 698 1386 667 1418 q 730 1309 730 1354 q 698 1233 730 1265 q 622 1201 667 1201 m 713 556 l 1208 556 q 1237 550 1231 556 q 1243 522 1243 545 l 1243 441 q 1238 421 1243 425 q 1215 417 1233 417 l 1128 417 q 1109 412 1113 417 q 1104 392 1104 408 l 1104 283 q 1102 251 1104 263 q 1092 227 1100 240 q 1029 144 1070 188 q 928 64 988 101 q 789 3 868 26 q 611 -21 709 -21 q 392 18 492 -21 q 218 129 292 57 q 103 300 144 201 q 63 521 63 400 q 105 736 63 637 q 221 908 147 835 q 395 1022 296 981 q 611 1063 495 1063 q 779 1036 707 1063 q 901 963 851 1009 q 922 953 915 952 q 938 972 928 955 l 964 1026 q 974 1040 968 1035 q 990 1045 979 1045 l 1058 1045 q 1077 1041 1071 1045 q 1083 1024 1083 1037 l 1083 717 q 1080 690 1083 699 q 1059 681 1076 681 l 974 681 q 946 687 951 681 q 936 710 942 693 q 882 825 917 774 q 786 905 847 876 q 633 935 726 935 q 470 883 540 935 q 362 737 401 831 q 323 521 323 644 q 356 304 323 398 q 454 157 390 210 q 611 104 518 104 q 735 126 685 104 q 814 183 784 149 q 858 253 843 217 q 866 275 863 265 q 868 303 868 286 l 868 390 q 863 412 868 408 q 840 417 857 417 l 710 417 q 685 424 690 417 q 681 451 681 431 l 681 525 q 687 551 681 546 q 713 556 694 556 "},"Ģ":{"ha":1260,"x_min":63,"x_max":1243,"o":"m 488 -224 q 522 -152 488 -180 q 599 -125 555 -125 q 683 -162 650 -125 q 715 -274 715 -199 q 698 -356 715 -317 q 651 -426 681 -395 q 586 -477 622 -458 q 514 -501 550 -497 q 501 -500 504 -502 q 497 -487 497 -498 l 497 -442 q 511 -429 497 -431 q 567 -408 540 -425 q 611 -367 593 -392 q 633 -318 629 -343 q 631 -313 634 -313 q 623 -315 628 -312 q 605 -321 615 -319 q 581 -323 594 -323 q 513 -295 538 -323 q 488 -224 488 -268 m 713 556 l 1208 556 q 1237 550 1231 556 q 1243 522 1243 545 l 1243 441 q 1238 421 1243 425 q 1215 417 1233 417 l 1128 417 q 1109 412 1113 417 q 1104 392 1104 408 l 1104 283 q 1102 251 1104 263 q 1092 227 1100 240 q 1029 144 1070 188 q 928 64 988 101 q 789 3 868 26 q 611 -21 709 -21 q 392 18 492 -21 q 218 129 292 57 q 103 300 144 201 q 63 521 63 400 q 105 736 63 637 q 221 908 147 835 q 395 1022 296 981 q 611 1063 495 1063 q 779 1036 707 1063 q 901 963 851 1009 q 922 953 915 952 q 938 972 928 955 l 964 1026 q 974 1040 968 1035 q 990 1045 979 1045 l 1058 1045 q 1077 1041 1071 1045 q 1083 1024 1083 1037 l 1083 717 q 1080 690 1083 699 q 1059 681 1076 681 l 974 681 q 946 687 951 681 q 936 710 942 693 q 882 825 917 774 q 786 905 847 876 q 633 935 726 935 q 470 883 540 935 q 362 737 401 831 q 323 521 323 644 q 356 304 323 398 q 454 157 390 210 q 611 104 518 104 q 735 126 685 104 q 814 183 784 149 q 858 253 843 217 q 866 275 863 265 q 868 303 868 286 l 868 390 q 863 412 868 408 q 840 417 857 417 l 710 417 q 685 424 690 417 q 681 451 681 431 l 681 525 q 687 551 681 546 q 713 556 694 556 "},"H":{"ha":1316,"x_min":44,"x_max":1273,"o":"m 426 881 l 426 638 q 433 607 426 613 q 467 601 440 601 l 854 601 q 886 609 881 601 q 891 644 891 617 l 891 880 q 885 905 891 899 q 860 910 880 910 l 769 910 q 744 916 749 910 q 738 942 738 922 l 738 1006 q 744 1036 738 1030 q 773 1042 750 1042 l 1238 1042 q 1265 1037 1256 1042 q 1273 1012 1273 1032 l 1273 938 q 1267 915 1273 921 q 1242 910 1261 910 l 1153 910 q 1126 904 1132 910 q 1120 876 1120 898 l 1120 161 q 1125 138 1120 144 q 1147 132 1129 132 l 1242 132 q 1267 126 1260 132 q 1273 101 1273 121 l 1273 44 q 1265 7 1273 14 q 1228 0 1256 0 l 780 0 q 747 7 755 0 q 738 40 738 14 l 738 104 q 743 127 738 122 q 765 132 749 132 l 855 132 q 884 138 877 132 q 891 166 891 144 l 891 442 q 884 470 891 464 q 857 476 878 476 l 458 476 q 431 470 437 476 q 426 443 426 464 l 426 167 q 430 140 426 147 q 454 132 434 132 l 549 132 q 572 128 566 132 q 578 106 578 124 l 578 40 q 569 7 578 13 q 533 0 559 0 l 82 0 q 51 6 58 0 q 44 38 44 13 l 44 95 q 49 124 44 117 q 74 132 53 132 l 160 132 q 189 136 181 132 q 197 161 197 140 l 197 881 q 190 905 197 899 q 164 910 183 910 l 78 910 q 50 917 56 910 q 44 947 44 924 l 44 1009 q 53 1036 44 1031 q 82 1042 63 1042 l 537 1042 q 568 1036 558 1042 q 578 1007 578 1031 l 578 940 q 573 915 578 920 q 549 910 568 910 l 454 910 q 431 905 436 910 q 426 881 426 899 "},"Ĥ":{"ha":1316,"x_min":44,"x_max":1273,"o":"m 477 1156 l 446 1189 q 438 1200 438 1197 q 444 1211 438 1203 l 575 1366 q 589 1376 582 1374 q 612 1378 597 1378 l 706 1378 q 726 1375 719 1378 q 738 1366 732 1373 l 871 1208 q 875 1200 876 1203 q 869 1191 874 1197 l 831 1153 q 821 1146 824 1146 q 809 1153 818 1147 l 674 1253 q 639 1254 656 1267 l 502 1152 q 477 1156 490 1143 m 426 881 l 426 638 q 433 607 426 613 q 467 601 440 601 l 854 601 q 886 609 881 601 q 891 644 891 617 l 891 880 q 885 905 891 899 q 860 910 880 910 l 769 910 q 744 916 749 910 q 738 942 738 922 l 738 1006 q 744 1036 738 1030 q 773 1042 750 1042 l 1238 1042 q 1265 1037 1256 1042 q 1273 1012 1273 1032 l 1273 938 q 1267 915 1273 921 q 1242 910 1261 910 l 1153 910 q 1126 904 1132 910 q 1120 876 1120 898 l 1120 161 q 1125 138 1120 144 q 1147 132 1129 132 l 1242 132 q 1267 126 1260 132 q 1273 101 1273 121 l 1273 44 q 1265 7 1273 14 q 1228 0 1256 0 l 780 0 q 747 7 755 0 q 738 40 738 14 l 738 104 q 743 127 738 122 q 765 132 749 132 l 855 132 q 884 138 877 132 q 891 166 891 144 l 891 442 q 884 470 891 464 q 857 476 878 476 l 458 476 q 431 470 437 476 q 426 443 426 464 l 426 167 q 430 140 426 147 q 454 132 434 132 l 549 132 q 572 128 566 132 q 578 106 578 124 l 578 40 q 569 7 578 13 q 533 0 559 0 l 82 0 q 51 6 58 0 q 44 38 44 13 l 44 95 q 49 124 44 117 q 74 132 53 132 l 160 132 q 189 136 181 132 q 197 161 197 140 l 197 881 q 190 905 197 899 q 164 910 183 910 l 78 910 q 50 917 56 910 q 44 947 44 924 l 44 1009 q 53 1036 44 1031 q 82 1042 63 1042 l 537 1042 q 568 1036 558 1042 q 578 1007 578 1031 l 578 940 q 573 915 578 920 q 549 910 568 910 l 454 910 q 431 905 436 910 q 426 881 426 899 "},"I":{"ha":677,"x_min":58,"x_max":620,"o":"m 447 886 l 447 156 q 453 131 447 136 q 478 125 459 125 l 596 125 q 615 120 609 125 q 620 102 620 116 l 620 28 q 614 5 620 10 q 589 0 608 0 l 89 0 q 64 6 69 0 q 58 31 58 12 l 58 99 q 65 120 58 116 q 92 125 72 125 l 177 125 q 207 131 197 125 q 217 159 217 136 l 217 886 q 214 910 217 904 q 191 917 210 917 l 88 917 q 64 922 70 917 q 58 944 58 927 l 58 1013 q 62 1037 58 1033 q 85 1042 67 1042 l 589 1042 q 615 1036 609 1042 q 620 1010 620 1031 l 620 950 q 613 923 620 928 q 587 917 606 917 l 477 917 q 452 911 457 917 q 447 886 447 906 "},"Ì":{"ha":677,"x_min":58,"x_max":620,"o":"m 338 1142 l 139 1251 q 98 1307 107 1269 q 117 1382 88 1344 q 161 1412 133 1404 q 217 1414 189 1419 q 260 1390 244 1408 l 409 1224 q 410 1199 422 1211 l 358 1146 q 349 1138 353 1140 q 338 1142 345 1137 m 447 886 l 447 156 q 453 131 447 136 q 478 125 459 125 l 596 125 q 615 120 609 125 q 620 102 620 116 l 620 28 q 614 5 620 10 q 589 0 608 0 l 89 0 q 64 6 69 0 q 58 31 58 12 l 58 99 q 65 120 58 116 q 92 125 72 125 l 177 125 q 207 131 197 125 q 217 159 217 136 l 217 886 q 214 910 217 904 q 191 917 210 917 l 88 917 q 64 922 70 917 q 58 944 58 927 l 58 1013 q 62 1037 58 1033 q 85 1042 67 1042 l 589 1042 q 615 1036 609 1042 q 620 1010 620 1031 l 620 950 q 613 923 620 928 q 587 917 606 917 l 477 917 q 452 911 457 917 q 447 886 447 906 "},"Í":{"ha":677,"x_min":58,"x_max":620,"o":"m 306 1147 l 255 1199 q 255 1223 243 1212 l 404 1390 q 449 1414 421 1408 q 505 1412 476 1419 q 548 1382 533 1404 q 567 1307 576 1344 q 526 1251 558 1269 l 330 1144 q 317 1139 322 1138 q 306 1147 313 1140 m 447 886 l 447 156 q 453 131 447 136 q 478 125 459 125 l 596 125 q 615 120 609 125 q 620 102 620 116 l 620 28 q 614 5 620 10 q 589 0 608 0 l 89 0 q 64 6 69 0 q 58 31 58 12 l 58 99 q 65 120 58 116 q 92 125 72 125 l 177 125 q 207 131 197 125 q 217 159 217 136 l 217 886 q 214 910 217 904 q 191 917 210 917 l 88 917 q 64 922 70 917 q 58 944 58 927 l 58 1013 q 62 1037 58 1033 q 85 1042 67 1042 l 589 1042 q 615 1036 609 1042 q 620 1010 620 1031 l 620 950 q 613 923 620 928 q 587 917 606 917 l 477 917 q 452 911 457 917 q 447 886 447 906 "},"Î":{"ha":677,"x_min":58,"x_max":620,"o":"m 153 1156 l 122 1189 q 114 1200 114 1197 q 120 1211 113 1203 l 251 1366 q 265 1376 258 1374 q 288 1378 272 1378 l 381 1378 q 401 1375 395 1378 q 413 1366 408 1373 l 547 1208 q 551 1200 552 1203 q 544 1191 550 1197 l 507 1153 q 497 1146 499 1146 q 485 1153 494 1147 l 349 1253 q 315 1254 331 1267 l 178 1152 q 153 1156 166 1143 m 447 886 l 447 156 q 453 131 447 136 q 478 125 459 125 l 596 125 q 615 120 609 125 q 620 102 620 116 l 620 28 q 614 5 620 10 q 589 0 608 0 l 89 0 q 64 6 69 0 q 58 31 58 12 l 58 99 q 65 120 58 116 q 92 125 72 125 l 177 125 q 207 131 197 125 q 217 159 217 136 l 217 886 q 214 910 217 904 q 191 917 210 917 l 88 917 q 64 922 70 917 q 58 944 58 927 l 58 1013 q 62 1037 58 1033 q 85 1042 67 1042 l 589 1042 q 615 1036 609 1042 q 620 1010 620 1031 l 620 950 q 613 923 620 928 q 587 917 606 917 l 477 917 q 452 911 457 917 q 447 886 447 906 "},"Ï":{"ha":677,"x_min":58,"x_max":620,"o":"m 483 1174 q 413 1203 442 1174 q 383 1274 383 1233 q 413 1345 383 1315 q 483 1374 442 1374 q 554 1345 525 1374 q 583 1274 583 1315 q 554 1203 583 1233 q 483 1174 525 1174 m 178 1174 q 107 1203 137 1174 q 78 1274 78 1233 q 107 1345 78 1315 q 178 1374 137 1374 q 249 1345 219 1374 q 278 1274 278 1315 q 249 1203 278 1233 q 178 1174 219 1174 m 447 886 l 447 156 q 453 131 447 136 q 478 125 459 125 l 596 125 q 615 120 609 125 q 620 102 620 116 l 620 28 q 614 5 620 10 q 589 0 608 0 l 89 0 q 64 6 69 0 q 58 31 58 12 l 58 99 q 65 120 58 116 q 92 125 72 125 l 177 125 q 207 131 197 125 q 217 159 217 136 l 217 886 q 214 910 217 904 q 191 917 210 917 l 88 917 q 64 922 70 917 q 58 944 58 927 l 58 1013 q 62 1037 58 1033 q 85 1042 67 1042 l 589 1042 q 615 1036 609 1042 q 620 1010 620 1031 l 620 950 q 613 923 620 928 q 587 917 606 917 l 477 917 q 452 911 457 917 q 447 886 447 906 "},"Ĩ":{"ha":677,"x_min":58,"x_max":620,"o":"m 453 1149 q 380 1166 409 1149 q 326 1201 350 1182 q 282 1232 303 1218 q 235 1245 261 1245 q 190 1230 205 1245 q 172 1190 176 1215 q 154 1181 167 1181 l 101 1181 q 87 1186 89 1181 q 86 1201 85 1191 q 112 1285 90 1246 q 169 1350 134 1325 q 247 1374 203 1374 q 318 1358 290 1374 q 368 1323 345 1342 q 411 1292 389 1306 q 461 1278 433 1278 q 517 1328 508 1278 q 523 1339 520 1335 q 535 1343 525 1343 l 590 1343 q 602 1340 600 1343 q 603 1328 604 1336 q 584 1236 602 1276 q 534 1173 567 1196 q 453 1149 501 1149 m 447 886 l 447 156 q 453 131 447 136 q 478 125 459 125 l 596 125 q 615 120 609 125 q 620 102 620 116 l 620 28 q 614 5 620 10 q 589 0 608 0 l 89 0 q 64 6 69 0 q 58 31 58 12 l 58 99 q 65 120 58 116 q 92 125 72 125 l 177 125 q 207 131 197 125 q 217 159 217 136 l 217 886 q 214 910 217 904 q 191 917 210 917 l 88 917 q 64 922 70 917 q 58 944 58 927 l 58 1013 q 62 1037 58 1033 q 85 1042 67 1042 l 589 1042 q 615 1036 609 1042 q 620 1010 620 1031 l 620 950 q 613 923 620 928 q 587 917 606 917 l 477 917 q 452 911 457 917 q 447 886 447 906 "},"Ī":{"ha":677,"x_min":58,"x_max":620,"o":"m 165 1172 l 165 1229 q 167 1243 165 1239 q 178 1248 169 1248 l 474 1248 q 493 1244 488 1248 q 498 1226 498 1240 l 498 1170 q 496 1154 498 1159 q 483 1149 494 1149 l 189 1149 q 170 1153 176 1149 q 165 1172 165 1157 m 447 886 l 447 156 q 453 131 447 136 q 478 125 459 125 l 596 125 q 615 120 609 125 q 620 102 620 116 l 620 28 q 614 5 620 10 q 589 0 608 0 l 89 0 q 64 6 69 0 q 58 31 58 12 l 58 99 q 65 120 58 116 q 92 125 72 125 l 177 125 q 207 131 197 125 q 217 159 217 136 l 217 886 q 214 910 217 904 q 191 917 210 917 l 88 917 q 64 922 70 917 q 58 944 58 927 l 58 1013 q 62 1037 58 1033 q 85 1042 67 1042 l 589 1042 q 615 1036 609 1042 q 620 1010 620 1031 l 620 950 q 613 923 620 928 q 587 917 606 917 l 477 917 q 452 911 457 917 q 447 886 447 906 "},"Ĭ":{"ha":677,"x_min":58,"x_max":620,"o":"m 331 1146 q 195 1200 234 1146 q 156 1347 157 1253 q 172 1360 156 1360 l 219 1360 q 232 1349 231 1360 q 258 1295 235 1315 q 331 1274 281 1274 q 402 1292 379 1274 q 431 1340 425 1310 q 435 1355 434 1349 q 449 1360 436 1360 l 495 1360 q 508 1357 506 1360 q 509 1343 510 1353 q 467 1199 506 1252 q 331 1146 427 1146 m 447 886 l 447 156 q 453 131 447 136 q 478 125 459 125 l 596 125 q 615 120 609 125 q 620 102 620 116 l 620 28 q 614 5 620 10 q 589 0 608 0 l 89 0 q 64 6 69 0 q 58 31 58 12 l 58 99 q 65 120 58 116 q 92 125 72 125 l 177 125 q 207 131 197 125 q 217 159 217 136 l 217 886 q 214 910 217 904 q 191 917 210 917 l 88 917 q 64 922 70 917 q 58 944 58 927 l 58 1013 q 62 1037 58 1033 q 85 1042 67 1042 l 589 1042 q 615 1036 609 1042 q 620 1010 620 1031 l 620 950 q 613 923 620 928 q 587 917 606 917 l 477 917 q 452 911 457 917 q 447 886 447 906 "},"Į":{"ha":677,"x_min":58,"x_max":620,"o":"m 299 -308 q 180 -280 228 -308 q 132 -192 132 -252 q 153 -123 132 -155 q 205 -65 174 -92 q 271 -15 237 -37 q 333 26 306 8 q 359 31 345 34 q 377 23 373 28 q 392 6 390 13 q 385 -11 394 -1 q 348 -51 369 -29 q 311 -97 327 -72 q 296 -151 296 -122 q 312 -193 296 -177 q 358 -210 328 -210 q 401 -199 384 -210 q 428 -174 418 -188 q 449 -169 439 -161 l 476 -190 q 483 -199 483 -195 q 478 -210 483 -202 q 416 -278 458 -248 q 299 -308 374 -308 m 447 886 l 447 156 q 453 131 447 136 q 478 125 459 125 l 596 125 q 615 120 609 125 q 620 102 620 116 l 620 28 q 614 5 620 10 q 589 0 608 0 l 89 0 q 64 6 69 0 q 58 31 58 12 l 58 99 q 65 120 58 116 q 92 125 72 125 l 177 125 q 207 131 197 125 q 217 159 217 136 l 217 886 q 214 910 217 904 q 191 917 210 917 l 88 917 q 64 922 70 917 q 58 944 58 927 l 58 1013 q 62 1037 58 1033 q 85 1042 67 1042 l 589 1042 q 615 1036 609 1042 q 620 1010 620 1031 l 620 950 q 613 923 620 928 q 587 917 606 917 l 477 917 q 452 911 457 917 q 447 886 447 906 "},"İ":{"ha":677,"x_min":58,"x_max":620,"o":"m 334 1201 q 258 1233 290 1201 q 226 1309 226 1265 q 258 1386 226 1354 q 334 1418 290 1418 q 411 1386 379 1418 q 442 1309 442 1354 q 411 1233 442 1265 q 334 1201 379 1201 m 447 886 l 447 156 q 453 131 447 136 q 478 125 459 125 l 596 125 q 615 120 609 125 q 620 102 620 116 l 620 28 q 614 5 620 10 q 589 0 608 0 l 89 0 q 64 6 69 0 q 58 31 58 12 l 58 99 q 65 120 58 116 q 92 125 72 125 l 177 125 q 207 131 197 125 q 217 159 217 136 l 217 886 q 214 910 217 904 q 191 917 210 917 l 88 917 q 64 922 70 917 q 58 944 58 927 l 58 1013 q 62 1037 58 1033 q 85 1042 67 1042 l 589 1042 q 615 1036 609 1042 q 620 1010 620 1031 l 620 950 q 613 923 620 928 q 587 917 606 917 l 477 917 q 452 911 457 917 q 447 886 447 906 "},"J":{"ha":906,"x_min":7,"x_max":883,"o":"m 7 236 q 52 373 7 322 q 165 424 98 424 q 260 391 224 424 q 296 307 296 359 q 284 245 296 267 q 256 213 272 224 q 227 191 240 201 q 215 163 215 181 q 224 135 215 151 q 257 109 233 120 q 328 97 281 97 q 415 120 377 97 q 474 195 453 143 q 494 333 494 247 l 494 869 q 488 903 494 896 q 454 910 481 910 l 322 910 q 293 915 300 910 q 286 944 286 921 l 286 1008 q 292 1036 286 1031 q 321 1042 299 1042 l 852 1042 q 876 1037 869 1042 q 883 1015 883 1033 l 883 936 q 878 914 883 919 q 855 910 873 910 l 746 910 q 721 903 726 910 q 717 875 717 896 l 717 375 q 669 165 717 253 q 534 28 622 76 q 328 -21 447 -21 q 154 17 226 -21 q 45 115 83 56 q 7 236 7 174 "},"Ĵ":{"ha":906,"x_min":7,"x_max":883,"o":"m 367 1156 l 336 1189 q 328 1200 328 1197 q 335 1211 328 1203 l 465 1366 q 480 1376 472 1374 q 502 1378 487 1378 l 596 1378 q 616 1375 610 1378 q 628 1366 622 1373 l 761 1208 q 766 1200 767 1203 q 759 1191 765 1197 l 722 1153 q 711 1146 714 1146 q 699 1153 708 1147 l 564 1253 q 529 1254 546 1267 l 392 1152 q 367 1156 381 1143 m 7 236 q 52 373 7 322 q 165 424 98 424 q 260 391 224 424 q 296 307 296 359 q 284 245 296 267 q 256 213 272 224 q 227 191 240 201 q 215 163 215 181 q 224 135 215 151 q 257 109 233 120 q 328 97 281 97 q 415 120 377 97 q 474 195 453 143 q 494 333 494 247 l 494 869 q 488 903 494 896 q 454 910 481 910 l 322 910 q 293 915 300 910 q 286 944 286 921 l 286 1008 q 292 1036 286 1031 q 321 1042 299 1042 l 852 1042 q 876 1037 869 1042 q 883 1015 883 1033 l 883 936 q 878 914 883 919 q 855 910 873 910 l 746 910 q 721 903 726 910 q 717 875 717 896 l 717 375 q 669 165 717 253 q 534 28 622 76 q 328 -21 447 -21 q 154 17 226 -21 q 45 115 83 56 q 7 236 7 174 "},"K":{"ha":1280,"x_min":44,"x_max":1294,"o":"m 44 32 l 44 105 q 48 127 44 122 q 69 132 53 132 l 164 132 q 191 139 186 132 q 197 167 197 146 l 197 886 q 191 907 197 903 q 169 910 186 910 l 69 910 q 47 915 51 910 q 44 938 44 919 l 44 1015 q 50 1037 44 1033 q 72 1042 56 1042 l 565 1042 q 586 1037 580 1042 q 592 1016 592 1033 l 592 945 q 586 916 592 922 q 558 910 580 910 l 459 910 q 431 903 437 910 q 426 873 426 897 l 426 547 q 433 509 426 513 q 457 522 440 506 l 843 887 q 854 904 856 899 q 828 910 853 910 l 760 910 q 731 915 737 910 q 724 943 724 921 l 724 1015 q 730 1037 724 1032 q 751 1042 735 1042 l 1187 1042 q 1207 1034 1203 1042 q 1210 1010 1210 1027 l 1210 945 q 1206 917 1210 924 q 1181 910 1201 910 l 1084 910 q 1045 903 1056 910 q 1021 884 1035 897 l 787 662 q 767 640 771 647 q 777 615 764 633 l 1119 160 q 1141 138 1131 144 q 1180 132 1151 132 l 1266 132 q 1288 127 1283 132 q 1294 105 1294 122 l 1294 26 q 1288 4 1294 8 q 1264 0 1282 0 l 765 0 q 743 6 747 0 q 738 28 738 11 l 738 101 q 745 126 738 121 q 772 132 752 132 l 840 132 q 866 141 866 132 q 856 164 866 151 l 628 480 q 608 498 615 499 q 585 483 601 497 l 447 351 q 430 332 434 340 q 426 299 426 324 l 426 160 q 431 136 426 141 q 456 132 437 132 l 559 132 q 581 126 576 132 q 585 103 585 121 l 585 33 q 579 6 585 12 q 551 0 572 0 l 72 0 q 48 6 52 0 q 44 32 44 13 "},"Ķ":{"ha":1280,"x_min":44,"x_max":1294,"o":"m 546 -224 q 579 -152 546 -180 q 656 -125 613 -125 q 740 -162 708 -125 q 773 -274 773 -199 q 756 -356 773 -317 q 709 -426 738 -395 q 643 -477 679 -458 q 572 -501 608 -497 q 558 -500 562 -502 q 555 -487 555 -498 l 555 -442 q 569 -429 555 -431 q 624 -408 598 -425 q 669 -367 651 -392 q 691 -318 687 -343 q 689 -313 692 -313 q 681 -315 685 -312 q 662 -321 673 -319 q 638 -323 651 -323 q 571 -295 596 -323 q 546 -224 546 -268 m 44 32 l 44 105 q 48 127 44 122 q 69 132 53 132 l 164 132 q 191 139 186 132 q 197 167 197 146 l 197 886 q 191 907 197 903 q 169 910 186 910 l 69 910 q 47 915 51 910 q 44 938 44 919 l 44 1015 q 50 1037 44 1033 q 72 1042 56 1042 l 565 1042 q 586 1037 580 1042 q 592 1016 592 1033 l 592 945 q 586 916 592 922 q 558 910 580 910 l 459 910 q 431 903 437 910 q 426 873 426 897 l 426 547 q 433 509 426 513 q 457 522 440 506 l 843 887 q 854 904 856 899 q 828 910 853 910 l 760 910 q 731 915 737 910 q 724 943 724 921 l 724 1015 q 730 1037 724 1032 q 751 1042 735 1042 l 1187 1042 q 1207 1034 1203 1042 q 1210 1010 1210 1027 l 1210 945 q 1206 917 1210 924 q 1181 910 1201 910 l 1084 910 q 1045 903 1056 910 q 1021 884 1035 897 l 787 662 q 767 640 771 647 q 777 615 764 633 l 1119 160 q 1141 138 1131 144 q 1180 132 1151 132 l 1266 132 q 1288 127 1283 132 q 1294 105 1294 122 l 1294 26 q 1288 4 1294 8 q 1264 0 1282 0 l 765 0 q 743 6 747 0 q 738 28 738 11 l 738 101 q 745 126 738 121 q 772 132 752 132 l 840 132 q 866 141 866 132 q 856 164 866 151 l 628 480 q 608 498 615 499 q 585 483 601 497 l 447 351 q 430 332 434 340 q 426 299 426 324 l 426 160 q 431 136 426 141 q 456 132 437 132 l 559 132 q 581 126 576 132 q 585 103 585 121 l 585 33 q 579 6 585 12 q 551 0 572 0 l 72 0 q 48 6 52 0 q 44 32 44 13 "},"L":{"ha":1047,"x_min":44,"x_max":1002,"o":"m 167 910 l 67 910 q 48 915 52 910 q 44 935 44 919 l 44 1013 q 48 1036 44 1031 q 72 1042 53 1042 l 561 1042 q 586 1037 580 1042 q 592 1013 592 1033 l 592 938 q 586 915 592 919 q 562 910 579 910 l 457 910 q 432 906 439 910 q 426 883 426 901 l 426 163 q 432 138 426 143 q 457 132 438 132 l 641 132 q 779 157 726 132 q 856 240 831 183 q 883 392 881 297 q 887 412 884 408 q 906 417 890 417 l 975 417 q 996 413 990 417 q 1002 394 1002 410 l 1002 34 q 998 7 1002 13 q 973 0 994 0 l 74 0 q 50 5 56 0 q 44 29 44 10 l 44 108 q 47 127 44 122 q 63 132 50 132 l 162 132 q 190 138 183 132 q 197 165 197 143 l 197 879 q 191 904 197 899 q 167 910 186 910 "},"Ĺ":{"ha":1047,"x_min":44,"x_max":1002,"o":"m 262 1147 l 211 1199 q 211 1223 199 1212 l 360 1390 q 405 1414 377 1408 q 461 1412 433 1419 q 504 1382 489 1404 q 524 1307 533 1344 q 482 1251 515 1269 l 286 1144 q 273 1139 278 1138 q 262 1147 269 1140 m 167 910 l 67 910 q 48 915 52 910 q 44 935 44 919 l 44 1013 q 48 1036 44 1031 q 72 1042 53 1042 l 561 1042 q 586 1037 580 1042 q 592 1013 592 1033 l 592 938 q 586 915 592 919 q 562 910 579 910 l 457 910 q 432 906 439 910 q 426 883 426 901 l 426 163 q 432 138 426 143 q 457 132 438 132 l 641 132 q 779 157 726 132 q 856 240 831 183 q 883 392 881 297 q 887 412 884 408 q 906 417 890 417 l 975 417 q 996 413 990 417 q 1002 394 1002 410 l 1002 34 q 998 7 1002 13 q 973 0 994 0 l 74 0 q 50 5 56 0 q 44 29 44 10 l 44 108 q 47 127 44 122 q 63 132 50 132 l 162 132 q 190 138 183 132 q 197 165 197 143 l 197 879 q 191 904 197 899 q 167 910 186 910 "},"Ļ":{"ha":1047,"x_min":44,"x_max":1002,"o":"m 401 -224 q 434 -152 401 -180 q 511 -125 467 -125 q 595 -162 563 -125 q 628 -274 628 -199 q 610 -356 628 -317 q 564 -426 593 -395 q 498 -477 534 -458 q 426 -501 463 -497 q 413 -500 417 -502 q 410 -487 410 -498 l 410 -442 q 424 -429 410 -431 q 479 -408 453 -425 q 524 -367 506 -392 q 546 -318 542 -343 q 543 -313 547 -313 q 535 -315 540 -312 q 517 -321 528 -319 q 493 -323 506 -323 q 426 -295 451 -323 q 401 -224 401 -268 m 167 910 l 67 910 q 48 915 52 910 q 44 935 44 919 l 44 1013 q 48 1036 44 1031 q 72 1042 53 1042 l 561 1042 q 586 1037 580 1042 q 592 1013 592 1033 l 592 938 q 586 915 592 919 q 562 910 579 910 l 457 910 q 432 906 439 910 q 426 883 426 901 l 426 163 q 432 138 426 143 q 457 132 438 132 l 641 132 q 779 157 726 132 q 856 240 831 183 q 883 392 881 297 q 887 412 884 408 q 906 417 890 417 l 975 417 q 996 413 990 417 q 1002 394 1002 410 l 1002 34 q 998 7 1002 13 q 973 0 994 0 l 74 0 q 50 5 56 0 q 44 29 44 10 l 44 108 q 47 127 44 122 q 63 132 50 132 l 162 132 q 190 138 183 132 q 197 165 197 143 l 197 879 q 191 904 197 899 q 167 910 186 910 "},"Ľ":{"ha":1090,"x_min":44,"x_max":1013,"o":"m 728 1008 q 748 1073 728 1045 q 798 1117 767 1101 q 867 1132 830 1132 q 972 1086 931 1132 q 1013 947 1013 1041 q 991 843 1013 892 q 932 756 969 794 q 851 692 895 717 q 760 663 806 668 q 744 664 749 661 q 740 679 740 667 l 740 735 q 744 749 740 746 q 757 753 749 752 q 827 778 794 757 q 882 830 860 799 q 910 892 905 860 q 907 898 911 898 q 897 895 903 898 q 874 887 888 890 q 844 885 861 885 q 760 919 792 885 q 728 1008 728 953 m 167 910 l 67 910 q 48 915 52 910 q 44 935 44 919 l 44 1013 q 48 1036 44 1031 q 72 1042 53 1042 l 561 1042 q 586 1037 580 1042 q 592 1013 592 1033 l 592 938 q 586 915 592 919 q 562 910 579 910 l 457 910 q 432 906 439 910 q 426 883 426 901 l 426 163 q 432 138 426 143 q 457 132 438 132 l 641 132 q 779 157 726 132 q 856 240 831 183 q 883 392 881 297 q 887 412 884 408 q 906 417 890 417 l 975 417 q 996 413 990 417 q 1002 394 1002 410 l 1002 34 q 998 7 1002 13 q 973 0 994 0 l 74 0 q 50 5 56 0 q 44 29 44 10 l 44 108 q 47 127 44 122 q 63 132 50 132 l 162 132 q 190 138 183 132 q 197 165 197 143 l 197 879 q 191 904 197 899 q 167 910 186 910 "},"M":{"ha":1556,"x_min":42,"x_max":1514,"o":"m 208 910 l 115 910 q 92 914 97 910 q 87 937 87 917 l 87 1019 q 95 1040 87 1038 q 121 1042 103 1042 l 517 1042 q 547 1037 539 1042 q 558 1022 555 1032 q 565 997 560 1013 l 763 395 q 776 346 772 368 q 789 324 781 324 q 802 338 797 324 q 817 377 808 351 l 1038 1016 q 1048 1037 1044 1033 q 1076 1042 1053 1042 l 1439 1042 q 1468 1039 1460 1042 q 1476 1015 1476 1037 l 1476 945 q 1472 915 1476 921 q 1443 910 1467 910 l 1357 910 q 1332 903 1336 910 q 1328 876 1328 896 l 1356 161 q 1360 138 1356 143 q 1382 132 1363 132 l 1488 132 q 1510 128 1507 132 q 1514 105 1514 124 l 1514 34 q 1510 7 1514 14 q 1485 0 1506 0 l 1019 0 q 993 6 999 0 q 986 32 986 11 l 986 99 q 992 126 986 121 q 1019 132 998 132 l 1110 132 q 1136 139 1130 132 q 1142 165 1142 146 l 1125 674 q 1126 743 1124 708 q 1128 803 1128 778 q 1119 828 1128 828 q 1106 813 1112 828 q 1093 776 1099 799 q 1078 728 1087 753 l 837 13 q 823 -11 831 -4 q 792 -17 816 -17 l 713 -17 q 677 -9 685 -17 q 663 19 669 -1 l 419 735 q 406 783 412 755 q 394 832 400 810 q 378 853 388 853 q 370 838 372 853 q 367 782 369 822 l 341 179 q 346 142 340 153 q 381 132 351 132 l 469 132 q 494 127 489 132 q 500 101 500 122 l 500 32 q 492 5 500 10 q 462 0 483 0 l 75 0 q 48 6 53 0 q 42 33 42 11 l 42 106 q 46 127 42 122 q 67 132 51 132 l 169 132 q 198 142 194 132 q 203 174 202 153 l 239 884 q 234 906 240 902 q 208 910 228 910 "},"N":{"ha":1271,"x_min":45,"x_max":1247,"o":"m 154 910 l 73 910 q 51 915 56 910 q 45 935 45 919 l 45 1004 q 51 1035 45 1028 q 81 1042 57 1042 l 350 1042 q 403 1035 389 1042 q 434 1008 417 1028 l 928 413 q 952 398 943 394 q 962 446 962 402 l 962 880 q 957 905 962 899 q 933 910 951 910 l 849 910 q 819 915 830 910 q 809 940 809 919 l 809 1004 q 816 1034 809 1027 q 847 1042 824 1042 l 1217 1042 q 1238 1038 1230 1042 q 1247 1019 1247 1035 l 1247 947 q 1241 916 1247 923 q 1210 910 1235 910 l 1133 910 q 1107 903 1113 910 q 1101 875 1101 896 l 1101 13 q 1096 -10 1101 -3 q 1075 -17 1092 -17 l 1023 -17 q 989 -11 999 -17 q 969 8 979 -4 l 365 746 q 339 760 349 766 q 330 704 330 754 l 330 166 q 335 138 330 144 q 363 132 341 132 l 466 132 q 485 126 481 132 q 490 105 490 120 l 490 31 q 480 5 490 9 q 451 0 471 0 l 83 0 q 52 6 59 0 q 45 35 45 11 l 45 101 q 53 128 45 124 q 83 132 62 132 l 154 132 q 185 139 178 132 q 191 169 191 145 l 191 875 q 185 905 191 901 q 154 910 179 910 "},"Ñ":{"ha":1271,"x_min":45,"x_max":1247,"o":"m 751 1149 q 677 1166 707 1149 q 624 1201 648 1182 q 580 1232 601 1218 q 533 1245 559 1245 q 488 1230 503 1245 q 469 1190 474 1215 q 452 1181 465 1181 l 399 1181 q 385 1186 387 1181 q 384 1201 383 1191 q 410 1285 388 1246 q 467 1350 432 1325 q 544 1374 501 1374 q 616 1358 588 1374 q 666 1323 643 1342 q 709 1292 687 1306 q 759 1278 731 1278 q 815 1328 806 1278 q 820 1339 818 1335 q 833 1343 823 1343 l 888 1343 q 900 1340 898 1343 q 901 1328 902 1336 q 882 1236 900 1276 q 832 1173 865 1196 q 751 1149 799 1149 m 154 910 l 73 910 q 51 915 56 910 q 45 935 45 919 l 45 1004 q 51 1035 45 1028 q 81 1042 57 1042 l 350 1042 q 403 1035 389 1042 q 434 1008 417 1028 l 928 413 q 952 398 943 394 q 962 446 962 402 l 962 880 q 957 905 962 899 q 933 910 951 910 l 849 910 q 819 915 830 910 q 809 940 809 919 l 809 1004 q 816 1034 809 1027 q 847 1042 824 1042 l 1217 1042 q 1238 1038 1230 1042 q 1247 1019 1247 1035 l 1247 947 q 1241 916 1247 923 q 1210 910 1235 910 l 1133 910 q 1107 903 1113 910 q 1101 875 1101 896 l 1101 13 q 1096 -10 1101 -3 q 1075 -17 1092 -17 l 1023 -17 q 989 -11 999 -17 q 969 8 979 -4 l 365 746 q 339 760 349 766 q 330 704 330 754 l 330 166 q 335 138 330 144 q 363 132 341 132 l 466 132 q 485 126 481 132 q 490 105 490 120 l 490 31 q 480 5 490 9 q 451 0 471 0 l 83 0 q 52 6 59 0 q 45 35 45 11 l 45 101 q 53 128 45 124 q 83 132 62 132 l 154 132 q 185 139 178 132 q 191 169 191 145 l 191 875 q 185 905 191 901 q 154 910 179 910 "},"Ń":{"ha":1271,"x_min":45,"x_max":1247,"o":"m 614 1147 l 563 1199 q 563 1223 551 1212 l 713 1390 q 757 1414 729 1408 q 813 1412 785 1419 q 856 1382 841 1404 q 876 1307 885 1344 q 834 1251 867 1269 l 638 1144 q 625 1139 630 1138 q 614 1147 621 1140 m 154 910 l 73 910 q 51 915 56 910 q 45 935 45 919 l 45 1004 q 51 1035 45 1028 q 81 1042 57 1042 l 350 1042 q 403 1035 389 1042 q 434 1008 417 1028 l 928 413 q 952 398 943 394 q 962 446 962 402 l 962 880 q 957 905 962 899 q 933 910 951 910 l 849 910 q 819 915 830 910 q 809 940 809 919 l 809 1004 q 816 1034 809 1027 q 847 1042 824 1042 l 1217 1042 q 1238 1038 1230 1042 q 1247 1019 1247 1035 l 1247 947 q 1241 916 1247 923 q 1210 910 1235 910 l 1133 910 q 1107 903 1113 910 q 1101 875 1101 896 l 1101 13 q 1096 -10 1101 -3 q 1075 -17 1092 -17 l 1023 -17 q 989 -11 999 -17 q 969 8 979 -4 l 365 746 q 339 760 349 766 q 330 704 330 754 l 330 166 q 335 138 330 144 q 363 132 341 132 l 466 132 q 485 126 481 132 q 490 105 490 120 l 490 31 q 480 5 490 9 q 451 0 471 0 l 83 0 q 52 6 59 0 q 45 35 45 11 l 45 101 q 53 128 45 124 q 83 132 62 132 l 154 132 q 185 139 178 132 q 191 169 191 145 l 191 875 q 185 905 191 901 q 154 910 179 910 "},"Ņ":{"ha":1271,"x_min":45,"x_max":1247,"o":"m 491 -224 q 524 -152 491 -180 q 601 -125 558 -125 q 685 -162 653 -125 q 718 -274 718 -199 q 701 -356 718 -317 q 654 -426 683 -395 q 589 -477 624 -458 q 517 -501 553 -497 q 503 -500 507 -502 q 500 -487 500 -498 l 500 -442 q 514 -429 500 -431 q 569 -408 543 -425 q 614 -367 596 -392 q 636 -318 632 -343 q 634 -313 637 -313 q 626 -315 631 -312 q 607 -321 618 -319 q 583 -323 597 -323 q 516 -295 541 -323 q 491 -224 491 -268 m 154 910 l 73 910 q 51 915 56 910 q 45 935 45 919 l 45 1004 q 51 1035 45 1028 q 81 1042 57 1042 l 350 1042 q 403 1035 389 1042 q 434 1008 417 1028 l 928 413 q 952 398 943 394 q 962 446 962 402 l 962 880 q 957 905 962 899 q 933 910 951 910 l 849 910 q 819 915 830 910 q 809 940 809 919 l 809 1004 q 816 1034 809 1027 q 847 1042 824 1042 l 1217 1042 q 1238 1038 1230 1042 q 1247 1019 1247 1035 l 1247 947 q 1241 916 1247 923 q 1210 910 1235 910 l 1133 910 q 1107 903 1113 910 q 1101 875 1101 896 l 1101 13 q 1096 -10 1101 -3 q 1075 -17 1092 -17 l 1023 -17 q 989 -11 999 -17 q 969 8 979 -4 l 365 746 q 339 760 349 766 q 330 704 330 754 l 330 166 q 335 138 330 144 q 363 132 341 132 l 466 132 q 485 126 481 132 q 490 105 490 120 l 490 31 q 480 5 490 9 q 451 0 471 0 l 83 0 q 52 6 59 0 q 45 35 45 11 l 45 101 q 53 128 45 124 q 83 132 62 132 l 154 132 q 185 139 178 132 q 191 169 191 145 l 191 875 q 185 905 191 901 q 154 910 179 910 "},"Ň":{"ha":1271,"x_min":45,"x_max":1247,"o":"m 553 1173 l 430 1322 q 423 1334 423 1329 q 431 1346 424 1339 l 463 1376 q 476 1384 472 1385 q 491 1376 481 1383 l 613 1290 q 640 1280 628 1280 q 667 1290 652 1279 l 793 1381 q 807 1386 802 1388 q 821 1376 813 1384 l 848 1349 q 858 1336 857 1340 q 851 1322 859 1331 l 724 1171 q 711 1159 717 1163 q 688 1156 704 1156 l 597 1156 q 570 1160 579 1156 q 553 1173 561 1165 m 154 910 l 73 910 q 51 915 56 910 q 45 935 45 919 l 45 1004 q 51 1035 45 1028 q 81 1042 57 1042 l 350 1042 q 403 1035 389 1042 q 434 1008 417 1028 l 928 413 q 952 398 943 394 q 962 446 962 402 l 962 880 q 957 905 962 899 q 933 910 951 910 l 849 910 q 819 915 830 910 q 809 940 809 919 l 809 1004 q 816 1034 809 1027 q 847 1042 824 1042 l 1217 1042 q 1238 1038 1230 1042 q 1247 1019 1247 1035 l 1247 947 q 1241 916 1247 923 q 1210 910 1235 910 l 1133 910 q 1107 903 1113 910 q 1101 875 1101 896 l 1101 13 q 1096 -10 1101 -3 q 1075 -17 1092 -17 l 1023 -17 q 989 -11 999 -17 q 969 8 979 -4 l 365 746 q 339 760 349 766 q 330 704 330 754 l 330 166 q 335 138 330 144 q 363 132 341 132 l 466 132 q 485 126 481 132 q 490 105 490 120 l 490 31 q 480 5 490 9 q 451 0 471 0 l 83 0 q 52 6 59 0 q 45 35 45 11 l 45 101 q 53 128 45 124 q 83 132 62 132 l 154 132 q 185 139 178 132 q 191 169 191 145 l 191 875 q 185 905 191 901 q 154 910 179 910 "},"O":{"ha":1208,"x_min":63,"x_max":1146,"o":"m 63 521 q 100 736 63 638 q 207 908 137 835 q 377 1022 277 981 q 604 1063 478 1063 q 831 1022 731 1063 q 1002 908 932 981 q 1109 736 1072 835 q 1146 521 1146 638 q 1107 306 1146 405 q 997 134 1069 208 q 825 20 925 60 q 604 -21 726 -21 q 377 20 478 -21 q 207 134 277 60 q 100 306 137 208 q 63 521 63 405 m 323 521 q 339 356 323 432 q 389 223 355 279 q 476 135 422 167 q 604 104 530 104 q 739 135 685 104 q 825 223 793 167 q 872 356 858 279 q 885 521 885 432 q 869 687 885 611 q 820 819 853 763 q 733 906 786 875 q 604 938 680 938 q 476 906 530 938 q 389 819 422 875 q 339 687 355 763 q 323 521 323 611 "},"Ò":{"ha":1208,"x_min":63,"x_max":1146,"o":"m 608 1142 l 409 1251 q 368 1307 377 1269 q 387 1382 358 1344 q 431 1412 403 1404 q 487 1414 459 1419 q 531 1390 515 1408 l 679 1224 q 680 1199 692 1211 l 628 1146 q 619 1138 623 1140 q 608 1142 615 1137 m 63 521 q 100 736 63 638 q 207 908 137 835 q 377 1022 277 981 q 604 1063 478 1063 q 831 1022 731 1063 q 1002 908 932 981 q 1109 736 1072 835 q 1146 521 1146 638 q 1107 306 1146 405 q 997 134 1069 208 q 825 20 925 60 q 604 -21 726 -21 q 377 20 478 -21 q 207 134 277 60 q 100 306 137 208 q 63 521 63 405 m 323 521 q 339 356 323 432 q 389 223 355 279 q 476 135 422 167 q 604 104 530 104 q 739 135 685 104 q 825 223 793 167 q 872 356 858 279 q 885 521 885 432 q 869 687 885 611 q 820 819 853 763 q 733 906 786 875 q 604 938 680 938 q 476 906 530 938 q 389 819 422 875 q 339 687 355 763 q 323 521 323 611 "},"Ó":{"ha":1208,"x_min":63,"x_max":1146,"o":"m 576 1147 l 525 1199 q 525 1223 513 1212 l 674 1390 q 719 1414 691 1408 q 775 1412 747 1419 q 818 1382 803 1404 q 838 1307 847 1344 q 796 1251 828 1269 l 600 1144 q 587 1139 592 1138 q 576 1147 583 1140 m 63 521 q 100 736 63 638 q 207 908 137 835 q 377 1022 277 981 q 604 1063 478 1063 q 831 1022 731 1063 q 1002 908 932 981 q 1109 736 1072 835 q 1146 521 1146 638 q 1107 306 1146 405 q 997 134 1069 208 q 825 20 925 60 q 604 -21 726 -21 q 377 20 478 -21 q 207 134 277 60 q 100 306 137 208 q 63 521 63 405 m 323 521 q 339 356 323 432 q 389 223 355 279 q 476 135 422 167 q 604 104 530 104 q 739 135 685 104 q 825 223 793 167 q 872 356 858 279 q 885 521 885 432 q 869 687 885 611 q 820 819 853 763 q 733 906 786 875 q 604 938 680 938 q 476 906 530 938 q 389 819 422 875 q 339 687 355 763 q 323 521 323 611 "},"Ô":{"ha":1208,"x_min":63,"x_max":1146,"o":"m 423 1156 l 392 1189 q 384 1200 384 1197 q 390 1211 383 1203 l 521 1366 q 535 1376 528 1374 q 558 1378 542 1378 l 651 1378 q 672 1375 665 1378 q 683 1366 678 1373 l 817 1208 q 821 1200 822 1203 q 815 1191 820 1197 l 777 1153 q 767 1146 769 1146 q 755 1153 764 1147 l 619 1253 q 585 1254 601 1267 l 448 1152 q 423 1156 436 1143 m 63 521 q 100 736 63 638 q 207 908 137 835 q 377 1022 277 981 q 604 1063 478 1063 q 831 1022 731 1063 q 1002 908 932 981 q 1109 736 1072 835 q 1146 521 1146 638 q 1107 306 1146 405 q 997 134 1069 208 q 825 20 925 60 q 604 -21 726 -21 q 377 20 478 -21 q 207 134 277 60 q 100 306 137 208 q 63 521 63 405 m 323 521 q 339 356 323 432 q 389 223 355 279 q 476 135 422 167 q 604 104 530 104 q 739 135 685 104 q 825 223 793 167 q 872 356 858 279 q 885 521 885 432 q 869 687 885 611 q 820 819 853 763 q 733 906 786 875 q 604 938 680 938 q 476 906 530 938 q 389 819 422 875 q 339 687 355 763 q 323 521 323 611 "},"Õ":{"ha":1208,"x_min":63,"x_max":1146,"o":"m 723 1149 q 650 1166 679 1149 q 596 1201 620 1182 q 552 1232 574 1218 q 505 1245 531 1245 q 460 1230 475 1245 q 442 1190 446 1215 q 424 1181 437 1181 l 371 1181 q 357 1186 359 1181 q 356 1201 356 1191 q 382 1285 360 1246 q 439 1350 404 1325 q 517 1374 474 1374 q 588 1358 560 1374 q 638 1323 615 1342 q 681 1292 659 1306 q 731 1278 703 1278 q 788 1328 778 1278 q 793 1339 790 1335 q 805 1343 795 1343 l 860 1343 q 872 1340 870 1343 q 874 1328 874 1336 q 855 1236 872 1276 q 804 1173 837 1196 q 723 1149 771 1149 m 63 521 q 100 736 63 638 q 207 908 137 835 q 377 1022 277 981 q 604 1063 478 1063 q 831 1022 731 1063 q 1002 908 932 981 q 1109 736 1072 835 q 1146 521 1146 638 q 1107 306 1146 405 q 997 134 1069 208 q 825 20 925 60 q 604 -21 726 -21 q 377 20 478 -21 q 207 134 277 60 q 100 306 137 208 q 63 521 63 405 m 323 521 q 339 356 323 432 q 389 223 355 279 q 476 135 422 167 q 604 104 530 104 q 739 135 685 104 q 825 223 793 167 q 872 356 858 279 q 885 521 885 432 q 869 687 885 611 q 820 819 853 763 q 733 906 786 875 q 604 938 680 938 q 476 906 530 938 q 389 819 422 875 q 339 687 355 763 q 323 521 323 611 "},"Ö":{"ha":1208,"x_min":63,"x_max":1146,"o":"m 757 1146 q 686 1175 716 1146 q 657 1246 657 1205 q 686 1317 657 1288 q 757 1347 716 1347 q 828 1317 799 1347 q 857 1246 857 1288 q 828 1175 857 1205 q 757 1146 799 1146 m 451 1146 q 381 1175 410 1146 q 351 1246 351 1205 q 381 1317 351 1288 q 451 1347 410 1347 q 522 1317 493 1347 q 551 1246 551 1288 q 522 1175 551 1205 q 451 1146 493 1146 m 63 521 q 100 736 63 638 q 207 908 137 835 q 377 1022 277 981 q 604 1063 478 1063 q 831 1022 731 1063 q 1002 908 932 981 q 1109 736 1072 835 q 1146 521 1146 638 q 1107 306 1146 405 q 997 134 1069 208 q 825 20 925 60 q 604 -21 726 -21 q 377 20 478 -21 q 207 134 277 60 q 100 306 137 208 q 63 521 63 405 m 323 521 q 339 356 323 432 q 389 223 355 279 q 476 135 422 167 q 604 104 530 104 q 739 135 685 104 q 825 223 793 167 q 872 356 858 279 q 885 521 885 432 q 869 687 885 611 q 820 819 853 763 q 733 906 786 875 q 604 938 680 938 q 476 906 530 938 q 389 819 422 875 q 339 687 355 763 q 323 521 323 611 "},"Ō":{"ha":1208,"x_min":63,"x_max":1146,"o":"m 435 1172 l 435 1229 q 437 1243 435 1239 q 449 1248 440 1248 l 744 1248 q 763 1244 758 1248 q 768 1226 768 1240 l 768 1170 q 766 1154 768 1159 q 753 1149 764 1149 l 459 1149 q 440 1153 446 1149 q 435 1172 435 1157 m 63 521 q 100 736 63 638 q 207 908 137 835 q 377 1022 277 981 q 604 1063 478 1063 q 831 1022 731 1063 q 1002 908 932 981 q 1109 736 1072 835 q 1146 521 1146 638 q 1107 306 1146 405 q 997 134 1069 208 q 825 20 925 60 q 604 -21 726 -21 q 377 20 478 -21 q 207 134 277 60 q 100 306 137 208 q 63 521 63 405 m 323 521 q 339 356 323 432 q 389 223 355 279 q 476 135 422 167 q 604 104 530 104 q 739 135 685 104 q 825 223 793 167 q 872 356 858 279 q 885 521 885 432 q 869 687 885 611 q 820 819 853 763 q 733 906 786 875 q 604 938 680 938 q 476 906 530 938 q 389 819 422 875 q 339 687 355 763 q 323 521 323 611 "},"Ŏ":{"ha":1208,"x_min":63,"x_max":1146,"o":"m 601 1146 q 466 1200 504 1146 q 426 1347 427 1253 q 442 1360 426 1360 l 490 1360 q 502 1349 501 1360 q 528 1295 506 1315 q 601 1274 551 1274 q 672 1292 649 1274 q 701 1340 695 1310 q 705 1355 704 1349 q 719 1360 706 1360 l 765 1360 q 778 1357 776 1360 q 779 1343 780 1353 q 737 1199 776 1252 q 601 1146 697 1146 m 63 521 q 100 736 63 638 q 207 908 137 835 q 377 1022 277 981 q 604 1063 478 1063 q 831 1022 731 1063 q 1002 908 932 981 q 1109 736 1072 835 q 1146 521 1146 638 q 1107 306 1146 405 q 997 134 1069 208 q 825 20 925 60 q 604 -21 726 -21 q 377 20 478 -21 q 207 134 277 60 q 100 306 137 208 q 63 521 63 405 m 323 521 q 339 356 323 432 q 389 223 355 279 q 476 135 422 167 q 604 104 530 104 q 739 135 685 104 q 825 223 793 167 q 872 356 858 279 q 885 521 885 432 q 869 687 885 611 q 820 819 853 763 q 733 906 786 875 q 604 938 680 938 q 476 906 530 938 q 389 819 422 875 q 339 687 355 763 q 323 521 323 611 "},"Ő":{"ha":1208,"x_min":63,"x_max":1146,"o":"m 776 1173 l 722 1213 q 711 1226 712 1222 q 718 1240 710 1231 l 843 1420 q 884 1452 858 1442 q 938 1458 910 1463 q 989 1433 967 1454 q 1020 1361 1026 1397 q 982 1301 1013 1325 l 799 1170 q 788 1165 791 1164 q 776 1173 784 1166 m 413 1174 l 358 1213 q 350 1227 349 1222 q 359 1242 351 1233 l 481 1420 q 523 1453 497 1442 q 579 1461 550 1464 q 629 1435 608 1458 q 659 1363 665 1399 q 620 1301 653 1326 l 446 1176 q 428 1166 434 1167 q 413 1174 423 1165 m 63 521 q 100 736 63 638 q 207 908 137 835 q 377 1022 277 981 q 604 1063 478 1063 q 831 1022 731 1063 q 1002 908 932 981 q 1109 736 1072 835 q 1146 521 1146 638 q 1107 306 1146 405 q 997 134 1069 208 q 825 20 925 60 q 604 -21 726 -21 q 377 20 478 -21 q 207 134 277 60 q 100 306 137 208 q 63 521 63 405 m 323 521 q 339 356 323 432 q 389 223 355 279 q 476 135 422 167 q 604 104 530 104 q 739 135 685 104 q 825 223 793 167 q 872 356 858 279 q 885 521 885 432 q 869 687 885 611 q 820 819 853 763 q 733 906 786 875 q 604 938 680 938 q 476 906 530 938 q 389 819 422 875 q 339 687 355 763 q 323 521 323 611 "},"P":{"ha":1035,"x_min":44,"x_max":995,"o":"m 166 910 l 71 910 q 48 915 53 910 q 44 938 44 920 l 44 1011 q 50 1037 44 1032 q 76 1042 56 1042 l 578 1042 q 749 1023 673 1042 q 881 967 826 1005 q 966 872 936 930 q 995 736 995 815 q 966 600 995 658 q 881 502 936 541 q 749 443 826 463 q 578 424 673 424 l 463 424 q 432 418 438 424 q 426 386 426 412 l 426 171 q 432 139 426 145 q 464 132 438 132 l 566 132 q 589 126 585 132 q 592 101 592 120 l 592 36 q 588 7 592 14 q 562 0 584 0 l 79 0 q 51 5 58 0 q 44 32 44 10 l 44 105 q 49 127 44 122 q 71 132 53 132 l 160 132 q 191 140 185 132 q 197 171 197 147 l 197 884 q 190 906 197 902 q 166 910 184 910 m 458 556 l 565 556 q 697 605 649 556 q 745 736 745 654 q 697 864 745 819 q 565 910 649 910 l 448 910 q 429 903 433 910 q 426 881 426 897 l 426 586 q 431 561 426 566 q 458 556 437 556 "},"Q":{"ha":1208,"x_min":63,"x_max":1201,"o":"m 63 521 q 100 736 63 638 q 207 908 137 835 q 377 1022 277 981 q 604 1063 478 1063 q 831 1022 731 1063 q 1002 908 932 981 q 1109 736 1072 835 q 1146 521 1146 638 q 1085 258 1146 376 q 917 68 1025 140 q 895 48 897 55 q 911 23 892 41 q 943 -11 926 2 q 976 -24 959 -24 q 1032 -8 1010 -24 q 1068 33 1055 7 q 1088 93 1082 60 q 1092 109 1090 103 q 1108 114 1094 114 l 1165 114 q 1194 109 1188 114 q 1199 84 1201 103 q 1180 -24 1196 28 q 1135 -118 1163 -76 q 1066 -184 1106 -160 q 972 -208 1025 -208 q 876 -183 915 -208 q 813 -116 838 -158 q 766 -28 788 -75 q 751 -8 759 -12 q 722 -10 742 -5 q 604 -21 667 -21 q 377 20 478 -21 q 207 134 277 60 q 100 306 137 208 q 63 521 63 405 m 471 141 q 532 114 499 124 q 604 104 565 104 q 641 106 624 104 q 675 112 658 108 q 701 126 697 118 q 694 149 704 133 q 656 210 676 182 q 608 254 635 238 q 540 271 580 271 q 489 255 510 271 q 461 217 469 240 q 460 175 453 194 q 471 141 447 158 m 828 249 q 872 371 859 301 q 885 521 885 441 q 869 687 885 611 q 820 819 853 763 q 733 906 786 875 q 604 938 680 938 q 476 906 530 938 q 389 819 422 875 q 339 687 355 763 q 323 521 323 611 q 331 412 323 464 q 357 317 339 360 q 369 294 365 295 q 383 314 374 292 q 416 380 394 347 q 473 434 438 413 q 558 456 508 456 q 654 427 613 456 q 727 354 695 399 q 786 258 760 308 q 808 229 800 232 q 828 249 817 226 "},"R":{"ha":1197,"x_min":44,"x_max":1215,"o":"m 1207 140 q 1113 25 1172 70 q 957 -21 1054 -21 q 842 5 883 -21 q 782 74 801 31 q 755 167 763 116 q 741 268 747 217 q 719 361 735 319 q 670 429 704 403 q 572 455 636 455 l 455 455 q 430 448 433 455 q 426 420 426 442 l 426 158 q 430 137 426 142 q 451 132 434 132 l 551 132 q 573 127 568 132 q 578 103 578 122 l 578 35 q 573 7 578 13 q 546 0 568 0 l 69 0 q 49 5 54 0 q 44 24 44 9 l 44 105 q 49 127 44 122 q 71 132 54 132 l 160 132 q 190 138 183 132 q 197 165 197 143 l 197 876 q 190 904 197 899 q 160 910 183 910 l 72 910 q 48 917 52 910 q 44 944 44 924 l 44 1017 q 49 1037 44 1033 q 69 1042 53 1042 l 634 1042 q 866 1007 777 1042 q 996 909 955 972 q 1037 767 1037 847 q 999 624 1037 683 q 869 534 961 566 q 842 518 846 526 q 864 496 839 510 q 934 435 911 471 q 967 360 958 400 q 978 283 976 321 q 984 214 981 245 q 999 164 988 183 q 1040 145 1011 145 q 1076 160 1058 145 q 1108 201 1094 175 q 1121 217 1115 215 q 1141 211 1127 220 l 1194 178 q 1212 161 1209 169 q 1207 140 1215 154 m 460 587 l 634 587 q 718 606 680 587 q 778 660 756 624 q 801 747 801 695 q 778 835 801 798 q 718 891 756 872 q 634 910 680 910 l 456 910 q 430 905 435 910 q 426 877 426 899 l 426 619 q 431 591 426 596 q 460 587 436 587 "},"Ŕ":{"ha":1197,"x_min":44,"x_max":1215,"o":"m 534 1147 l 483 1199 q 483 1223 472 1212 l 633 1390 q 677 1414 649 1408 q 733 1412 705 1419 q 776 1382 761 1404 q 796 1307 805 1344 q 754 1251 787 1269 l 558 1144 q 545 1139 550 1138 q 534 1147 541 1140 m 1207 140 q 1113 25 1172 70 q 957 -21 1054 -21 q 842 5 883 -21 q 782 74 801 31 q 755 167 763 116 q 741 268 747 217 q 719 361 735 319 q 670 429 704 403 q 572 455 636 455 l 455 455 q 430 448 433 455 q 426 420 426 442 l 426 158 q 430 137 426 142 q 451 132 434 132 l 551 132 q 573 127 568 132 q 578 103 578 122 l 578 35 q 573 7 578 13 q 546 0 568 0 l 69 0 q 49 5 54 0 q 44 24 44 9 l 44 105 q 49 127 44 122 q 71 132 54 132 l 160 132 q 190 138 183 132 q 197 165 197 143 l 197 876 q 190 904 197 899 q 160 910 183 910 l 72 910 q 48 917 52 910 q 44 944 44 924 l 44 1017 q 49 1037 44 1033 q 69 1042 53 1042 l 634 1042 q 866 1007 777 1042 q 996 909 955 972 q 1037 767 1037 847 q 999 624 1037 683 q 869 534 961 566 q 842 518 846 526 q 864 496 839 510 q 934 435 911 471 q 967 360 958 400 q 978 283 976 321 q 984 214 981 245 q 999 164 988 183 q 1040 145 1011 145 q 1076 160 1058 145 q 1108 201 1094 175 q 1121 217 1115 215 q 1141 211 1127 220 l 1194 178 q 1212 161 1209 169 q 1207 140 1215 154 m 460 587 l 634 587 q 718 606 680 587 q 778 660 756 624 q 801 747 801 695 q 778 835 801 798 q 718 891 756 872 q 634 910 680 910 l 456 910 q 430 905 435 910 q 426 877 426 899 l 426 619 q 431 591 426 596 q 460 587 436 587 "},"Ŗ":{"ha":1197,"x_min":44,"x_max":1215,"o":"m 491 -224 q 524 -152 491 -180 q 601 -125 558 -125 q 685 -162 653 -125 q 718 -274 718 -199 q 701 -356 718 -317 q 654 -426 683 -395 q 589 -477 624 -458 q 517 -501 553 -497 q 503 -500 507 -502 q 500 -487 500 -498 l 500 -442 q 514 -429 500 -431 q 569 -408 543 -425 q 614 -367 596 -392 q 636 -318 632 -343 q 634 -313 637 -313 q 626 -315 631 -312 q 607 -321 618 -319 q 583 -323 597 -323 q 516 -295 541 -323 q 491 -224 491 -268 m 1207 140 q 1113 25 1172 70 q 957 -21 1054 -21 q 842 5 883 -21 q 782 74 801 31 q 755 167 763 116 q 741 268 747 217 q 719 361 735 319 q 670 429 704 403 q 572 455 636 455 l 455 455 q 430 448 433 455 q 426 420 426 442 l 426 158 q 430 137 426 142 q 451 132 434 132 l 551 132 q 573 127 568 132 q 578 103 578 122 l 578 35 q 573 7 578 13 q 546 0 568 0 l 69 0 q 49 5 54 0 q 44 24 44 9 l 44 105 q 49 127 44 122 q 71 132 54 132 l 160 132 q 190 138 183 132 q 197 165 197 143 l 197 876 q 190 904 197 899 q 160 910 183 910 l 72 910 q 48 917 52 910 q 44 944 44 924 l 44 1017 q 49 1037 44 1033 q 69 1042 53 1042 l 634 1042 q 866 1007 777 1042 q 996 909 955 972 q 1037 767 1037 847 q 999 624 1037 683 q 869 534 961 566 q 842 518 846 526 q 864 496 839 510 q 934 435 911 471 q 967 360 958 400 q 978 283 976 321 q 984 214 981 245 q 999 164 988 183 q 1040 145 1011 145 q 1076 160 1058 145 q 1108 201 1094 175 q 1121 217 1115 215 q 1141 211 1127 220 l 1194 178 q 1212 161 1209 169 q 1207 140 1215 154 m 460 587 l 634 587 q 718 606 680 587 q 778 660 756 624 q 801 747 801 695 q 778 835 801 798 q 718 891 756 872 q 634 910 680 910 l 456 910 q 430 905 435 910 q 426 877 426 899 l 426 619 q 431 591 426 596 q 460 587 436 587 "},"Ř":{"ha":1197,"x_min":44,"x_max":1215,"o":"m 474 1173 l 350 1322 q 343 1334 343 1329 q 351 1346 344 1339 l 383 1376 q 397 1384 392 1385 q 411 1376 401 1383 l 533 1290 q 560 1280 548 1280 q 587 1290 572 1279 l 713 1381 q 727 1386 722 1388 q 741 1376 733 1384 l 768 1349 q 778 1336 777 1340 q 771 1322 779 1331 l 644 1171 q 631 1159 638 1163 q 608 1156 624 1156 l 517 1156 q 490 1160 499 1156 q 474 1173 481 1165 m 1207 140 q 1113 25 1172 70 q 957 -21 1054 -21 q 842 5 883 -21 q 782 74 801 31 q 755 167 763 116 q 741 268 747 217 q 719 361 735 319 q 670 429 704 403 q 572 455 636 455 l 455 455 q 430 448 433 455 q 426 420 426 442 l 426 158 q 430 137 426 142 q 451 132 434 132 l 551 132 q 573 127 568 132 q 578 103 578 122 l 578 35 q 573 7 578 13 q 546 0 568 0 l 69 0 q 49 5 54 0 q 44 24 44 9 l 44 105 q 49 127 44 122 q 71 132 54 132 l 160 132 q 190 138 183 132 q 197 165 197 143 l 197 876 q 190 904 197 899 q 160 910 183 910 l 72 910 q 48 917 52 910 q 44 944 44 924 l 44 1017 q 49 1037 44 1033 q 69 1042 53 1042 l 634 1042 q 866 1007 777 1042 q 996 909 955 972 q 1037 767 1037 847 q 999 624 1037 683 q 869 534 961 566 q 842 518 846 526 q 864 496 839 510 q 934 435 911 471 q 967 360 958 400 q 978 283 976 321 q 984 214 981 245 q 999 164 988 183 q 1040 145 1011 145 q 1076 160 1058 145 q 1108 201 1094 175 q 1121 217 1115 215 q 1141 211 1127 220 l 1194 178 q 1212 161 1209 169 q 1207 140 1215 154 m 460 587 l 634 587 q 718 606 680 587 q 778 660 756 624 q 801 747 801 695 q 778 835 801 798 q 718 891 756 872 q 634 910 680 910 l 456 910 q 430 905 435 910 q 426 877 426 899 l 426 619 q 431 591 426 596 q 460 587 436 587 "},"Ȓ":{"ha":1197,"x_min":44,"x_max":1215,"o":"m 562 1370 q 698 1317 660 1370 q 738 1169 736 1263 q 722 1156 738 1156 l 674 1156 q 661 1167 663 1156 q 635 1222 658 1201 q 562 1242 613 1242 q 491 1224 514 1242 q 462 1176 468 1206 q 458 1162 460 1167 q 444 1156 457 1156 l 398 1156 q 385 1159 387 1156 q 384 1173 383 1163 q 426 1317 387 1265 q 562 1370 466 1370 m 1207 140 q 1113 25 1172 70 q 957 -21 1054 -21 q 842 5 883 -21 q 782 74 801 31 q 755 167 763 116 q 741 268 747 217 q 719 361 735 319 q 670 429 704 403 q 572 455 636 455 l 455 455 q 430 448 433 455 q 426 420 426 442 l 426 158 q 430 137 426 142 q 451 132 434 132 l 551 132 q 573 127 568 132 q 578 103 578 122 l 578 35 q 573 7 578 13 q 546 0 568 0 l 69 0 q 49 5 54 0 q 44 24 44 9 l 44 105 q 49 127 44 122 q 71 132 54 132 l 160 132 q 190 138 183 132 q 197 165 197 143 l 197 876 q 190 904 197 899 q 160 910 183 910 l 72 910 q 48 917 52 910 q 44 944 44 924 l 44 1017 q 49 1037 44 1033 q 69 1042 53 1042 l 634 1042 q 866 1007 777 1042 q 996 909 955 972 q 1037 767 1037 847 q 999 624 1037 683 q 869 534 961 566 q 842 518 846 526 q 864 496 839 510 q 934 435 911 471 q 967 360 958 400 q 978 283 976 321 q 984 214 981 245 q 999 164 988 183 q 1040 145 1011 145 q 1076 160 1058 145 q 1108 201 1094 175 q 1121 217 1115 215 q 1141 211 1127 220 l 1194 178 q 1212 161 1209 169 q 1207 140 1215 154 m 460 587 l 634 587 q 718 606 680 587 q 778 660 756 624 q 801 747 801 695 q 778 835 801 798 q 718 891 756 872 q 634 910 680 910 l 456 910 q 430 905 435 910 q 426 877 426 899 l 426 619 q 431 591 426 596 q 460 587 436 587 "},"S":{"ha":981,"x_min":73,"x_max":931,"o":"m 772 717 q 723 835 763 787 q 625 908 683 883 q 503 933 567 933 q 365 897 409 933 q 320 808 320 862 q 353 729 320 759 q 441 679 386 699 q 560 643 495 660 q 691 603 626 626 q 810 544 756 581 q 898 451 865 508 q 931 306 931 394 q 880 118 931 191 q 738 10 830 45 q 524 -24 647 -24 q 373 2 438 -24 q 263 68 307 28 q 237 80 244 85 q 217 51 230 75 l 201 13 q 187 -4 194 -1 q 159 -7 179 -7 l 105 -7 q 80 -2 87 -7 q 73 21 73 3 l 73 354 q 78 377 73 372 q 101 382 83 382 l 167 382 q 189 376 186 382 q 193 353 191 370 q 238 232 200 290 q 339 139 275 175 q 490 102 403 102 q 616 124 567 102 q 689 181 665 145 q 712 257 712 216 q 679 345 712 313 q 592 399 647 378 q 473 436 538 419 q 343 473 408 452 q 224 526 278 493 q 137 614 170 560 q 104 753 104 668 q 134 892 104 834 q 215 987 164 949 q 330 1042 266 1024 q 462 1059 394 1059 q 596 1038 535 1059 q 701 980 657 1016 q 726 967 717 967 q 747 989 736 967 l 767 1028 q 775 1039 772 1036 q 790 1042 778 1042 l 866 1042 q 887 1036 882 1042 q 892 1015 892 1031 l 892 709 q 886 685 892 690 q 861 681 881 681 l 808 681 q 778 688 781 681 q 772 717 776 694 "},"Ś":{"ha":981,"x_min":73,"x_max":931,"o":"m 485 1147 l 435 1199 q 435 1223 423 1212 l 584 1390 q 628 1414 601 1408 q 684 1412 656 1419 q 728 1382 713 1404 q 747 1307 756 1344 q 706 1251 738 1269 l 510 1144 q 497 1139 501 1138 q 485 1147 492 1140 m 772 717 q 723 835 763 787 q 625 908 683 883 q 503 933 567 933 q 365 897 409 933 q 320 808 320 862 q 353 729 320 759 q 441 679 386 699 q 560 643 495 660 q 691 603 626 626 q 810 544 756 581 q 898 451 865 508 q 931 306 931 394 q 880 118 931 191 q 738 10 830 45 q 524 -24 647 -24 q 373 2 438 -24 q 263 68 307 28 q 237 80 244 85 q 217 51 230 75 l 201 13 q 187 -4 194 -1 q 159 -7 179 -7 l 105 -7 q 80 -2 87 -7 q 73 21 73 3 l 73 354 q 78 377 73 372 q 101 382 83 382 l 167 382 q 189 376 186 382 q 193 353 191 370 q 238 232 200 290 q 339 139 275 175 q 490 102 403 102 q 616 124 567 102 q 689 181 665 145 q 712 257 712 216 q 679 345 712 313 q 592 399 647 378 q 473 436 538 419 q 343 473 408 452 q 224 526 278 493 q 137 614 170 560 q 104 753 104 668 q 134 892 104 834 q 215 987 164 949 q 330 1042 266 1024 q 462 1059 394 1059 q 596 1038 535 1059 q 701 980 657 1016 q 726 967 717 967 q 747 989 736 967 l 767 1028 q 775 1039 772 1036 q 790 1042 778 1042 l 866 1042 q 887 1036 882 1042 q 892 1015 892 1031 l 892 709 q 886 685 892 690 q 861 681 881 681 l 808 681 q 778 688 781 681 q 772 717 776 694 "},"Ŝ":{"ha":981,"x_min":73,"x_max":931,"o":"m 333 1156 l 301 1189 q 293 1200 294 1197 q 300 1211 293 1203 l 431 1366 q 445 1376 438 1374 q 467 1378 452 1378 l 561 1378 q 581 1375 575 1378 q 593 1366 588 1373 l 726 1208 q 731 1200 732 1203 q 724 1191 730 1197 l 687 1153 q 676 1146 679 1146 q 665 1153 674 1147 l 529 1253 q 494 1254 511 1267 l 358 1152 q 333 1156 346 1143 m 772 717 q 723 835 763 787 q 625 908 683 883 q 503 933 567 933 q 365 897 409 933 q 320 808 320 862 q 353 729 320 759 q 441 679 386 699 q 560 643 495 660 q 691 603 626 626 q 810 544 756 581 q 898 451 865 508 q 931 306 931 394 q 880 118 931 191 q 738 10 830 45 q 524 -24 647 -24 q 373 2 438 -24 q 263 68 307 28 q 237 80 244 85 q 217 51 230 75 l 201 13 q 187 -4 194 -1 q 159 -7 179 -7 l 105 -7 q 80 -2 87 -7 q 73 21 73 3 l 73 354 q 78 377 73 372 q 101 382 83 382 l 167 382 q 189 376 186 382 q 193 353 191 370 q 238 232 200 290 q 339 139 275 175 q 490 102 403 102 q 616 124 567 102 q 689 181 665 145 q 712 257 712 216 q 679 345 712 313 q 592 399 647 378 q 473 436 538 419 q 343 473 408 452 q 224 526 278 493 q 137 614 170 560 q 104 753 104 668 q 134 892 104 834 q 215 987 164 949 q 330 1042 266 1024 q 462 1059 394 1059 q 596 1038 535 1059 q 701 980 657 1016 q 726 967 717 967 q 747 989 736 967 l 767 1028 q 775 1039 772 1036 q 790 1042 778 1042 l 866 1042 q 887 1036 882 1042 q 892 1015 892 1031 l 892 709 q 886 685 892 690 q 861 681 881 681 l 808 681 q 778 688 781 681 q 772 717 776 694 "},"Ş":{"ha":981,"x_min":73,"x_max":931,"o":"m 398 -367 l 398 -328 q 403 -313 398 -316 q 419 -309 409 -310 q 498 -294 462 -306 q 534 -253 534 -283 q 513 -216 534 -229 q 458 -198 491 -203 q 394 -190 426 -192 q 372 -183 374 -187 q 376 -169 369 -178 l 484 -19 q 490 -13 488 -14 q 501 -12 493 -12 l 553 -12 q 570 -15 569 -12 q 565 -26 571 -17 l 517 -94 q 510 -109 508 -106 q 531 -114 512 -112 q 630 -148 593 -119 q 667 -235 667 -177 q 644 -313 667 -283 q 582 -358 620 -342 q 500 -380 544 -374 q 415 -387 456 -386 q 398 -367 398 -388 m 772 717 q 723 835 763 787 q 625 908 683 883 q 503 933 567 933 q 365 897 409 933 q 320 808 320 862 q 353 729 320 759 q 441 679 386 699 q 560 643 495 660 q 691 603 626 626 q 810 544 756 581 q 898 451 865 508 q 931 306 931 394 q 880 118 931 191 q 738 10 830 45 q 524 -24 647 -24 q 373 2 438 -24 q 263 68 307 28 q 237 80 244 85 q 217 51 230 75 l 201 13 q 187 -4 194 -1 q 159 -7 179 -7 l 105 -7 q 80 -2 87 -7 q 73 21 73 3 l 73 354 q 78 377 73 372 q 101 382 83 382 l 167 382 q 189 376 186 382 q 193 353 191 370 q 238 232 200 290 q 339 139 275 175 q 490 102 403 102 q 616 124 567 102 q 689 181 665 145 q 712 257 712 216 q 679 345 712 313 q 592 399 647 378 q 473 436 538 419 q 343 473 408 452 q 224 526 278 493 q 137 614 170 560 q 104 753 104 668 q 134 892 104 834 q 215 987 164 949 q 330 1042 266 1024 q 462 1059 394 1059 q 596 1038 535 1059 q 701 980 657 1016 q 726 967 717 967 q 747 989 736 967 l 767 1028 q 775 1039 772 1036 q 790 1042 778 1042 l 866 1042 q 887 1036 882 1042 q 892 1015 892 1031 l 892 709 q 886 685 892 690 q 861 681 881 681 l 808 681 q 778 688 781 681 q 772 717 776 694 "},"Š":{"ha":981,"x_min":73,"x_max":931,"o":"m 425 1173 l 301 1322 q 295 1334 294 1329 q 303 1346 295 1339 l 335 1376 q 348 1384 344 1385 q 363 1376 352 1383 l 484 1290 q 511 1280 499 1280 q 538 1290 524 1279 l 665 1381 q 679 1386 674 1388 q 692 1376 684 1384 l 719 1349 q 730 1336 728 1340 q 722 1322 731 1331 l 596 1171 q 582 1159 589 1163 q 560 1156 576 1156 l 468 1156 q 442 1160 451 1156 q 425 1173 433 1165 m 772 717 q 723 835 763 787 q 625 908 683 883 q 503 933 567 933 q 365 897 409 933 q 320 808 320 862 q 353 729 320 759 q 441 679 386 699 q 560 643 495 660 q 691 603 626 626 q 810 544 756 581 q 898 451 865 508 q 931 306 931 394 q 880 118 931 191 q 738 10 830 45 q 524 -24 647 -24 q 373 2 438 -24 q 263 68 307 28 q 237 80 244 85 q 217 51 230 75 l 201 13 q 187 -4 194 -1 q 159 -7 179 -7 l 105 -7 q 80 -2 87 -7 q 73 21 73 3 l 73 354 q 78 377 73 372 q 101 382 83 382 l 167 382 q 189 376 186 382 q 193 353 191 370 q 238 232 200 290 q 339 139 275 175 q 490 102 403 102 q 616 124 567 102 q 689 181 665 145 q 712 257 712 216 q 679 345 712 313 q 592 399 647 378 q 473 436 538 419 q 343 473 408 452 q 224 526 278 493 q 137 614 170 560 q 104 753 104 668 q 134 892 104 834 q 215 987 164 949 q 330 1042 266 1024 q 462 1059 394 1059 q 596 1038 535 1059 q 701 980 657 1016 q 726 967 717 967 q 747 989 736 967 l 767 1028 q 775 1039 772 1036 q 790 1042 778 1042 l 866 1042 q 887 1036 882 1042 q 892 1015 892 1031 l 892 709 q 886 685 892 690 q 861 681 881 681 l 808 681 q 778 688 781 681 q 772 717 776 694 "},"Ș":{"ha":981,"x_min":73,"x_max":931,"o":"m 407 -224 q 440 -152 407 -180 q 517 -125 474 -125 q 601 -162 569 -125 q 634 -274 634 -199 q 617 -356 634 -317 q 570 -426 599 -395 q 505 -477 540 -458 q 433 -501 469 -497 q 419 -500 423 -502 q 416 -487 416 -498 l 416 -442 q 430 -429 416 -431 q 485 -408 459 -425 q 530 -367 512 -392 q 552 -318 548 -343 q 550 -313 553 -313 q 542 -315 547 -312 q 523 -321 534 -319 q 499 -323 513 -323 q 432 -295 457 -323 q 407 -224 407 -268 m 772 717 q 723 835 763 787 q 625 908 683 883 q 503 933 567 933 q 365 897 409 933 q 320 808 320 862 q 353 729 320 759 q 441 679 386 699 q 560 643 495 660 q 691 603 626 626 q 810 544 756 581 q 898 451 865 508 q 931 306 931 394 q 880 118 931 191 q 738 10 830 45 q 524 -24 647 -24 q 373 2 438 -24 q 263 68 307 28 q 237 80 244 85 q 217 51 230 75 l 201 13 q 187 -4 194 -1 q 159 -7 179 -7 l 105 -7 q 80 -2 87 -7 q 73 21 73 3 l 73 354 q 78 377 73 372 q 101 382 83 382 l 167 382 q 189 376 186 382 q 193 353 191 370 q 238 232 200 290 q 339 139 275 175 q 490 102 403 102 q 616 124 567 102 q 689 181 665 145 q 712 257 712 216 q 679 345 712 313 q 592 399 647 378 q 473 436 538 419 q 343 473 408 452 q 224 526 278 493 q 137 614 170 560 q 104 753 104 668 q 134 892 104 834 q 215 987 164 949 q 330 1042 266 1024 q 462 1059 394 1059 q 596 1038 535 1059 q 701 980 657 1016 q 726 967 717 967 q 747 989 736 967 l 767 1028 q 775 1039 772 1036 q 790 1042 778 1042 l 866 1042 q 887 1036 882 1042 q 892 1015 892 1031 l 892 709 q 886 685 892 690 q 861 681 881 681 l 808 681 q 778 688 781 681 q 772 717 776 694 "},"T":{"ha":1101,"x_min":51,"x_max":1051,"o":"m 269 32 l 269 103 q 276 127 269 122 q 300 132 282 132 l 403 132 q 436 140 429 132 q 443 174 443 147 l 443 888 q 438 910 443 904 q 416 917 432 917 l 377 917 q 252 896 297 917 q 189 824 208 875 q 169 680 171 772 q 161 653 168 660 q 133 646 155 646 l 81 646 q 56 653 62 646 q 51 678 51 660 l 51 1003 q 55 1034 51 1026 q 83 1042 60 1042 l 1022 1042 q 1045 1035 1040 1042 q 1051 1009 1051 1028 l 1051 676 q 1044 651 1051 656 q 1016 646 1038 646 l 967 646 q 938 653 943 646 q 932 681 933 660 q 911 824 930 773 q 848 896 892 875 q 724 917 804 917 l 685 917 q 663 910 668 917 q 658 887 658 904 l 658 180 q 665 141 658 150 q 700 132 671 132 l 797 132 q 826 125 820 132 q 832 96 832 118 l 832 34 q 823 6 832 11 q 792 0 814 0 l 304 0 q 276 5 283 0 q 269 32 269 10 "},"Ţ":{"ha":1101,"x_min":51,"x_max":1051,"o":"m 422 -343 l 422 -303 q 427 -289 422 -292 q 443 -285 433 -285 q 522 -270 485 -281 q 558 -229 558 -259 q 536 -192 558 -205 q 482 -174 515 -179 q 418 -165 449 -168 q 395 -159 398 -163 q 399 -145 392 -154 l 508 6 q 514 11 511 10 q 525 13 517 13 l 576 13 q 593 10 592 13 q 589 -1 594 7 l 541 -69 q 534 -85 532 -81 q 554 -90 535 -88 q 654 -124 617 -94 q 691 -211 691 -153 q 667 -289 691 -259 q 606 -334 644 -318 q 524 -356 567 -350 q 439 -363 480 -362 q 422 -343 422 -364 m 269 32 l 269 103 q 276 127 269 122 q 300 132 282 132 l 403 132 q 436 140 429 132 q 443 174 443 147 l 443 888 q 438 910 443 904 q 416 917 432 917 l 377 917 q 252 896 297 917 q 189 824 208 875 q 169 680 171 772 q 161 653 168 660 q 133 646 155 646 l 81 646 q 56 653 62 646 q 51 678 51 660 l 51 1003 q 55 1034 51 1026 q 83 1042 60 1042 l 1022 1042 q 1045 1035 1040 1042 q 1051 1009 1051 1028 l 1051 676 q 1044 651 1051 656 q 1016 646 1038 646 l 967 646 q 938 653 943 646 q 932 681 933 660 q 911 824 930 773 q 848 896 892 875 q 724 917 804 917 l 685 917 q 663 910 668 917 q 658 887 658 904 l 658 180 q 665 141 658 150 q 700 132 671 132 l 797 132 q 826 125 820 132 q 832 96 832 118 l 832 34 q 823 6 832 11 q 792 0 814 0 l 304 0 q 276 5 283 0 q 269 32 269 10 "},"Ť":{"ha":1101,"x_min":51,"x_max":1051,"o":"m 459 1173 l 335 1322 q 329 1334 328 1329 q 337 1346 329 1339 l 369 1376 q 382 1384 378 1385 q 397 1376 386 1383 l 518 1290 q 545 1280 533 1280 q 572 1290 558 1279 l 699 1381 q 713 1386 708 1388 q 726 1376 718 1384 l 753 1349 q 764 1336 763 1340 q 756 1322 765 1331 l 630 1171 q 616 1159 623 1163 q 594 1156 610 1156 l 502 1156 q 476 1160 485 1156 q 459 1173 467 1165 m 269 32 l 269 103 q 276 127 269 122 q 300 132 282 132 l 403 132 q 436 140 429 132 q 443 174 443 147 l 443 888 q 438 910 443 904 q 416 917 432 917 l 377 917 q 252 896 297 917 q 189 824 208 875 q 169 680 171 772 q 161 653 168 660 q 133 646 155 646 l 81 646 q 56 653 62 646 q 51 678 51 660 l 51 1003 q 55 1034 51 1026 q 83 1042 60 1042 l 1022 1042 q 1045 1035 1040 1042 q 1051 1009 1051 1028 l 1051 676 q 1044 651 1051 656 q 1016 646 1038 646 l 967 646 q 938 653 943 646 q 932 681 933 660 q 911 824 930 773 q 848 896 892 875 q 724 917 804 917 l 685 917 q 663 910 668 917 q 658 887 658 904 l 658 180 q 665 141 658 150 q 700 132 671 132 l 797 132 q 826 125 820 132 q 832 96 832 118 l 832 34 q 823 6 832 11 q 792 0 814 0 l 304 0 q 276 5 283 0 q 269 32 269 10 "},"Ț":{"ha":1101,"x_min":51,"x_max":1051,"o":"m 435 -224 q 469 -152 435 -180 q 546 -125 502 -125 q 630 -162 597 -125 q 663 -274 663 -199 q 645 -356 663 -317 q 598 -426 628 -395 q 533 -477 569 -458 q 461 -501 497 -497 q 448 -500 451 -502 q 444 -487 444 -498 l 444 -442 q 458 -429 444 -431 q 514 -408 488 -425 q 558 -367 540 -392 q 581 -318 576 -343 q 578 -313 581 -313 q 570 -315 575 -312 q 552 -321 563 -319 q 528 -323 541 -323 q 460 -295 485 -323 q 435 -224 435 -268 m 269 32 l 269 103 q 276 127 269 122 q 300 132 282 132 l 403 132 q 436 140 429 132 q 443 174 443 147 l 443 888 q 438 910 443 904 q 416 917 432 917 l 377 917 q 252 896 297 917 q 189 824 208 875 q 169 680 171 772 q 161 653 168 660 q 133 646 155 646 l 81 646 q 56 653 62 646 q 51 678 51 660 l 51 1003 q 55 1034 51 1026 q 83 1042 60 1042 l 1022 1042 q 1045 1035 1040 1042 q 1051 1009 1051 1028 l 1051 676 q 1044 651 1051 656 q 1016 646 1038 646 l 967 646 q 938 653 943 646 q 932 681 933 660 q 911 824 930 773 q 848 896 892 875 q 724 917 804 917 l 685 917 q 663 910 668 917 q 658 887 658 904 l 658 180 q 665 141 658 150 q 700 132 671 132 l 797 132 q 826 125 820 132 q 832 96 832 118 l 832 34 q 823 6 832 11 q 792 0 814 0 l 304 0 q 276 5 283 0 q 269 32 269 10 "},"U":{"ha":1233,"x_min":26,"x_max":1207,"o":"m 882 910 l 773 910 q 748 916 753 910 q 742 941 742 922 l 742 1003 q 747 1034 742 1026 q 775 1042 753 1042 l 1175 1042 q 1201 1036 1195 1042 q 1207 1010 1207 1031 l 1207 942 q 1200 915 1207 921 q 1172 910 1194 910 l 1091 910 q 1061 904 1067 910 q 1054 875 1054 899 l 1054 417 q 944 84 1054 193 q 617 -24 833 -24 q 399 10 485 -24 q 266 105 314 44 q 199 247 218 165 q 179 424 179 328 l 179 878 q 171 905 179 900 q 143 910 163 910 l 59 910 q 32 915 38 910 q 26 942 26 921 l 26 1008 q 33 1035 26 1029 q 60 1042 40 1042 l 544 1042 q 569 1036 563 1042 q 575 1013 575 1031 l 575 942 q 569 916 575 922 q 541 910 563 910 l 445 910 q 414 903 420 910 q 408 872 408 897 l 408 444 q 431 270 408 342 q 507 158 453 197 q 658 119 562 119 q 798 148 741 119 q 885 242 856 177 q 915 417 915 308 l 915 876 q 909 904 915 899 q 882 910 903 910 "},"Ù":{"ha":1233,"x_min":26,"x_max":1207,"o":"m 656 1142 l 458 1251 q 416 1307 426 1269 q 435 1382 407 1344 q 480 1412 452 1404 q 535 1414 508 1419 q 579 1390 563 1408 l 728 1224 q 728 1199 740 1211 l 677 1146 q 668 1138 672 1140 q 656 1142 664 1137 m 882 910 l 773 910 q 748 916 753 910 q 742 941 742 922 l 742 1003 q 747 1034 742 1026 q 775 1042 753 1042 l 1175 1042 q 1201 1036 1195 1042 q 1207 1010 1207 1031 l 1207 942 q 1200 915 1207 921 q 1172 910 1194 910 l 1091 910 q 1061 904 1067 910 q 1054 875 1054 899 l 1054 417 q 944 84 1054 193 q 617 -24 833 -24 q 399 10 485 -24 q 266 105 314 44 q 199 247 218 165 q 179 424 179 328 l 179 878 q 171 905 179 900 q 143 910 163 910 l 59 910 q 32 915 38 910 q 26 942 26 921 l 26 1008 q 33 1035 26 1029 q 60 1042 40 1042 l 544 1042 q 569 1036 563 1042 q 575 1013 575 1031 l 575 942 q 569 916 575 922 q 541 910 563 910 l 445 910 q 414 903 420 910 q 408 872 408 897 l 408 444 q 431 270 408 342 q 507 158 453 197 q 658 119 562 119 q 798 148 741 119 q 885 242 856 177 q 915 417 915 308 l 915 876 q 909 904 915 899 q 882 910 903 910 "},"Ú":{"ha":1233,"x_min":26,"x_max":1207,"o":"m 624 1147 l 574 1199 q 574 1223 562 1212 l 723 1390 q 767 1414 740 1408 q 823 1412 795 1419 q 867 1382 851 1404 q 886 1307 895 1344 q 844 1251 877 1269 l 649 1144 q 636 1139 640 1138 q 624 1147 631 1140 m 882 910 l 773 910 q 748 916 753 910 q 742 941 742 922 l 742 1003 q 747 1034 742 1026 q 775 1042 753 1042 l 1175 1042 q 1201 1036 1195 1042 q 1207 1010 1207 1031 l 1207 942 q 1200 915 1207 921 q 1172 910 1194 910 l 1091 910 q 1061 904 1067 910 q 1054 875 1054 899 l 1054 417 q 944 84 1054 193 q 617 -24 833 -24 q 399 10 485 -24 q 266 105 314 44 q 199 247 218 165 q 179 424 179 328 l 179 878 q 171 905 179 900 q 143 910 163 910 l 59 910 q 32 915 38 910 q 26 942 26 921 l 26 1008 q 33 1035 26 1029 q 60 1042 40 1042 l 544 1042 q 569 1036 563 1042 q 575 1013 575 1031 l 575 942 q 569 916 575 922 q 541 910 563 910 l 445 910 q 414 903 420 910 q 408 872 408 897 l 408 444 q 431 270 408 342 q 507 158 453 197 q 658 119 562 119 q 798 148 741 119 q 885 242 856 177 q 915 417 915 308 l 915 876 q 909 904 915 899 q 882 910 903 910 "},"Û":{"ha":1233,"x_min":26,"x_max":1207,"o":"m 472 1156 l 440 1189 q 432 1200 433 1197 q 439 1211 432 1203 l 569 1366 q 584 1376 576 1374 q 606 1378 591 1378 l 700 1378 q 720 1375 714 1378 q 732 1366 726 1373 l 865 1208 q 870 1200 871 1203 q 863 1191 869 1197 l 826 1153 q 815 1146 818 1146 q 803 1153 813 1147 l 668 1253 q 633 1254 650 1267 l 497 1152 q 472 1156 485 1143 m 882 910 l 773 910 q 748 916 753 910 q 742 941 742 922 l 742 1003 q 747 1034 742 1026 q 775 1042 753 1042 l 1175 1042 q 1201 1036 1195 1042 q 1207 1010 1207 1031 l 1207 942 q 1200 915 1207 921 q 1172 910 1194 910 l 1091 910 q 1061 904 1067 910 q 1054 875 1054 899 l 1054 417 q 944 84 1054 193 q 617 -24 833 -24 q 399 10 485 -24 q 266 105 314 44 q 199 247 218 165 q 179 424 179 328 l 179 878 q 171 905 179 900 q 143 910 163 910 l 59 910 q 32 915 38 910 q 26 942 26 921 l 26 1008 q 33 1035 26 1029 q 60 1042 40 1042 l 544 1042 q 569 1036 563 1042 q 575 1013 575 1031 l 575 942 q 569 916 575 922 q 541 910 563 910 l 445 910 q 414 903 420 910 q 408 872 408 897 l 408 444 q 431 270 408 342 q 507 158 453 197 q 658 119 562 119 q 798 148 741 119 q 885 242 856 177 q 915 417 915 308 l 915 876 q 909 904 915 899 q 882 910 903 910 "},"Ü":{"ha":1233,"x_min":26,"x_max":1207,"o":"m 790 1156 q 719 1186 749 1156 q 690 1256 690 1215 q 719 1327 690 1298 q 790 1357 749 1357 q 860 1327 831 1357 q 890 1256 890 1298 q 860 1186 890 1215 q 790 1156 831 1156 m 484 1156 q 414 1186 443 1156 q 384 1256 384 1215 q 414 1327 384 1298 q 484 1357 443 1357 q 555 1327 526 1357 q 584 1256 584 1298 q 555 1186 584 1215 q 484 1156 526 1156 m 882 910 l 773 910 q 748 916 753 910 q 742 941 742 922 l 742 1003 q 747 1034 742 1026 q 775 1042 753 1042 l 1175 1042 q 1201 1036 1195 1042 q 1207 1010 1207 1031 l 1207 942 q 1200 915 1207 921 q 1172 910 1194 910 l 1091 910 q 1061 904 1067 910 q 1054 875 1054 899 l 1054 417 q 944 84 1054 193 q 617 -24 833 -24 q 399 10 485 -24 q 266 105 314 44 q 199 247 218 165 q 179 424 179 328 l 179 878 q 171 905 179 900 q 143 910 163 910 l 59 910 q 32 915 38 910 q 26 942 26 921 l 26 1008 q 33 1035 26 1029 q 60 1042 40 1042 l 544 1042 q 569 1036 563 1042 q 575 1013 575 1031 l 575 942 q 569 916 575 922 q 541 910 563 910 l 445 910 q 414 903 420 910 q 408 872 408 897 l 408 444 q 431 270 408 342 q 507 158 453 197 q 658 119 562 119 q 798 148 741 119 q 885 242 856 177 q 915 417 915 308 l 915 876 q 909 904 915 899 q 882 910 903 910 "},"Ũ":{"ha":1233,"x_min":26,"x_max":1207,"o":"m 772 1149 q 698 1166 728 1149 q 644 1201 669 1182 q 601 1232 622 1218 q 553 1245 580 1245 q 509 1230 524 1245 q 490 1190 494 1215 q 473 1181 485 1181 l 419 1181 q 406 1186 408 1181 q 405 1201 404 1191 q 431 1285 409 1246 q 488 1350 453 1325 q 565 1374 522 1374 q 636 1358 609 1374 q 687 1323 664 1342 q 730 1292 708 1306 q 780 1278 752 1278 q 836 1328 827 1278 q 841 1339 839 1335 q 853 1343 844 1343 l 909 1343 q 921 1340 919 1343 q 922 1328 923 1336 q 903 1236 921 1276 q 852 1173 885 1196 q 772 1149 819 1149 m 882 910 l 773 910 q 748 916 753 910 q 742 941 742 922 l 742 1003 q 747 1034 742 1026 q 775 1042 753 1042 l 1175 1042 q 1201 1036 1195 1042 q 1207 1010 1207 1031 l 1207 942 q 1200 915 1207 921 q 1172 910 1194 910 l 1091 910 q 1061 904 1067 910 q 1054 875 1054 899 l 1054 417 q 944 84 1054 193 q 617 -24 833 -24 q 399 10 485 -24 q 266 105 314 44 q 199 247 218 165 q 179 424 179 328 l 179 878 q 171 905 179 900 q 143 910 163 910 l 59 910 q 32 915 38 910 q 26 942 26 921 l 26 1008 q 33 1035 26 1029 q 60 1042 40 1042 l 544 1042 q 569 1036 563 1042 q 575 1013 575 1031 l 575 942 q 569 916 575 922 q 541 910 563 910 l 445 910 q 414 903 420 910 q 408 872 408 897 l 408 444 q 431 270 408 342 q 507 158 453 197 q 658 119 562 119 q 798 148 741 119 q 885 242 856 177 q 915 417 915 308 l 915 876 q 909 904 915 899 q 882 910 903 910 "},"Ū":{"ha":1233,"x_min":26,"x_max":1207,"o":"m 483 1172 l 483 1229 q 486 1243 483 1239 q 497 1248 488 1248 l 793 1248 q 811 1244 806 1248 q 817 1226 817 1240 l 817 1170 q 815 1154 817 1159 q 801 1149 813 1149 l 508 1149 q 489 1153 494 1149 q 483 1172 483 1157 m 882 910 l 773 910 q 748 916 753 910 q 742 941 742 922 l 742 1003 q 747 1034 742 1026 q 775 1042 753 1042 l 1175 1042 q 1201 1036 1195 1042 q 1207 1010 1207 1031 l 1207 942 q 1200 915 1207 921 q 1172 910 1194 910 l 1091 910 q 1061 904 1067 910 q 1054 875 1054 899 l 1054 417 q 944 84 1054 193 q 617 -24 833 -24 q 399 10 485 -24 q 266 105 314 44 q 199 247 218 165 q 179 424 179 328 l 179 878 q 171 905 179 900 q 143 910 163 910 l 59 910 q 32 915 38 910 q 26 942 26 921 l 26 1008 q 33 1035 26 1029 q 60 1042 40 1042 l 544 1042 q 569 1036 563 1042 q 575 1013 575 1031 l 575 942 q 569 916 575 922 q 541 910 563 910 l 445 910 q 414 903 420 910 q 408 872 408 897 l 408 444 q 431 270 408 342 q 507 158 453 197 q 658 119 562 119 q 798 148 741 119 q 885 242 856 177 q 915 417 915 308 l 915 876 q 909 904 915 899 q 882 910 903 910 "},"Ŭ":{"ha":1233,"x_min":26,"x_max":1207,"o":"m 650 1146 q 514 1200 553 1146 q 474 1347 476 1253 q 490 1360 474 1360 l 538 1360 q 551 1349 550 1360 q 577 1295 554 1315 q 650 1274 599 1274 q 721 1292 698 1274 q 750 1340 744 1310 q 754 1355 753 1349 q 767 1360 755 1360 l 814 1360 q 827 1357 825 1360 q 828 1343 828 1353 q 785 1199 825 1252 q 650 1146 746 1146 m 882 910 l 773 910 q 748 916 753 910 q 742 941 742 922 l 742 1003 q 747 1034 742 1026 q 775 1042 753 1042 l 1175 1042 q 1201 1036 1195 1042 q 1207 1010 1207 1031 l 1207 942 q 1200 915 1207 921 q 1172 910 1194 910 l 1091 910 q 1061 904 1067 910 q 1054 875 1054 899 l 1054 417 q 944 84 1054 193 q 617 -24 833 -24 q 399 10 485 -24 q 266 105 314 44 q 199 247 218 165 q 179 424 179 328 l 179 878 q 171 905 179 900 q 143 910 163 910 l 59 910 q 32 915 38 910 q 26 942 26 921 l 26 1008 q 33 1035 26 1029 q 60 1042 40 1042 l 544 1042 q 569 1036 563 1042 q 575 1013 575 1031 l 575 942 q 569 916 575 922 q 541 910 563 910 l 445 910 q 414 903 420 910 q 408 872 408 897 l 408 444 q 431 270 408 342 q 507 158 453 197 q 658 119 562 119 q 798 148 741 119 q 885 242 856 177 q 915 417 915 308 l 915 876 q 909 904 915 899 q 882 910 903 910 "},"Ů":{"ha":1233,"x_min":26,"x_max":1207,"o":"m 650 1153 q 573 1173 607 1153 q 520 1228 540 1194 q 501 1301 501 1262 q 520 1376 501 1342 q 573 1431 540 1410 q 650 1451 607 1451 q 728 1431 694 1451 q 781 1376 762 1410 q 799 1301 799 1342 q 780 1228 799 1262 q 728 1173 761 1194 q 650 1153 694 1153 m 650 1235 q 697 1255 679 1235 q 714 1302 714 1274 q 697 1353 714 1333 q 650 1373 679 1373 q 604 1353 622 1373 q 587 1302 587 1333 q 604 1255 587 1274 q 650 1235 622 1235 m 882 910 l 773 910 q 748 916 753 910 q 742 941 742 922 l 742 1003 q 747 1034 742 1026 q 775 1042 753 1042 l 1175 1042 q 1201 1036 1195 1042 q 1207 1010 1207 1031 l 1207 942 q 1200 915 1207 921 q 1172 910 1194 910 l 1091 910 q 1061 904 1067 910 q 1054 875 1054 899 l 1054 417 q 944 84 1054 193 q 617 -24 833 -24 q 399 10 485 -24 q 266 105 314 44 q 199 247 218 165 q 179 424 179 328 l 179 878 q 171 905 179 900 q 143 910 163 910 l 59 910 q 32 915 38 910 q 26 942 26 921 l 26 1008 q 33 1035 26 1029 q 60 1042 40 1042 l 544 1042 q 569 1036 563 1042 q 575 1013 575 1031 l 575 942 q 569 916 575 922 q 541 910 563 910 l 445 910 q 414 903 420 910 q 408 872 408 897 l 408 444 q 431 270 408 342 q 507 158 453 197 q 658 119 562 119 q 798 148 741 119 q 885 242 856 177 q 915 417 915 308 l 915 876 q 909 904 915 899 q 882 910 903 910 "},"Ű":{"ha":1233,"x_min":26,"x_max":1207,"o":"m 825 1173 l 770 1213 q 760 1226 760 1222 q 767 1240 759 1231 l 892 1420 q 932 1452 906 1442 q 987 1458 958 1463 q 1038 1433 1015 1454 q 1068 1361 1075 1397 q 1031 1301 1062 1325 l 848 1170 q 836 1165 840 1164 q 825 1173 833 1166 m 461 1174 l 407 1213 q 398 1227 397 1222 q 408 1242 399 1233 l 530 1420 q 572 1453 545 1442 q 627 1461 599 1464 q 678 1435 656 1458 q 708 1363 714 1399 q 669 1301 701 1326 l 494 1176 q 477 1166 483 1167 q 461 1174 472 1165 m 882 910 l 773 910 q 748 916 753 910 q 742 941 742 922 l 742 1003 q 747 1034 742 1026 q 775 1042 753 1042 l 1175 1042 q 1201 1036 1195 1042 q 1207 1010 1207 1031 l 1207 942 q 1200 915 1207 921 q 1172 910 1194 910 l 1091 910 q 1061 904 1067 910 q 1054 875 1054 899 l 1054 417 q 944 84 1054 193 q 617 -24 833 -24 q 399 10 485 -24 q 266 105 314 44 q 199 247 218 165 q 179 424 179 328 l 179 878 q 171 905 179 900 q 143 910 163 910 l 59 910 q 32 915 38 910 q 26 942 26 921 l 26 1008 q 33 1035 26 1029 q 60 1042 40 1042 l 544 1042 q 569 1036 563 1042 q 575 1013 575 1031 l 575 942 q 569 916 575 922 q 541 910 563 910 l 445 910 q 414 903 420 910 q 408 872 408 897 l 408 444 q 431 270 408 342 q 507 158 453 197 q 658 119 562 119 q 798 148 741 119 q 885 242 856 177 q 915 417 915 308 l 915 876 q 909 904 915 899 q 882 910 903 910 "},"Ų":{"ha":1233,"x_min":26,"x_max":1207,"o":"m 788 -242 q 668 -214 716 -242 q 620 -126 620 -186 q 641 -57 620 -89 q 693 1 662 -26 q 759 51 725 28 q 822 92 794 74 q 847 97 833 100 q 865 89 861 94 q 880 72 878 78 q 874 55 882 65 q 836 15 858 37 q 800 -31 815 -6 q 784 -85 784 -56 q 800 -127 784 -111 q 847 -144 816 -144 q 889 -133 872 -144 q 917 -108 906 -122 q 937 -103 927 -95 l 964 -124 q 971 -133 971 -129 q 967 -144 971 -136 q 904 -212 946 -182 q 788 -242 862 -242 m 882 910 l 773 910 q 748 916 753 910 q 742 941 742 922 l 742 1003 q 747 1034 742 1026 q 775 1042 753 1042 l 1175 1042 q 1201 1036 1195 1042 q 1207 1010 1207 1031 l 1207 942 q 1200 915 1207 921 q 1172 910 1194 910 l 1091 910 q 1061 904 1067 910 q 1054 875 1054 899 l 1054 417 q 944 84 1054 193 q 617 -24 833 -24 q 399 10 485 -24 q 266 105 314 44 q 199 247 218 165 q 179 424 179 328 l 179 878 q 171 905 179 900 q 143 910 163 910 l 59 910 q 32 915 38 910 q 26 942 26 921 l 26 1008 q 33 1035 26 1029 q 60 1042 40 1042 l 544 1042 q 569 1036 563 1042 q 575 1013 575 1031 l 575 942 q 569 916 575 922 q 541 910 563 910 l 445 910 q 414 903 420 910 q 408 872 408 897 l 408 444 q 431 270 408 342 q 507 158 453 197 q 658 119 562 119 q 798 148 741 119 q 885 242 856 177 q 915 417 915 308 l 915 876 q 909 904 915 899 q 882 910 903 910 "},"V":{"ha":1257,"x_min":-3,"x_max":1260,"o":"m 717 287 l 965 878 q 969 904 974 898 q 935 910 964 910 l 867 910 q 842 914 848 910 q 837 937 837 919 l 837 1009 q 841 1035 837 1029 q 865 1042 846 1042 l 1228 1042 q 1254 1036 1247 1042 q 1260 1010 1260 1030 l 1260 937 q 1256 916 1260 922 q 1235 910 1251 910 l 1157 910 q 1123 902 1131 910 q 1108 877 1115 894 l 742 17 q 732 -4 736 4 q 718 -17 727 -12 q 690 -21 710 -21 l 592 -21 q 553 -14 563 -21 q 535 12 543 -8 l 167 884 q 153 906 160 901 q 122 910 147 910 l 26 910 q 1 917 6 910 q -3 944 -3 924 l -3 1011 q 3 1037 -3 1033 q 30 1042 9 1042 l 538 1042 q 561 1035 556 1042 q 566 1008 566 1028 l 566 943 q 560 916 566 922 q 533 910 555 910 l 450 910 q 420 902 424 910 q 422 877 415 895 l 640 331 q 660 278 651 301 q 676 246 669 256 q 693 245 684 237 q 717 287 703 254 "},"W":{"ha":1715,"x_min":-3,"x_max":1719,"o":"m 635 347 l 810 781 q 824 815 819 801 q 820 851 828 828 l 807 890 q 797 906 803 902 q 774 910 791 910 l 703 910 q 681 916 685 910 q 677 942 677 922 l 677 1003 q 683 1035 677 1028 q 713 1042 688 1042 l 1110 1042 q 1138 1038 1127 1042 q 1149 1015 1149 1033 l 1149 948 q 1142 917 1149 925 q 1112 910 1135 910 l 1074 910 q 1041 904 1047 910 q 1042 878 1035 898 l 1185 412 q 1197 369 1192 393 q 1207 329 1201 346 q 1218 312 1212 312 q 1228 319 1223 312 q 1240 347 1233 327 l 1419 876 q 1425 903 1426 897 q 1394 910 1424 910 l 1321 910 q 1294 916 1300 910 q 1288 944 1288 922 l 1288 1004 q 1294 1035 1288 1028 q 1323 1042 1299 1042 l 1681 1042 q 1710 1038 1702 1042 q 1719 1011 1719 1033 l 1719 940 q 1713 915 1719 919 q 1686 910 1707 910 l 1597 910 q 1565 903 1571 910 q 1552 876 1558 896 l 1258 9 q 1246 -10 1252 -7 q 1217 -14 1240 -14 l 1147 -14 q 1118 -7 1123 -14 q 1106 17 1113 -1 l 936 519 q 922 568 928 540 q 909 617 916 597 q 892 638 901 638 q 868 606 881 638 l 624 17 q 612 -7 617 -1 q 580 -14 607 -14 l 513 -14 q 479 -8 487 -14 q 465 16 472 -2 l 159 877 q 143 904 151 899 q 106 910 135 910 l 27 910 q 2 915 8 910 q -3 939 -3 919 l -3 1008 q 4 1036 -3 1031 q 33 1042 11 1042 l 495 1042 q 528 1036 519 1042 q 538 1004 538 1030 l 538 943 q 532 916 538 922 q 504 910 526 910 l 442 910 q 411 905 418 910 q 410 880 403 899 l 567 414 q 580 368 575 393 q 592 326 585 344 q 606 308 598 308 q 621 318 615 308 q 635 347 628 328 "},"Ŵ":{"ha":1715,"x_min":-3,"x_max":1719,"o":"m 732 1156 l 701 1189 q 693 1200 693 1197 q 699 1211 692 1203 l 830 1366 q 844 1376 837 1374 q 867 1378 851 1378 l 960 1378 q 981 1375 974 1378 q 992 1366 987 1373 l 1126 1208 q 1130 1200 1131 1203 q 1124 1191 1129 1197 l 1086 1153 q 1076 1146 1078 1146 q 1064 1153 1073 1147 l 928 1253 q 894 1254 910 1267 l 757 1152 q 732 1156 745 1143 m 635 347 l 810 781 q 824 815 819 801 q 820 851 828 828 l 807 890 q 797 906 803 902 q 774 910 791 910 l 703 910 q 681 916 685 910 q 677 942 677 922 l 677 1003 q 683 1035 677 1028 q 713 1042 688 1042 l 1110 1042 q 1138 1038 1127 1042 q 1149 1015 1149 1033 l 1149 948 q 1142 917 1149 925 q 1112 910 1135 910 l 1074 910 q 1041 904 1047 910 q 1042 878 1035 898 l 1185 412 q 1197 369 1192 393 q 1207 329 1201 346 q 1218 312 1212 312 q 1228 319 1223 312 q 1240 347 1233 327 l 1419 876 q 1425 903 1426 897 q 1394 910 1424 910 l 1321 910 q 1294 916 1300 910 q 1288 944 1288 922 l 1288 1004 q 1294 1035 1288 1028 q 1323 1042 1299 1042 l 1681 1042 q 1710 1038 1702 1042 q 1719 1011 1719 1033 l 1719 940 q 1713 915 1719 919 q 1686 910 1707 910 l 1597 910 q 1565 903 1571 910 q 1552 876 1558 896 l 1258 9 q 1246 -10 1252 -7 q 1217 -14 1240 -14 l 1147 -14 q 1118 -7 1123 -14 q 1106 17 1113 -1 l 936 519 q 922 568 928 540 q 909 617 916 597 q 892 638 901 638 q 868 606 881 638 l 624 17 q 612 -7 617 -1 q 580 -14 607 -14 l 513 -14 q 479 -8 487 -14 q 465 16 472 -2 l 159 877 q 143 904 151 899 q 106 910 135 910 l 27 910 q 2 915 8 910 q -3 939 -3 919 l -3 1008 q 4 1036 -3 1031 q 33 1042 11 1042 l 495 1042 q 528 1036 519 1042 q 538 1004 538 1030 l 538 943 q 532 916 538 922 q 504 910 526 910 l 442 910 q 411 905 418 910 q 410 880 403 899 l 567 414 q 580 368 575 393 q 592 326 585 344 q 606 308 598 308 q 621 318 615 308 q 635 347 628 328 "},"Ẁ":{"ha":1715,"x_min":-3,"x_max":1719,"o":"m 917 1142 l 718 1251 q 677 1307 686 1269 q 696 1382 667 1344 q 740 1412 713 1404 q 796 1414 768 1419 q 840 1390 824 1408 l 988 1224 q 989 1199 1001 1211 l 938 1146 q 928 1138 932 1140 q 917 1142 924 1137 m 635 347 l 810 781 q 824 815 819 801 q 820 851 828 828 l 807 890 q 797 906 803 902 q 774 910 791 910 l 703 910 q 681 916 685 910 q 677 942 677 922 l 677 1003 q 683 1035 677 1028 q 713 1042 688 1042 l 1110 1042 q 1138 1038 1127 1042 q 1149 1015 1149 1033 l 1149 948 q 1142 917 1149 925 q 1112 910 1135 910 l 1074 910 q 1041 904 1047 910 q 1042 878 1035 898 l 1185 412 q 1197 369 1192 393 q 1207 329 1201 346 q 1218 312 1212 312 q 1228 319 1223 312 q 1240 347 1233 327 l 1419 876 q 1425 903 1426 897 q 1394 910 1424 910 l 1321 910 q 1294 916 1300 910 q 1288 944 1288 922 l 1288 1004 q 1294 1035 1288 1028 q 1323 1042 1299 1042 l 1681 1042 q 1710 1038 1702 1042 q 1719 1011 1719 1033 l 1719 940 q 1713 915 1719 919 q 1686 910 1707 910 l 1597 910 q 1565 903 1571 910 q 1552 876 1558 896 l 1258 9 q 1246 -10 1252 -7 q 1217 -14 1240 -14 l 1147 -14 q 1118 -7 1123 -14 q 1106 17 1113 -1 l 936 519 q 922 568 928 540 q 909 617 916 597 q 892 638 901 638 q 868 606 881 638 l 624 17 q 612 -7 617 -1 q 580 -14 607 -14 l 513 -14 q 479 -8 487 -14 q 465 16 472 -2 l 159 877 q 143 904 151 899 q 106 910 135 910 l 27 910 q 2 915 8 910 q -3 939 -3 919 l -3 1008 q 4 1036 -3 1031 q 33 1042 11 1042 l 495 1042 q 528 1036 519 1042 q 538 1004 538 1030 l 538 943 q 532 916 538 922 q 504 910 526 910 l 442 910 q 411 905 418 910 q 410 880 403 899 l 567 414 q 580 368 575 393 q 592 326 585 344 q 606 308 598 308 q 621 318 615 308 q 635 347 628 328 "},"Ẃ":{"ha":1715,"x_min":-3,"x_max":1719,"o":"m 885 1147 l 834 1199 q 834 1223 822 1212 l 983 1390 q 1028 1414 1000 1408 q 1084 1412 1056 1419 q 1127 1382 1112 1404 q 1147 1307 1156 1344 q 1105 1251 1138 1269 l 909 1144 q 896 1139 901 1138 q 885 1147 892 1140 m 635 347 l 810 781 q 824 815 819 801 q 820 851 828 828 l 807 890 q 797 906 803 902 q 774 910 791 910 l 703 910 q 681 916 685 910 q 677 942 677 922 l 677 1003 q 683 1035 677 1028 q 713 1042 688 1042 l 1110 1042 q 1138 1038 1127 1042 q 1149 1015 1149 1033 l 1149 948 q 1142 917 1149 925 q 1112 910 1135 910 l 1074 910 q 1041 904 1047 910 q 1042 878 1035 898 l 1185 412 q 1197 369 1192 393 q 1207 329 1201 346 q 1218 312 1212 312 q 1228 319 1223 312 q 1240 347 1233 327 l 1419 876 q 1425 903 1426 897 q 1394 910 1424 910 l 1321 910 q 1294 916 1300 910 q 1288 944 1288 922 l 1288 1004 q 1294 1035 1288 1028 q 1323 1042 1299 1042 l 1681 1042 q 1710 1038 1702 1042 q 1719 1011 1719 1033 l 1719 940 q 1713 915 1719 919 q 1686 910 1707 910 l 1597 910 q 1565 903 1571 910 q 1552 876 1558 896 l 1258 9 q 1246 -10 1252 -7 q 1217 -14 1240 -14 l 1147 -14 q 1118 -7 1123 -14 q 1106 17 1113 -1 l 936 519 q 922 568 928 540 q 909 617 916 597 q 892 638 901 638 q 868 606 881 638 l 624 17 q 612 -7 617 -1 q 580 -14 607 -14 l 513 -14 q 479 -8 487 -14 q 465 16 472 -2 l 159 877 q 143 904 151 899 q 106 910 135 910 l 27 910 q 2 915 8 910 q -3 939 -3 919 l -3 1008 q 4 1036 -3 1031 q 33 1042 11 1042 l 495 1042 q 528 1036 519 1042 q 538 1004 538 1030 l 538 943 q 532 916 538 922 q 504 910 526 910 l 442 910 q 411 905 418 910 q 410 880 403 899 l 567 414 q 580 368 575 393 q 592 326 585 344 q 606 308 598 308 q 621 318 615 308 q 635 347 628 328 "},"Ẅ":{"ha":1715,"x_min":-3,"x_max":1719,"o":"m 1063 1174 q 992 1203 1022 1174 q 963 1274 963 1233 q 992 1345 963 1315 q 1063 1374 1022 1374 q 1133 1345 1104 1374 q 1163 1274 1163 1315 q 1133 1203 1163 1233 q 1063 1174 1104 1174 m 757 1174 q 686 1203 716 1174 q 657 1274 657 1233 q 686 1345 657 1315 q 757 1374 716 1374 q 828 1345 799 1374 q 857 1274 857 1315 q 828 1203 857 1233 q 757 1174 799 1174 m 635 347 l 810 781 q 824 815 819 801 q 820 851 828 828 l 807 890 q 797 906 803 902 q 774 910 791 910 l 703 910 q 681 916 685 910 q 677 942 677 922 l 677 1003 q 683 1035 677 1028 q 713 1042 688 1042 l 1110 1042 q 1138 1038 1127 1042 q 1149 1015 1149 1033 l 1149 948 q 1142 917 1149 925 q 1112 910 1135 910 l 1074 910 q 1041 904 1047 910 q 1042 878 1035 898 l 1185 412 q 1197 369 1192 393 q 1207 329 1201 346 q 1218 312 1212 312 q 1228 319 1223 312 q 1240 347 1233 327 l 1419 876 q 1425 903 1426 897 q 1394 910 1424 910 l 1321 910 q 1294 916 1300 910 q 1288 944 1288 922 l 1288 1004 q 1294 1035 1288 1028 q 1323 1042 1299 1042 l 1681 1042 q 1710 1038 1702 1042 q 1719 1011 1719 1033 l 1719 940 q 1713 915 1719 919 q 1686 910 1707 910 l 1597 910 q 1565 903 1571 910 q 1552 876 1558 896 l 1258 9 q 1246 -10 1252 -7 q 1217 -14 1240 -14 l 1147 -14 q 1118 -7 1123 -14 q 1106 17 1113 -1 l 936 519 q 922 568 928 540 q 909 617 916 597 q 892 638 901 638 q 868 606 881 638 l 624 17 q 612 -7 617 -1 q 580 -14 607 -14 l 513 -14 q 479 -8 487 -14 q 465 16 472 -2 l 159 877 q 143 904 151 899 q 106 910 135 910 l 27 910 q 2 915 8 910 q -3 939 -3 919 l -3 1008 q 4 1036 -3 1031 q 33 1042 11 1042 l 495 1042 q 528 1036 519 1042 q 538 1004 538 1030 l 538 943 q 532 916 538 922 q 504 910 526 910 l 442 910 q 411 905 418 910 q 410 880 403 899 l 567 414 q 580 368 575 393 q 592 326 585 344 q 606 308 598 308 q 621 318 615 308 q 635 347 628 328 "},"Ẇ":{"ha":1715,"x_min":-3,"x_max":1719,"o":"m 913 1201 q 837 1233 869 1201 q 805 1309 805 1265 q 837 1386 805 1354 q 913 1418 869 1418 q 990 1386 958 1418 q 1022 1309 1022 1354 q 990 1233 1022 1265 q 913 1201 958 1201 m 635 347 l 810 781 q 824 815 819 801 q 820 851 828 828 l 807 890 q 797 906 803 902 q 774 910 791 910 l 703 910 q 681 916 685 910 q 677 942 677 922 l 677 1003 q 683 1035 677 1028 q 713 1042 688 1042 l 1110 1042 q 1138 1038 1127 1042 q 1149 1015 1149 1033 l 1149 948 q 1142 917 1149 925 q 1112 910 1135 910 l 1074 910 q 1041 904 1047 910 q 1042 878 1035 898 l 1185 412 q 1197 369 1192 393 q 1207 329 1201 346 q 1218 312 1212 312 q 1228 319 1223 312 q 1240 347 1233 327 l 1419 876 q 1425 903 1426 897 q 1394 910 1424 910 l 1321 910 q 1294 916 1300 910 q 1288 944 1288 922 l 1288 1004 q 1294 1035 1288 1028 q 1323 1042 1299 1042 l 1681 1042 q 1710 1038 1702 1042 q 1719 1011 1719 1033 l 1719 940 q 1713 915 1719 919 q 1686 910 1707 910 l 1597 910 q 1565 903 1571 910 q 1552 876 1558 896 l 1258 9 q 1246 -10 1252 -7 q 1217 -14 1240 -14 l 1147 -14 q 1118 -7 1123 -14 q 1106 17 1113 -1 l 936 519 q 922 568 928 540 q 909 617 916 597 q 892 638 901 638 q 868 606 881 638 l 624 17 q 612 -7 617 -1 q 580 -14 607 -14 l 513 -14 q 479 -8 487 -14 q 465 16 472 -2 l 159 877 q 143 904 151 899 q 106 910 135 910 l 27 910 q 2 915 8 910 q -3 939 -3 919 l -3 1008 q 4 1036 -3 1031 q 33 1042 11 1042 l 495 1042 q 528 1036 519 1042 q 538 1004 538 1030 l 538 943 q 532 916 538 922 q 504 910 526 910 l 442 910 q 411 905 418 910 q 410 880 403 899 l 567 414 q 580 368 575 393 q 592 326 585 344 q 606 308 598 308 q 621 318 615 308 q 635 347 628 328 "},"Ẉ":{"ha":1715,"x_min":-3,"x_max":1719,"o":"m 866 -334 q 790 -302 822 -334 q 758 -226 758 -270 q 790 -149 758 -181 q 866 -117 822 -117 q 943 -149 911 -117 q 974 -226 974 -181 q 943 -302 974 -270 q 866 -334 911 -334 m 635 347 l 810 781 q 824 815 819 801 q 820 851 828 828 l 807 890 q 797 906 803 902 q 774 910 791 910 l 703 910 q 681 916 685 910 q 677 942 677 922 l 677 1003 q 683 1035 677 1028 q 713 1042 688 1042 l 1110 1042 q 1138 1038 1127 1042 q 1149 1015 1149 1033 l 1149 948 q 1142 917 1149 925 q 1112 910 1135 910 l 1074 910 q 1041 904 1047 910 q 1042 878 1035 898 l 1185 412 q 1197 369 1192 393 q 1207 329 1201 346 q 1218 312 1212 312 q 1228 319 1223 312 q 1240 347 1233 327 l 1419 876 q 1425 903 1426 897 q 1394 910 1424 910 l 1321 910 q 1294 916 1300 910 q 1288 944 1288 922 l 1288 1004 q 1294 1035 1288 1028 q 1323 1042 1299 1042 l 1681 1042 q 1710 1038 1702 1042 q 1719 1011 1719 1033 l 1719 940 q 1713 915 1719 919 q 1686 910 1707 910 l 1597 910 q 1565 903 1571 910 q 1552 876 1558 896 l 1258 9 q 1246 -10 1252 -7 q 1217 -14 1240 -14 l 1147 -14 q 1118 -7 1123 -14 q 1106 17 1113 -1 l 936 519 q 922 568 928 540 q 909 617 916 597 q 892 638 901 638 q 868 606 881 638 l 624 17 q 612 -7 617 -1 q 580 -14 607 -14 l 513 -14 q 479 -8 487 -14 q 465 16 472 -2 l 159 877 q 143 904 151 899 q 106 910 135 910 l 27 910 q 2 915 8 910 q -3 939 -3 919 l -3 1008 q 4 1036 -3 1031 q 33 1042 11 1042 l 495 1042 q 528 1036 519 1042 q 538 1004 538 1030 l 538 943 q 532 916 538 922 q 504 910 526 910 l 442 910 q 411 905 418 910 q 410 880 403 899 l 567 414 q 580 368 575 393 q 592 326 585 344 q 606 308 598 308 q 621 318 615 308 q 635 347 628 328 "},"X":{"ha":1243,"x_min":7,"x_max":1236,"o":"m 7 33 l 7 103 q 11 126 7 121 q 33 132 16 132 l 130 132 q 165 137 156 132 q 185 155 173 142 l 465 474 q 489 507 485 496 q 486 530 494 518 q 460 562 478 541 l 194 883 q 175 903 183 897 q 140 910 167 910 l 70 910 q 42 915 49 910 q 35 942 35 920 l 35 1007 q 40 1035 35 1029 q 66 1042 44 1042 l 559 1042 q 583 1038 576 1042 q 590 1015 590 1034 l 590 938 q 586 915 590 921 q 566 910 583 910 l 484 910 q 459 907 465 910 q 458 898 454 904 q 469 883 462 892 l 632 684 q 662 662 653 658 q 692 690 671 665 l 852 884 q 864 906 868 901 q 824 910 860 910 l 760 910 q 735 914 742 910 q 729 936 729 917 l 729 1013 q 734 1036 729 1031 q 757 1042 739 1042 l 1171 1042 q 1193 1037 1188 1042 q 1198 1014 1198 1032 l 1198 936 q 1192 914 1198 919 q 1169 910 1187 910 l 1074 910 q 1044 906 1051 910 q 1026 891 1036 902 l 771 599 q 750 568 753 579 q 754 545 746 556 q 778 513 762 534 l 1074 158 q 1095 138 1087 144 q 1131 132 1103 132 l 1204 132 q 1229 127 1222 132 q 1236 104 1236 122 l 1236 28 q 1231 5 1236 10 q 1208 0 1226 0 l 711 0 q 687 4 693 0 q 681 25 681 8 l 681 105 q 686 127 681 122 q 707 132 691 132 l 774 132 q 803 141 806 132 q 788 163 799 151 l 610 388 q 581 414 590 413 q 551 390 573 415 l 363 164 q 351 140 349 147 q 390 132 352 132 l 447 132 q 472 126 465 132 q 479 102 479 121 l 479 39 q 472 8 479 16 q 444 0 465 0 l 34 0 q 11 7 15 0 q 7 33 7 13 "},"Y":{"ha":1160,"x_min":-7,"x_max":1167,"o":"m 326 24 l 326 102 q 332 127 326 122 q 356 132 338 132 l 450 132 q 474 138 469 132 q 479 163 479 143 l 479 349 q 475 393 479 378 q 460 424 471 407 l 150 881 q 131 904 139 899 q 94 910 124 910 l 20 910 q -2 915 3 910 q -7 937 -7 919 l -7 1004 q 1 1035 -7 1028 q 32 1042 9 1042 l 513 1042 q 541 1036 534 1042 q 549 1009 549 1031 l 549 941 q 544 916 549 922 q 519 910 539 910 l 442 910 q 410 903 415 910 q 417 878 404 896 l 600 606 q 624 577 616 584 q 639 578 631 570 q 663 608 647 587 l 848 878 q 857 905 864 900 q 822 910 851 910 l 741 910 q 714 915 720 910 q 708 940 708 920 l 708 1010 q 713 1036 708 1031 q 738 1042 718 1042 l 1139 1042 q 1161 1037 1156 1042 q 1167 1015 1167 1033 l 1167 934 q 1161 914 1167 917 q 1138 910 1155 910 l 1082 910 q 1040 901 1049 910 q 1019 875 1032 893 l 733 481 q 715 450 722 463 q 708 405 708 437 l 708 163 q 712 137 708 142 q 736 132 716 132 l 851 132 q 871 127 867 132 q 875 107 875 123 l 875 28 q 869 5 875 10 q 846 0 863 0 l 353 0 q 333 4 339 0 q 326 24 326 8 "},"Ý":{"ha":1160,"x_min":-7,"x_max":1167,"o":"m 600 1147 l 549 1199 q 549 1223 538 1212 l 699 1390 q 743 1414 715 1408 q 799 1412 771 1419 q 842 1382 827 1404 q 862 1307 871 1344 q 820 1251 853 1269 l 624 1144 q 611 1139 616 1138 q 600 1147 607 1140 m 326 24 l 326 102 q 332 127 326 122 q 356 132 338 132 l 450 132 q 474 138 469 132 q 479 163 479 143 l 479 349 q 475 393 479 378 q 460 424 471 407 l 150 881 q 131 904 139 899 q 94 910 124 910 l 20 910 q -2 915 3 910 q -7 937 -7 919 l -7 1004 q 1 1035 -7 1028 q 32 1042 9 1042 l 513 1042 q 541 1036 534 1042 q 549 1009 549 1031 l 549 941 q 544 916 549 922 q 519 910 539 910 l 442 910 q 410 903 415 910 q 417 878 404 896 l 600 606 q 624 577 616 584 q 639 578 631 570 q 663 608 647 587 l 848 878 q 857 905 864 900 q 822 910 851 910 l 741 910 q 714 915 720 910 q 708 940 708 920 l 708 1010 q 713 1036 708 1031 q 738 1042 718 1042 l 1139 1042 q 1161 1037 1156 1042 q 1167 1015 1167 1033 l 1167 934 q 1161 914 1167 917 q 1138 910 1155 910 l 1082 910 q 1040 901 1049 910 q 1019 875 1032 893 l 733 481 q 715 450 722 463 q 708 405 708 437 l 708 163 q 712 137 708 142 q 736 132 716 132 l 851 132 q 871 127 867 132 q 875 107 875 123 l 875 28 q 869 5 875 10 q 846 0 863 0 l 353 0 q 333 4 339 0 q 326 24 326 8 "},"Ŷ":{"ha":1160,"x_min":-7,"x_max":1167,"o":"m 447 1156 l 416 1189 q 408 1200 408 1197 q 415 1211 408 1203 l 545 1366 q 559 1376 552 1374 q 582 1378 567 1378 l 676 1378 q 696 1375 690 1378 q 708 1366 702 1373 l 841 1208 q 845 1200 847 1203 q 839 1191 844 1197 l 801 1153 q 791 1146 794 1146 q 779 1153 788 1147 l 644 1253 q 609 1254 626 1267 l 472 1152 q 447 1156 460 1143 m 326 24 l 326 102 q 332 127 326 122 q 356 132 338 132 l 450 132 q 474 138 469 132 q 479 163 479 143 l 479 349 q 475 393 479 378 q 460 424 471 407 l 150 881 q 131 904 139 899 q 94 910 124 910 l 20 910 q -2 915 3 910 q -7 937 -7 919 l -7 1004 q 1 1035 -7 1028 q 32 1042 9 1042 l 513 1042 q 541 1036 534 1042 q 549 1009 549 1031 l 549 941 q 544 916 549 922 q 519 910 539 910 l 442 910 q 410 903 415 910 q 417 878 404 896 l 600 606 q 624 577 616 584 q 639 578 631 570 q 663 608 647 587 l 848 878 q 857 905 864 900 q 822 910 851 910 l 741 910 q 714 915 720 910 q 708 940 708 920 l 708 1010 q 713 1036 708 1031 q 738 1042 718 1042 l 1139 1042 q 1161 1037 1156 1042 q 1167 1015 1167 1033 l 1167 934 q 1161 914 1167 917 q 1138 910 1155 910 l 1082 910 q 1040 901 1049 910 q 1019 875 1032 893 l 733 481 q 715 450 722 463 q 708 405 708 437 l 708 163 q 712 137 708 142 q 736 132 716 132 l 851 132 q 871 127 867 132 q 875 107 875 123 l 875 28 q 869 5 875 10 q 846 0 863 0 l 353 0 q 333 4 339 0 q 326 24 326 8 "},"Ÿ":{"ha":1160,"x_min":-7,"x_max":1167,"o":"m 778 1174 q 707 1203 737 1174 q 678 1274 678 1233 q 707 1345 678 1315 q 778 1374 737 1374 q 849 1345 819 1374 q 878 1274 878 1315 q 849 1203 878 1233 q 778 1174 819 1174 m 472 1174 q 402 1203 431 1174 q 372 1274 372 1233 q 402 1345 372 1315 q 472 1374 431 1374 q 543 1345 514 1374 q 572 1274 572 1315 q 543 1203 572 1233 q 472 1174 514 1174 m 326 24 l 326 102 q 332 127 326 122 q 356 132 338 132 l 450 132 q 474 138 469 132 q 479 163 479 143 l 479 349 q 475 393 479 378 q 460 424 471 407 l 150 881 q 131 904 139 899 q 94 910 124 910 l 20 910 q -2 915 3 910 q -7 937 -7 919 l -7 1004 q 1 1035 -7 1028 q 32 1042 9 1042 l 513 1042 q 541 1036 534 1042 q 549 1009 549 1031 l 549 941 q 544 916 549 922 q 519 910 539 910 l 442 910 q 410 903 415 910 q 417 878 404 896 l 600 606 q 624 577 616 584 q 639 578 631 570 q 663 608 647 587 l 848 878 q 857 905 864 900 q 822 910 851 910 l 741 910 q 714 915 720 910 q 708 940 708 920 l 708 1010 q 713 1036 708 1031 q 738 1042 718 1042 l 1139 1042 q 1161 1037 1156 1042 q 1167 1015 1167 1033 l 1167 934 q 1161 914 1167 917 q 1138 910 1155 910 l 1082 910 q 1040 901 1049 910 q 1019 875 1032 893 l 733 481 q 715 450 722 463 q 708 405 708 437 l 708 163 q 712 137 708 142 q 736 132 716 132 l 851 132 q 871 127 867 132 q 875 107 875 123 l 875 28 q 869 5 875 10 q 846 0 863 0 l 353 0 q 333 4 339 0 q 326 24 326 8 "},"Ỳ":{"ha":1160,"x_min":-7,"x_max":1167,"o":"m 632 1142 l 433 1251 q 392 1307 401 1269 q 411 1382 383 1344 q 456 1412 428 1404 q 511 1414 483 1419 q 555 1390 539 1408 l 703 1224 q 704 1199 716 1211 l 653 1146 q 643 1138 647 1140 q 632 1142 640 1137 m 326 24 l 326 102 q 332 127 326 122 q 356 132 338 132 l 450 132 q 474 138 469 132 q 479 163 479 143 l 479 349 q 475 393 479 378 q 460 424 471 407 l 150 881 q 131 904 139 899 q 94 910 124 910 l 20 910 q -2 915 3 910 q -7 937 -7 919 l -7 1004 q 1 1035 -7 1028 q 32 1042 9 1042 l 513 1042 q 541 1036 534 1042 q 549 1009 549 1031 l 549 941 q 544 916 549 922 q 519 910 539 910 l 442 910 q 410 903 415 910 q 417 878 404 896 l 600 606 q 624 577 616 584 q 639 578 631 570 q 663 608 647 587 l 848 878 q 857 905 864 900 q 822 910 851 910 l 741 910 q 714 915 720 910 q 708 940 708 920 l 708 1010 q 713 1036 708 1031 q 738 1042 718 1042 l 1139 1042 q 1161 1037 1156 1042 q 1167 1015 1167 1033 l 1167 934 q 1161 914 1167 917 q 1138 910 1155 910 l 1082 910 q 1040 901 1049 910 q 1019 875 1032 893 l 733 481 q 715 450 722 463 q 708 405 708 437 l 708 163 q 712 137 708 142 q 736 132 716 132 l 851 132 q 871 127 867 132 q 875 107 875 123 l 875 28 q 869 5 875 10 q 846 0 863 0 l 353 0 q 333 4 339 0 q 326 24 326 8 "},"Z":{"ha":1085,"x_min":49,"x_max":1028,"o":"m 135 1042 l 947 1042 q 973 1035 967 1042 q 979 1008 979 1029 l 979 929 q 971 884 979 899 q 949 855 963 870 l 372 209 q 335 174 356 190 q 314 146 314 158 q 321 136 314 140 q 348 132 328 132 l 688 132 q 815 156 768 132 q 885 235 863 181 q 910 380 907 290 q 915 409 910 401 q 942 417 919 417 l 998 417 q 1023 406 1019 417 q 1028 376 1028 394 l 1028 42 q 1020 7 1028 13 q 983 0 1013 0 l 85 0 q 56 5 63 0 q 49 33 49 10 l 49 115 q 54 154 49 143 q 72 178 60 165 l 669 845 q 694 873 681 860 q 707 897 707 885 q 656 910 707 910 l 431 910 q 305 885 351 910 q 239 811 259 861 q 216 682 219 760 q 211 657 215 660 q 184 653 206 653 l 124 653 q 101 658 105 653 q 97 681 97 663 l 97 1010 q 105 1038 97 1033 q 135 1042 112 1042 "},"Ź":{"ha":1085,"x_min":49,"x_max":1028,"o":"m 506 1147 l 456 1199 q 456 1223 444 1212 l 605 1390 q 649 1414 622 1408 q 705 1412 677 1419 q 749 1382 733 1404 q 768 1307 777 1344 q 726 1251 759 1269 l 531 1144 q 518 1139 522 1138 q 506 1147 513 1140 m 135 1042 l 947 1042 q 973 1035 967 1042 q 979 1008 979 1029 l 979 929 q 971 884 979 899 q 949 855 963 870 l 372 209 q 335 174 356 190 q 314 146 314 158 q 321 136 314 140 q 348 132 328 132 l 688 132 q 815 156 768 132 q 885 235 863 181 q 910 380 907 290 q 915 409 910 401 q 942 417 919 417 l 998 417 q 1023 406 1019 417 q 1028 376 1028 394 l 1028 42 q 1020 7 1028 13 q 983 0 1013 0 l 85 0 q 56 5 63 0 q 49 33 49 10 l 49 115 q 54 154 49 143 q 72 178 60 165 l 669 845 q 694 873 681 860 q 707 897 707 885 q 656 910 707 910 l 431 910 q 305 885 351 910 q 239 811 259 861 q 216 682 219 760 q 211 657 215 660 q 184 653 206 653 l 124 653 q 101 658 105 653 q 97 681 97 663 l 97 1010 q 105 1038 97 1033 q 135 1042 112 1042 "},"Ż":{"ha":1085,"x_min":49,"x_max":1028,"o":"m 535 1201 q 458 1233 490 1201 q 426 1309 426 1265 q 458 1386 426 1354 q 535 1418 490 1418 q 611 1386 580 1418 q 643 1309 643 1354 q 611 1233 643 1265 q 535 1201 580 1201 m 135 1042 l 947 1042 q 973 1035 967 1042 q 979 1008 979 1029 l 979 929 q 971 884 979 899 q 949 855 963 870 l 372 209 q 335 174 356 190 q 314 146 314 158 q 321 136 314 140 q 348 132 328 132 l 688 132 q 815 156 768 132 q 885 235 863 181 q 910 380 907 290 q 915 409 910 401 q 942 417 919 417 l 998 417 q 1023 406 1019 417 q 1028 376 1028 394 l 1028 42 q 1020 7 1028 13 q 983 0 1013 0 l 85 0 q 56 5 63 0 q 49 33 49 10 l 49 115 q 54 154 49 143 q 72 178 60 165 l 669 845 q 694 873 681 860 q 707 897 707 885 q 656 910 707 910 l 431 910 q 305 885 351 910 q 239 811 259 861 q 216 682 219 760 q 211 657 215 660 q 184 653 206 653 l 124 653 q 101 658 105 653 q 97 681 97 663 l 97 1010 q 105 1038 97 1033 q 135 1042 112 1042 "},"Ž":{"ha":1085,"x_min":49,"x_max":1028,"o":"m 446 1173 l 322 1322 q 316 1334 315 1329 q 324 1346 316 1339 l 356 1376 q 369 1384 365 1385 q 383 1376 373 1383 l 505 1290 q 532 1280 520 1280 q 559 1290 544 1279 l 685 1381 q 700 1386 694 1388 q 713 1376 705 1384 l 740 1349 q 750 1336 749 1340 q 743 1322 751 1331 l 617 1171 q 603 1159 610 1163 q 581 1156 597 1156 l 489 1156 q 463 1160 472 1156 q 446 1173 453 1165 m 135 1042 l 947 1042 q 973 1035 967 1042 q 979 1008 979 1029 l 979 929 q 971 884 979 899 q 949 855 963 870 l 372 209 q 335 174 356 190 q 314 146 314 158 q 321 136 314 140 q 348 132 328 132 l 688 132 q 815 156 768 132 q 885 235 863 181 q 910 380 907 290 q 915 409 910 401 q 942 417 919 417 l 998 417 q 1023 406 1019 417 q 1028 376 1028 394 l 1028 42 q 1020 7 1028 13 q 983 0 1013 0 l 85 0 q 56 5 63 0 q 49 33 49 10 l 49 115 q 54 154 49 143 q 72 178 60 165 l 669 845 q 694 873 681 860 q 707 897 707 885 q 656 910 707 910 l 431 910 q 305 885 351 910 q 239 811 259 861 q 216 682 219 760 q 211 657 215 660 q 184 653 206 653 l 124 653 q 101 658 105 653 q 97 681 97 663 l 97 1010 q 105 1038 97 1033 q 135 1042 112 1042 "},"Æ":{"ha":1851,"x_min":0,"x_max":1780,"o":"m 0 29 l 0 117 q 19 135 0 135 l 100 135 q 130 142 122 135 q 149 163 138 149 l 734 881 q 740 907 750 903 q 694 910 731 910 l 605 910 q 589 914 592 910 q 587 931 587 917 l 587 1022 q 591 1038 587 1034 q 606 1042 595 1042 l 1114 1042 q 1129 1038 1126 1042 q 1132 1022 1132 1035 l 1132 933 q 1129 915 1132 920 q 1113 910 1126 910 l 943 910 q 915 908 923 910 q 903 902 907 907 q 892 886 899 897 l 520 436 q 517 421 513 425 q 540 417 521 417 l 1010 417 l 996 306 l 442 306 q 413 298 423 306 q 392 278 403 291 l 303 169 q 294 144 290 153 q 321 135 298 135 l 419 135 q 436 132 431 135 q 441 115 441 128 l 441 22 q 438 3 441 6 q 419 0 435 0 l 35 0 q 8 4 15 0 q 0 29 0 8 m 907 910 l 815 910 q 791 916 796 910 q 787 941 787 923 l 787 1013 q 793 1037 787 1033 q 818 1042 799 1042 l 1733 1042 q 1760 1036 1755 1042 q 1766 1008 1766 1031 l 1766 701 q 1764 678 1766 683 q 1743 674 1762 674 l 1663 674 q 1644 681 1648 674 q 1640 701 1641 688 q 1620 824 1638 778 q 1559 890 1602 870 q 1440 910 1517 910 l 1204 910 q 1177 905 1185 910 q 1169 878 1169 899 l 1169 617 q 1173 590 1169 597 q 1194 582 1177 582 l 1242 582 q 1347 620 1311 582 q 1389 713 1383 658 q 1394 734 1391 728 q 1410 740 1398 740 l 1460 740 q 1483 735 1478 740 q 1488 713 1488 731 l 1488 345 q 1484 322 1488 328 q 1463 317 1480 317 l 1413 317 q 1395 323 1399 317 q 1388 347 1391 330 q 1366 414 1384 383 q 1317 463 1347 444 q 1246 481 1287 481 l 1198 481 q 1175 474 1182 481 q 1169 446 1169 466 l 1169 161 q 1175 136 1169 140 q 1203 132 1181 132 l 1426 132 q 1564 155 1515 132 q 1633 230 1613 177 q 1654 372 1653 282 q 1658 397 1655 392 q 1681 403 1662 403 l 1753 403 q 1775 398 1771 403 q 1780 375 1780 394 l 1780 26 q 1776 4 1780 8 q 1753 0 1772 0 l 818 0 q 793 3 800 0 q 787 25 787 6 l 787 111 q 791 130 787 127 q 812 132 796 132 l 906 132 q 934 137 929 132 q 940 166 940 142 l 940 882 q 933 906 940 902 q 907 910 927 910 "},"Ð":{"ha":1210,"x_min":44,"x_max":1148,"o":"m 79 604 l 602 604 q 623 600 619 604 q 627 581 627 596 l 627 512 q 623 491 627 497 q 601 486 619 486 l 82 486 q 58 491 63 486 q 53 510 53 495 l 53 581 q 58 599 53 594 q 79 604 63 604 m 44 24 l 44 105 q 49 127 44 122 q 69 132 53 132 l 173 132 q 193 138 190 132 q 197 162 197 144 l 197 877 q 192 903 197 897 q 168 910 188 910 l 81 910 q 51 915 58 910 q 44 939 44 919 l 44 1013 q 53 1037 44 1032 q 81 1042 62 1042 l 599 1042 q 848 1002 744 1042 q 1018 892 952 963 q 1116 727 1085 822 q 1148 521 1148 632 q 1115 315 1148 410 q 1013 149 1081 220 q 842 39 945 78 q 599 0 739 0 l 72 0 q 50 4 56 0 q 44 24 44 8 m 460 132 l 592 132 q 761 180 696 132 q 857 314 826 227 q 888 521 888 401 q 854 728 888 640 q 755 863 820 815 q 592 910 689 910 l 461 910 q 432 904 439 910 q 426 875 426 898 l 426 160 q 433 136 426 140 q 460 132 440 132 "},"Ø":{"ha":1208,"x_min":63,"x_max":1146,"o":"m 63 521 q 100 736 63 638 q 207 908 137 835 q 377 1022 277 981 q 604 1063 478 1063 q 831 1022 731 1063 q 1002 908 932 981 q 1109 736 1072 835 q 1146 521 1146 638 q 1107 306 1146 405 q 997 134 1069 208 q 825 20 925 60 q 604 -21 726 -21 q 377 20 478 -21 q 207 134 277 60 q 100 306 137 208 q 63 521 63 405 m 323 521 q 339 356 323 432 q 389 223 355 279 q 476 135 422 167 q 604 104 530 104 q 739 135 685 104 q 825 223 793 167 q 872 356 858 279 q 885 521 885 432 q 869 687 885 611 q 820 819 853 763 q 733 906 786 875 q 604 938 680 938 q 476 906 530 938 q 389 819 422 875 q 339 687 355 763 q 323 521 323 611 m 810 1153 l 866 1153 q 899 1148 894 1153 q 897 1124 905 1144 l 444 -112 q 429 -134 438 -129 q 396 -139 421 -139 l 347 -139 q 308 -133 315 -139 q 309 -106 301 -127 l 768 1128 q 781 1148 774 1144 q 810 1153 788 1153 "},"Þ":{"ha":1028,"x_min":52,"x_max":976,"o":"m 441 350 l 573 350 q 706 398 658 350 q 753 531 753 446 q 706 664 753 616 q 573 711 658 711 l 426 711 q 410 705 413 711 q 406 684 406 698 l 406 381 q 413 355 406 359 q 441 350 419 350 m 406 200 l 406 155 q 413 119 406 126 q 447 111 419 111 l 537 111 q 556 105 553 111 q 559 83 559 99 l 559 33 q 555 6 559 13 q 530 0 551 0 l 90 0 q 60 5 68 0 q 52 32 52 9 l 52 92 q 57 108 52 104 q 74 111 61 111 l 173 111 q 200 118 194 111 q 205 144 205 125 l 205 913 q 200 927 205 924 q 183 931 195 931 l 69 931 q 55 936 57 931 q 52 953 52 941 l 52 1017 q 57 1037 52 1033 q 78 1042 63 1042 l 522 1042 q 551 1037 543 1042 q 559 1010 559 1033 l 559 950 q 555 934 559 938 q 537 931 550 931 l 438 931 q 411 924 417 931 q 406 897 406 917 l 406 849 q 411 827 406 832 q 432 822 416 822 l 580 822 q 880 748 785 822 q 976 531 976 674 q 880 313 976 388 q 580 239 785 239 l 451 239 q 414 234 422 239 q 406 200 406 228 "},"Đ":{"ha":1142,"x_min":44,"x_max":1148,"o":"m 44 24 l 44 105 q 49 127 44 122 q 69 132 53 132 l 173 132 q 193 138 190 132 q 197 162 197 144 l 197 877 q 192 903 197 897 q 168 910 188 910 l 81 910 q 51 915 58 910 q 44 939 44 919 l 44 1013 q 53 1037 44 1032 q 81 1042 62 1042 l 599 1042 q 848 1002 744 1042 q 1018 892 952 963 q 1116 727 1085 822 q 1148 521 1148 632 q 1115 315 1148 410 q 1013 149 1081 220 q 842 39 945 78 q 599 0 739 0 l 72 0 q 50 4 56 0 q 44 24 44 8 m 460 132 l 592 132 q 761 180 696 132 q 857 314 826 227 q 888 521 888 401 q 854 728 888 640 q 755 863 820 815 q 592 910 689 910 l 461 910 q 432 904 439 910 q 426 875 426 898 l 426 160 q 433 136 426 140 q 460 132 440 132 m 79 604 l 602 604 q 623 600 619 604 q 627 581 627 596 l 627 512 q 623 491 627 497 q 601 486 619 486 l 82 486 q 58 491 63 486 q 53 510 53 495 l 53 581 q 58 599 53 594 q 79 604 63 604 "},"Ħ":{"ha":1316,"x_min":44,"x_max":1273,"o":"m 101 819 l 1218 819 q 1264 815 1255 819 q 1273 797 1273 811 l 1273 727 q 1265 707 1273 712 q 1214 701 1256 701 l 107 701 q 55 706 65 701 q 44 726 44 710 l 44 796 q 54 815 44 810 q 101 819 64 819 m 426 881 l 426 638 q 433 607 426 613 q 467 601 440 601 l 854 601 q 886 609 881 601 q 891 644 891 617 l 891 880 q 885 905 891 899 q 860 910 880 910 l 769 910 q 744 916 749 910 q 738 942 738 922 l 738 1006 q 744 1036 738 1030 q 773 1042 750 1042 l 1238 1042 q 1265 1037 1256 1042 q 1273 1012 1273 1032 l 1273 938 q 1267 915 1273 921 q 1242 910 1261 910 l 1153 910 q 1126 904 1132 910 q 1120 876 1120 898 l 1120 161 q 1125 138 1120 144 q 1147 132 1129 132 l 1242 132 q 1267 126 1260 132 q 1273 101 1273 121 l 1273 44 q 1265 7 1273 14 q 1228 0 1256 0 l 780 0 q 747 7 755 0 q 738 40 738 14 l 738 104 q 743 127 738 122 q 765 132 749 132 l 855 132 q 884 138 877 132 q 891 166 891 144 l 891 442 q 884 470 891 464 q 857 476 878 476 l 458 476 q 431 470 437 476 q 426 443 426 464 l 426 167 q 430 140 426 147 q 454 132 434 132 l 549 132 q 572 128 566 132 q 578 106 578 124 l 578 40 q 569 7 578 13 q 533 0 559 0 l 82 0 q 51 6 58 0 q 44 38 44 13 l 44 95 q 49 124 44 117 q 74 132 53 132 l 160 132 q 189 136 181 132 q 197 161 197 140 l 197 881 q 190 905 197 899 q 164 910 183 910 l 78 910 q 50 917 56 910 q 44 947 44 924 l 44 1009 q 53 1036 44 1031 q 82 1042 63 1042 l 537 1042 q 568 1036 558 1042 q 578 1007 578 1031 l 578 940 q 573 915 578 920 q 549 910 568 910 l 454 910 q 431 905 436 910 q 426 881 426 899 "},"Ĳ":{"ha":1576,"x_min":58,"x_max":1553,"o":"m 447 886 l 447 156 q 453 131 447 136 q 478 125 459 125 l 596 125 q 615 120 609 125 q 620 102 620 116 l 620 28 q 614 5 620 10 q 589 0 608 0 l 89 0 q 64 6 69 0 q 58 31 58 12 l 58 99 q 65 120 58 116 q 92 125 72 125 l 177 125 q 207 131 197 125 q 217 159 217 136 l 217 886 q 214 910 217 904 q 191 917 210 917 l 88 917 q 64 922 70 917 q 58 944 58 927 l 58 1013 q 62 1037 58 1033 q 85 1042 67 1042 l 589 1042 q 615 1036 609 1042 q 620 1010 620 1031 l 620 950 q 613 923 620 928 q 587 917 606 917 l 477 917 q 452 911 457 917 q 447 886 447 906 m 677 236 q 723 373 677 322 q 835 424 768 424 q 930 391 894 424 q 966 307 966 359 q 954 245 966 267 q 926 213 942 224 q 897 191 910 201 q 885 163 885 181 q 894 135 885 151 q 927 109 903 120 q 998 97 951 97 q 1085 120 1047 97 q 1144 195 1123 143 q 1165 333 1165 247 l 1165 869 q 1158 903 1165 896 q 1124 910 1151 910 l 992 910 q 963 915 970 910 q 956 944 956 921 l 956 1008 q 963 1036 956 1031 q 991 1042 969 1042 l 1522 1042 q 1547 1037 1540 1042 q 1553 1015 1553 1033 l 1553 936 q 1548 914 1553 919 q 1525 910 1543 910 l 1416 910 q 1391 903 1396 910 q 1387 875 1387 896 l 1387 375 q 1339 165 1387 253 q 1204 28 1292 76 q 998 -21 1117 -21 q 824 17 896 -21 q 715 115 753 56 q 677 236 677 174 "},"Ŀ":{"ha":1047,"x_min":44,"x_max":1002,"o":"m 644 688 q 661 751 644 722 q 707 796 678 779 q 769 813 735 813 q 832 796 803 813 q 877 751 860 779 q 894 688 894 722 q 877 625 894 653 q 832 580 860 597 q 769 563 803 563 q 707 580 735 563 q 661 625 678 597 q 644 688 644 653 m 167 910 l 67 910 q 48 915 52 910 q 44 935 44 919 l 44 1013 q 48 1036 44 1031 q 72 1042 53 1042 l 561 1042 q 586 1037 580 1042 q 592 1013 592 1033 l 592 938 q 586 915 592 919 q 562 910 579 910 l 457 910 q 432 906 439 910 q 426 883 426 901 l 426 163 q 432 138 426 143 q 457 132 438 132 l 641 132 q 779 157 726 132 q 856 240 831 183 q 883 392 881 297 q 887 412 884 408 q 906 417 890 417 l 975 417 q 996 413 990 417 q 1002 394 1002 410 l 1002 34 q 998 7 1002 13 q 973 0 994 0 l 74 0 q 50 5 56 0 q 44 29 44 10 l 44 108 q 47 127 44 122 q 63 132 50 132 l 162 132 q 190 138 183 132 q 197 165 197 143 l 197 879 q 191 904 197 899 q 167 910 186 910 "},"Ł":{"ha":1047,"x_min":44,"x_max":1002,"o":"m 79 511 l 603 791 q 620 799 614 797 q 626 779 626 801 l 626 703 q 623 680 626 685 q 610 667 621 674 l 83 385 q 68 379 73 380 q 63 399 63 378 l 63 479 q 66 501 63 495 q 79 511 70 506 m 167 910 l 67 910 q 48 915 52 910 q 44 935 44 919 l 44 1013 q 48 1036 44 1031 q 72 1042 53 1042 l 561 1042 q 586 1037 580 1042 q 592 1013 592 1033 l 592 938 q 586 915 592 919 q 562 910 579 910 l 457 910 q 432 906 439 910 q 426 883 426 901 l 426 163 q 432 138 426 143 q 457 132 438 132 l 641 132 q 779 157 726 132 q 856 240 831 183 q 883 392 881 297 q 887 412 884 408 q 906 417 890 417 l 975 417 q 996 413 990 417 q 1002 394 1002 410 l 1002 34 q 998 7 1002 13 q 973 0 994 0 l 74 0 q 50 5 56 0 q 44 29 44 10 l 44 108 q 47 127 44 122 q 63 132 50 132 l 162 132 q 190 138 183 132 q 197 165 197 143 l 197 879 q 191 904 197 899 q 167 910 186 910 "},"Ŋ":{"ha":1224,"x_min":46,"x_max":1120,"o":"m 172 910 l 70 910 q 50 915 54 910 q 46 936 46 920 l 46 1015 q 53 1037 46 1032 q 75 1042 60 1042 l 381 1042 q 403 1035 395 1042 q 412 1013 412 1028 l 412 917 q 418 890 412 891 q 436 901 424 888 q 496 956 463 928 q 570 1009 528 985 q 665 1048 612 1033 q 784 1063 717 1063 q 963 1028 888 1063 q 1080 928 1039 993 q 1120 773 1120 863 l 1120 -15 q 1099 -159 1120 -95 q 1038 -269 1078 -224 q 939 -337 997 -314 q 804 -361 881 -361 q 675 -338 731 -361 q 587 -273 619 -315 q 555 -176 555 -231 q 589 -89 555 -125 q 674 -53 624 -53 q 763 -83 729 -53 q 797 -153 797 -112 q 787 -199 797 -185 q 767 -219 777 -212 q 756 -237 756 -226 q 765 -259 756 -247 q 803 -272 774 -272 q 869 -248 847 -272 q 897 -183 890 -224 q 902 -92 904 -143 q 895 14 900 -42 q 891 121 891 69 l 891 765 q 842 894 891 847 q 717 942 794 942 q 610 922 663 942 q 517 865 558 901 q 450 782 475 829 q 426 681 426 735 l 426 160 q 431 138 426 144 q 453 132 436 132 l 552 132 q 573 128 567 132 q 578 108 578 124 l 578 24 q 572 4 578 8 q 551 0 565 0 l 67 0 q 49 5 52 0 q 46 26 46 10 l 46 106 q 51 127 46 123 q 72 132 56 132 l 167 132 q 191 135 185 132 q 197 156 197 139 l 197 888 q 192 906 197 903 q 172 910 187 910 "},"Œ":{"ha":1754,"x_min":56,"x_max":1682,"o":"m 743 1042 l 743 910 l 615 910 q 449 865 515 910 q 352 734 384 821 q 319 521 319 647 q 355 308 319 394 q 456 176 390 221 q 615 132 522 132 l 743 132 l 743 0 l 590 0 q 354 39 455 0 q 187 149 253 78 q 88 315 121 220 q 56 521 56 410 q 90 727 56 632 q 193 892 125 822 q 360 1002 260 963 q 590 1042 460 1042 l 743 1042 m 809 910 l 717 910 q 693 916 698 910 q 689 941 689 923 l 689 1013 q 695 1037 689 1033 q 720 1042 701 1042 l 1635 1042 q 1663 1036 1657 1042 q 1668 1008 1668 1031 l 1668 701 q 1666 678 1668 683 q 1645 674 1664 674 l 1565 674 q 1547 681 1550 674 q 1542 701 1543 688 q 1522 824 1540 778 q 1461 890 1504 870 q 1342 910 1419 910 l 1106 910 q 1079 905 1087 910 q 1071 878 1071 899 l 1071 617 q 1075 590 1071 597 q 1096 582 1079 582 l 1144 582 q 1249 620 1213 582 q 1291 713 1285 658 q 1297 734 1293 728 q 1313 740 1300 740 l 1363 740 q 1385 735 1380 740 q 1390 713 1390 731 l 1390 345 q 1386 322 1390 328 q 1365 317 1382 317 l 1315 317 q 1297 323 1301 317 q 1290 347 1293 330 q 1268 414 1286 383 q 1219 463 1249 444 q 1148 481 1189 481 l 1100 481 q 1077 474 1084 481 q 1071 446 1071 466 l 1071 161 q 1077 136 1071 140 q 1105 132 1083 132 l 1328 132 q 1466 155 1417 132 q 1535 230 1515 177 q 1556 372 1555 282 q 1560 397 1557 392 q 1583 403 1564 403 l 1655 403 q 1677 398 1673 403 q 1682 375 1682 394 l 1682 26 q 1678 4 1682 8 q 1656 0 1674 0 l 720 0 q 695 3 702 0 q 689 25 689 6 l 689 111 q 693 130 689 127 q 714 132 698 132 l 808 132 q 836 137 831 132 q 842 166 842 142 l 842 882 q 835 906 842 902 q 809 910 829 910 "},"Ŧ":{"ha":1101,"x_min":51,"x_max":1051,"o":"m 277 576 l 826 576 q 848 572 844 576 q 852 553 852 568 l 852 484 q 848 464 852 469 q 824 458 844 458 l 280 458 q 254 463 259 458 q 249 483 249 467 l 249 553 q 254 572 249 567 q 277 576 259 576 m 269 32 l 269 103 q 276 127 269 122 q 300 132 282 132 l 403 132 q 436 140 429 132 q 443 174 443 147 l 443 888 q 438 910 443 904 q 416 917 432 917 l 377 917 q 252 896 297 917 q 189 824 208 875 q 169 680 171 772 q 161 653 168 660 q 133 646 155 646 l 81 646 q 56 653 62 646 q 51 678 51 660 l 51 1003 q 55 1034 51 1026 q 83 1042 60 1042 l 1022 1042 q 1045 1035 1040 1042 q 1051 1009 1051 1028 l 1051 676 q 1044 651 1051 656 q 1016 646 1038 646 l 967 646 q 938 653 943 646 q 932 681 933 660 q 911 824 930 773 q 848 896 892 875 q 724 917 804 917 l 685 917 q 663 910 668 917 q 658 887 658 904 l 658 180 q 665 141 658 150 q 700 132 671 132 l 797 132 q 826 125 820 132 q 832 96 832 118 l 832 34 q 823 6 832 11 q 792 0 814 0 l 304 0 q 276 5 283 0 q 269 32 269 10 "},"ẞ":{"ha":1411,"x_min":31,"x_max":1359,"o":"m 729 240 q 749 183 729 209 q 801 138 769 157 q 873 109 834 119 q 950 99 912 99 q 1092 147 1040 99 q 1144 274 1144 195 q 1132 351 1144 313 q 1088 422 1121 389 q 990 478 1054 455 q 821 510 926 501 l 821 589 q 1076 560 972 589 q 1242 484 1179 531 q 1332 379 1304 436 q 1359 264 1359 322 q 1327 144 1359 197 q 1242 56 1296 92 q 1119 1 1188 20 q 977 -17 1051 -17 q 838 -2 903 -17 q 722 40 772 13 q 643 104 672 67 q 615 185 615 141 q 650 277 615 241 q 737 314 685 314 q 817 281 784 314 q 850 198 850 249 q 834 142 850 167 q 792 102 818 117 q 737 87 767 87 q 700 97 721 87 q 660 123 680 107 q 628 155 641 138 q 616 185 616 172 l 729 240 m 31 111 l 490 111 l 490 0 l 31 0 l 31 111 m 1029 556 q 992 563 1019 558 q 932 573 965 567 q 868 582 899 578 q 821 589 838 586 l 1063 867 q 997 907 1037 890 q 910 933 957 924 q 817 942 864 942 q 629 921 713 942 q 486 857 545 900 q 397 750 428 815 q 365 598 365 685 l 365 0 l 157 0 l 157 613 q 209 800 157 718 q 353 940 261 883 q 567 1026 445 997 q 828 1056 688 1056 q 1005 1039 922 1056 q 1152 997 1087 1022 q 1259 947 1217 972 q 1318 904 1302 922 l 1029 556 "},"Δ":{"ha":1257,"x_min":99,"x_max":1144,"o":"m 808 132 q 834 139 831 132 q 831 162 836 147 l 598 792 q 584 811 590 814 q 572 792 578 809 l 307 164 q 303 140 300 147 q 326 132 306 132 l 808 132 m 1100 0 l 136 0 q 106 7 113 0 q 105 27 99 14 l 544 1048 q 553 1060 549 1058 q 573 1063 558 1063 l 705 1063 q 727 1059 722 1063 q 737 1044 733 1055 l 1138 37 q 1138 9 1144 19 q 1100 0 1131 0 "},"Ω":{"ha":1136,"x_min":88,"x_max":1045,"o":"m 932 243 l 1045 243 l 1045 0 l 650 0 l 650 317 q 777 427 738 353 q 817 625 817 501 q 753 861 817 775 q 566 947 690 947 q 379 861 442 947 q 316 625 316 775 q 356 424 316 501 q 483 310 395 347 l 483 0 l 91 0 l 91 243 l 201 243 q 210 181 201 210 q 241 132 219 151 q 298 113 263 113 l 372 113 l 372 234 q 271 294 321 257 q 179 381 221 331 q 113 492 138 431 q 88 625 88 553 q 147 861 88 765 q 314 1006 206 957 q 566 1056 422 1056 q 819 1006 711 1056 q 986 861 926 957 q 1045 625 1045 765 q 1020 493 1045 553 q 953 383 995 432 q 862 298 912 334 q 761 240 812 262 l 761 113 l 835 113 q 892 132 871 113 q 923 181 913 151 q 932 243 932 210 "},"a":{"ha":870,"x_min":51,"x_max":892,"o":"m 51 171 q 97 297 51 243 q 229 382 143 351 q 435 412 315 412 l 492 412 q 507 415 504 412 q 510 430 510 417 l 510 510 q 498 582 510 551 q 458 628 485 612 q 388 644 431 644 q 343 640 364 644 q 309 627 322 635 q 296 610 296 619 q 303 594 296 601 q 319 576 311 588 q 327 535 327 565 q 294 467 327 492 q 216 441 262 441 q 134 463 168 441 q 99 535 99 485 q 130 625 99 588 q 210 688 160 663 q 322 724 260 713 q 447 736 384 736 q 604 707 544 736 q 691 625 664 678 q 719 499 719 572 l 719 144 q 730 113 719 123 q 755 103 740 103 q 785 111 769 103 q 815 144 800 119 q 831 149 822 156 l 883 117 q 887 101 892 112 q 844 44 871 70 q 782 2 818 18 q 701 -14 747 -14 l 700 -14 q 619 -1 649 -14 q 570 31 588 12 q 541 70 553 50 q 525 86 531 85 q 508 74 519 87 q 463 35 491 56 q 391 0 435 15 q 280 -14 347 -14 q 113 34 174 -14 q 51 171 51 81 m 286 195 q 314 124 286 147 q 384 101 342 101 q 476 143 442 101 q 510 265 510 184 l 510 319 q 497 333 510 333 l 458 333 q 363 315 401 333 q 306 266 325 297 q 286 195 286 235 "},"à":{"ha":870,"x_min":51,"x_max":892,"o":"m 438 822 l 240 932 q 198 987 208 950 q 217 1063 189 1024 q 262 1092 234 1085 q 317 1094 290 1100 q 361 1070 345 1089 l 510 904 q 510 879 522 892 l 459 826 q 450 819 453 820 q 438 822 446 817 m 51 171 q 97 297 51 243 q 229 382 143 351 q 435 412 315 412 l 492 412 q 507 415 504 412 q 510 430 510 417 l 510 510 q 498 582 510 551 q 458 628 485 612 q 388 644 431 644 q 343 640 364 644 q 309 627 322 635 q 296 610 296 619 q 303 594 296 601 q 319 576 311 588 q 327 535 327 565 q 294 467 327 492 q 216 441 262 441 q 134 463 168 441 q 99 535 99 485 q 130 625 99 588 q 210 688 160 663 q 322 724 260 713 q 447 736 384 736 q 604 707 544 736 q 691 625 664 678 q 719 499 719 572 l 719 144 q 730 113 719 123 q 755 103 740 103 q 785 111 769 103 q 815 144 800 119 q 831 149 822 156 l 883 117 q 887 101 892 112 q 844 44 871 70 q 782 2 818 18 q 701 -14 747 -14 l 700 -14 q 619 -1 649 -14 q 570 31 588 12 q 541 70 553 50 q 525 86 531 85 q 508 74 519 87 q 463 35 491 56 q 391 0 435 15 q 280 -14 347 -14 q 113 34 174 -14 q 51 171 51 81 m 286 195 q 314 124 286 147 q 384 101 342 101 q 476 143 442 101 q 510 265 510 184 l 510 319 q 497 333 510 333 l 458 333 q 363 315 401 333 q 306 266 325 297 q 286 195 286 235 "},"á":{"ha":870,"x_min":51,"x_max":892,"o":"m 406 827 l 356 880 q 356 903 344 892 l 505 1070 q 549 1094 522 1089 q 605 1092 577 1100 q 649 1063 633 1085 q 668 987 677 1024 q 626 932 659 950 l 431 824 q 418 819 422 819 q 406 827 413 820 m 51 171 q 97 297 51 243 q 229 382 143 351 q 435 412 315 412 l 492 412 q 507 415 504 412 q 510 430 510 417 l 510 510 q 498 582 510 551 q 458 628 485 612 q 388 644 431 644 q 343 640 364 644 q 309 627 322 635 q 296 610 296 619 q 303 594 296 601 q 319 576 311 588 q 327 535 327 565 q 294 467 327 492 q 216 441 262 441 q 134 463 168 441 q 99 535 99 485 q 130 625 99 588 q 210 688 160 663 q 322 724 260 713 q 447 736 384 736 q 604 707 544 736 q 691 625 664 678 q 719 499 719 572 l 719 144 q 730 113 719 123 q 755 103 740 103 q 785 111 769 103 q 815 144 800 119 q 831 149 822 156 l 883 117 q 887 101 892 112 q 844 44 871 70 q 782 2 818 18 q 701 -14 747 -14 l 700 -14 q 619 -1 649 -14 q 570 31 588 12 q 541 70 553 50 q 525 86 531 85 q 508 74 519 87 q 463 35 491 56 q 391 0 435 15 q 280 -14 347 -14 q 113 34 174 -14 q 51 171 51 81 m 286 195 q 314 124 286 147 q 384 101 342 101 q 476 143 442 101 q 510 265 510 184 l 510 319 q 497 333 510 333 l 458 333 q 363 315 401 333 q 306 266 325 297 q 286 195 286 235 "},"â":{"ha":870,"x_min":51,"x_max":892,"o":"m 253 837 l 222 869 q 214 880 215 877 q 221 892 214 883 l 351 1047 q 366 1057 358 1055 q 388 1058 373 1058 l 482 1058 q 502 1056 496 1058 q 514 1047 508 1053 l 647 889 q 652 881 653 884 q 645 872 651 877 l 608 834 q 597 827 600 826 q 585 833 594 827 l 450 934 q 415 935 432 947 l 278 833 q 253 837 267 824 m 51 171 q 97 297 51 243 q 229 382 143 351 q 435 412 315 412 l 492 412 q 507 415 504 412 q 510 430 510 417 l 510 510 q 498 582 510 551 q 458 628 485 612 q 388 644 431 644 q 343 640 364 644 q 309 627 322 635 q 296 610 296 619 q 303 594 296 601 q 319 576 311 588 q 327 535 327 565 q 294 467 327 492 q 216 441 262 441 q 134 463 168 441 q 99 535 99 485 q 130 625 99 588 q 210 688 160 663 q 322 724 260 713 q 447 736 384 736 q 604 707 544 736 q 691 625 664 678 q 719 499 719 572 l 719 144 q 730 113 719 123 q 755 103 740 103 q 785 111 769 103 q 815 144 800 119 q 831 149 822 156 l 883 117 q 887 101 892 112 q 844 44 871 70 q 782 2 818 18 q 701 -14 747 -14 l 700 -14 q 619 -1 649 -14 q 570 31 588 12 q 541 70 553 50 q 525 86 531 85 q 508 74 519 87 q 463 35 491 56 q 391 0 435 15 q 280 -14 347 -14 q 113 34 174 -14 q 51 171 51 81 m 286 195 q 314 124 286 147 q 384 101 342 101 q 476 143 442 101 q 510 265 510 184 l 510 319 q 497 333 510 333 l 458 333 q 363 315 401 333 q 306 266 325 297 q 286 195 286 235 "},"ã":{"ha":870,"x_min":51,"x_max":892,"o":"m 553 830 q 480 846 510 830 q 426 881 451 863 q 383 912 404 899 q 335 926 362 926 q 291 910 306 926 q 272 871 276 895 q 255 861 267 861 l 201 861 q 188 866 190 861 q 187 882 186 872 q 213 966 191 926 q 269 1030 235 1006 q 347 1055 304 1055 q 418 1039 391 1055 q 469 1003 446 1023 q 512 973 490 987 q 562 959 534 959 q 618 1008 609 959 q 623 1020 621 1016 q 635 1024 626 1024 l 691 1024 q 703 1020 701 1024 q 704 1008 705 1017 q 685 917 703 957 q 634 853 667 876 q 553 830 601 830 m 51 171 q 97 297 51 243 q 229 382 143 351 q 435 412 315 412 l 492 412 q 507 415 504 412 q 510 430 510 417 l 510 510 q 498 582 510 551 q 458 628 485 612 q 388 644 431 644 q 343 640 364 644 q 309 627 322 635 q 296 610 296 619 q 303 594 296 601 q 319 576 311 588 q 327 535 327 565 q 294 467 327 492 q 216 441 262 441 q 134 463 168 441 q 99 535 99 485 q 130 625 99 588 q 210 688 160 663 q 322 724 260 713 q 447 736 384 736 q 604 707 544 736 q 691 625 664 678 q 719 499 719 572 l 719 144 q 730 113 719 123 q 755 103 740 103 q 785 111 769 103 q 815 144 800 119 q 831 149 822 156 l 883 117 q 887 101 892 112 q 844 44 871 70 q 782 2 818 18 q 701 -14 747 -14 l 700 -14 q 619 -1 649 -14 q 570 31 588 12 q 541 70 553 50 q 525 86 531 85 q 508 74 519 87 q 463 35 491 56 q 391 0 435 15 q 280 -14 347 -14 q 113 34 174 -14 q 51 171 51 81 m 286 195 q 314 124 286 147 q 384 101 342 101 q 476 143 442 101 q 510 265 510 184 l 510 319 q 497 333 510 333 l 458 333 q 363 315 401 333 q 306 266 325 297 q 286 195 286 235 "},"ä":{"ha":870,"x_min":51,"x_max":892,"o":"m 584 854 q 514 884 543 854 q 484 954 484 913 q 514 1025 484 996 q 584 1055 543 1055 q 655 1025 626 1055 q 684 954 684 996 q 655 884 684 913 q 584 854 626 854 m 278 854 q 208 884 238 854 q 178 954 178 913 q 208 1025 178 996 q 278 1055 238 1055 q 349 1025 320 1055 q 378 954 378 996 q 349 884 378 913 q 278 854 320 854 m 51 171 q 97 297 51 243 q 229 382 143 351 q 435 412 315 412 l 492 412 q 507 415 504 412 q 510 430 510 417 l 510 510 q 498 582 510 551 q 458 628 485 612 q 388 644 431 644 q 343 640 364 644 q 309 627 322 635 q 296 610 296 619 q 303 594 296 601 q 319 576 311 588 q 327 535 327 565 q 294 467 327 492 q 216 441 262 441 q 134 463 168 441 q 99 535 99 485 q 130 625 99 588 q 210 688 160 663 q 322 724 260 713 q 447 736 384 736 q 604 707 544 736 q 691 625 664 678 q 719 499 719 572 l 719 144 q 730 113 719 123 q 755 103 740 103 q 785 111 769 103 q 815 144 800 119 q 831 149 822 156 l 883 117 q 887 101 892 112 q 844 44 871 70 q 782 2 818 18 q 701 -14 747 -14 l 700 -14 q 619 -1 649 -14 q 570 31 588 12 q 541 70 553 50 q 525 86 531 85 q 508 74 519 87 q 463 35 491 56 q 391 0 435 15 q 280 -14 347 -14 q 113 34 174 -14 q 51 171 51 81 m 286 195 q 314 124 286 147 q 384 101 342 101 q 476 143 442 101 q 510 265 510 184 l 510 319 q 497 333 510 333 l 458 333 q 363 315 401 333 q 306 266 325 297 q 286 195 286 235 "},"å":{"ha":870,"x_min":51,"x_max":892,"o":"m 432 833 q 355 854 389 833 q 302 908 322 874 q 283 982 283 942 q 302 1057 283 1023 q 355 1111 322 1091 q 432 1132 389 1132 q 510 1111 476 1132 q 563 1057 544 1091 q 581 982 581 1023 q 562 908 581 942 q 510 854 543 874 q 432 833 476 833 m 432 916 q 478 935 461 916 q 496 983 496 955 q 478 1033 496 1013 q 432 1053 461 1053 q 386 1033 403 1053 q 369 983 369 1013 q 386 935 369 955 q 432 916 403 916 m 51 171 q 97 297 51 243 q 229 382 143 351 q 435 412 315 412 l 492 412 q 507 415 504 412 q 510 430 510 417 l 510 510 q 498 582 510 551 q 458 628 485 612 q 388 644 431 644 q 343 640 364 644 q 309 627 322 635 q 296 610 296 619 q 303 594 296 601 q 319 576 311 588 q 327 535 327 565 q 294 467 327 492 q 216 441 262 441 q 134 463 168 441 q 99 535 99 485 q 130 625 99 588 q 210 688 160 663 q 322 724 260 713 q 447 736 384 736 q 604 707 544 736 q 691 625 664 678 q 719 499 719 572 l 719 144 q 730 113 719 123 q 755 103 740 103 q 785 111 769 103 q 815 144 800 119 q 831 149 822 156 l 883 117 q 887 101 892 112 q 844 44 871 70 q 782 2 818 18 q 701 -14 747 -14 l 700 -14 q 619 -1 649 -14 q 570 31 588 12 q 541 70 553 50 q 525 86 531 85 q 508 74 519 87 q 463 35 491 56 q 391 0 435 15 q 280 -14 347 -14 q 113 34 174 -14 q 51 171 51 81 m 286 195 q 314 124 286 147 q 384 101 342 101 q 476 143 442 101 q 510 265 510 184 l 510 319 q 497 333 510 333 l 458 333 q 363 315 401 333 q 306 266 325 297 q 286 195 286 235 "},"ā":{"ha":870,"x_min":51,"x_max":892,"o":"m 265 852 l 265 910 q 268 924 265 919 q 279 928 270 928 l 575 928 q 593 925 588 928 q 599 907 599 921 l 599 851 q 597 835 599 840 q 583 830 594 830 l 290 830 q 271 834 276 830 q 265 852 265 838 m 51 171 q 97 297 51 243 q 229 382 143 351 q 435 412 315 412 l 492 412 q 507 415 504 412 q 510 430 510 417 l 510 510 q 498 582 510 551 q 458 628 485 612 q 388 644 431 644 q 343 640 364 644 q 309 627 322 635 q 296 610 296 619 q 303 594 296 601 q 319 576 311 588 q 327 535 327 565 q 294 467 327 492 q 216 441 262 441 q 134 463 168 441 q 99 535 99 485 q 130 625 99 588 q 210 688 160 663 q 322 724 260 713 q 447 736 384 736 q 604 707 544 736 q 691 625 664 678 q 719 499 719 572 l 719 144 q 730 113 719 123 q 755 103 740 103 q 785 111 769 103 q 815 144 800 119 q 831 149 822 156 l 883 117 q 887 101 892 112 q 844 44 871 70 q 782 2 818 18 q 701 -14 747 -14 l 700 -14 q 619 -1 649 -14 q 570 31 588 12 q 541 70 553 50 q 525 86 531 85 q 508 74 519 87 q 463 35 491 56 q 391 0 435 15 q 280 -14 347 -14 q 113 34 174 -14 q 51 171 51 81 m 286 195 q 314 124 286 147 q 384 101 342 101 q 476 143 442 101 q 510 265 510 184 l 510 319 q 497 333 510 333 l 458 333 q 363 315 401 333 q 306 266 325 297 q 286 195 286 235 "},"ă":{"ha":870,"x_min":51,"x_max":892,"o":"m 432 826 q 296 880 335 826 q 256 1027 258 934 q 272 1040 256 1040 l 320 1040 q 333 1029 332 1040 q 359 975 336 996 q 432 955 381 955 q 503 973 480 955 q 532 1020 526 991 q 536 1035 535 1030 q 549 1040 537 1040 l 596 1040 q 609 1037 607 1040 q 610 1024 610 1034 q 567 880 607 933 q 432 826 528 826 m 51 171 q 97 297 51 243 q 229 382 143 351 q 435 412 315 412 l 492 412 q 507 415 504 412 q 510 430 510 417 l 510 510 q 498 582 510 551 q 458 628 485 612 q 388 644 431 644 q 343 640 364 644 q 309 627 322 635 q 296 610 296 619 q 303 594 296 601 q 319 576 311 588 q 327 535 327 565 q 294 467 327 492 q 216 441 262 441 q 134 463 168 441 q 99 535 99 485 q 130 625 99 588 q 210 688 160 663 q 322 724 260 713 q 447 736 384 736 q 604 707 544 736 q 691 625 664 678 q 719 499 719 572 l 719 144 q 730 113 719 123 q 755 103 740 103 q 785 111 769 103 q 815 144 800 119 q 831 149 822 156 l 883 117 q 887 101 892 112 q 844 44 871 70 q 782 2 818 18 q 701 -14 747 -14 l 700 -14 q 619 -1 649 -14 q 570 31 588 12 q 541 70 553 50 q 525 86 531 85 q 508 74 519 87 q 463 35 491 56 q 391 0 435 15 q 280 -14 347 -14 q 113 34 174 -14 q 51 171 51 81 m 286 195 q 314 124 286 147 q 384 101 342 101 q 476 143 442 101 q 510 265 510 184 l 510 319 q 497 333 510 333 l 458 333 q 363 315 401 333 q 306 266 325 297 q 286 195 286 235 "},"ą":{"ha":870,"x_min":51,"x_max":915,"o":"m 731 -274 q 612 -245 660 -274 q 564 -158 564 -217 q 585 -89 564 -120 q 637 -30 606 -57 q 703 20 669 -3 q 765 61 738 42 q 791 66 777 69 q 809 58 805 63 q 824 40 822 47 q 817 24 826 33 q 780 -16 801 6 q 743 -62 759 -37 q 728 -116 728 -87 q 744 -159 728 -142 q 790 -175 760 -175 q 833 -164 816 -175 q 860 -140 850 -153 q 881 -135 871 -126 l 908 -156 q 915 -164 915 -160 q 910 -175 915 -167 q 848 -243 890 -213 q 731 -274 806 -274 m 51 171 q 97 297 51 243 q 229 382 143 351 q 435 412 315 412 l 492 412 q 507 415 504 412 q 510 430 510 417 l 510 510 q 498 582 510 551 q 458 628 485 612 q 388 644 431 644 q 343 640 364 644 q 309 627 322 635 q 296 610 296 619 q 303 594 296 601 q 319 576 311 588 q 327 535 327 565 q 294 467 327 492 q 216 441 262 441 q 134 463 168 441 q 99 535 99 485 q 130 625 99 588 q 210 688 160 663 q 322 724 260 713 q 447 736 384 736 q 604 707 544 736 q 691 625 664 678 q 719 499 719 572 l 719 144 q 730 113 719 123 q 755 103 740 103 q 785 111 769 103 q 815 144 800 119 q 831 149 822 156 l 883 117 q 887 101 892 112 q 844 44 871 70 q 782 2 818 18 q 701 -14 747 -14 l 700 -14 q 619 -1 649 -14 q 570 31 588 12 q 541 70 553 50 q 525 86 531 85 q 508 74 519 87 q 463 35 491 56 q 391 0 435 15 q 280 -14 347 -14 q 113 34 174 -14 q 51 171 51 81 m 286 195 q 314 124 286 147 q 384 101 342 101 q 476 143 442 101 q 510 265 510 184 l 510 319 q 497 333 510 333 l 458 333 q 363 315 401 333 q 306 266 325 297 q 286 195 286 235 "},"b":{"ha":956,"x_min":33,"x_max":906,"o":"m 367 361 q 387 230 367 289 q 444 135 408 171 q 531 100 481 100 q 609 135 575 100 q 664 230 644 171 q 683 361 683 289 q 664 493 683 433 q 609 587 644 552 q 531 622 575 622 q 444 587 481 622 q 387 493 408 552 q 367 361 367 433 m 51 972 q 37 976 40 972 q 33 991 33 980 l 33 1067 q 37 1080 33 1077 q 49 1083 40 1083 l 344 1083 q 361 1081 356 1083 q 367 1067 367 1078 l 367 628 q 368 608 367 610 q 376 613 370 606 q 465 707 413 672 q 597 742 517 742 q 753 697 683 742 q 864 568 823 653 q 906 361 906 483 q 863 154 906 240 q 748 24 819 69 q 590 -21 676 -21 q 464 10 514 -21 q 380 97 414 40 q 370 107 373 110 q 367 82 367 105 l 367 25 q 361 6 367 11 q 342 0 356 0 l 51 0 q 37 3 40 0 q 33 18 33 6 l 33 94 q 38 108 33 106 q 53 111 43 111 l 139 111 q 155 115 152 111 q 158 132 158 119 l 158 956 q 145 972 158 972 l 51 972 "},"c":{"ha":810,"x_min":49,"x_max":760,"o":"m 49 354 q 74 503 49 433 q 149 627 99 573 q 273 712 199 681 q 443 743 347 743 q 613 713 542 743 q 722 632 684 682 q 760 523 760 582 q 720 425 760 458 q 630 392 681 392 q 543 422 576 392 q 509 501 509 452 q 522 548 509 531 q 547 575 535 564 q 560 599 560 585 q 533 634 560 621 q 464 647 507 647 q 363 610 403 647 q 302 510 323 574 q 282 368 282 447 q 297 231 282 296 q 347 126 312 167 q 444 85 382 85 q 554 122 511 85 q 624 225 597 160 q 632 237 627 234 q 650 240 638 240 l 740 240 q 757 237 754 240 q 757 224 760 234 q 690 90 735 144 q 578 7 644 35 q 427 -21 512 -21 q 214 31 298 -21 q 90 168 131 83 q 49 354 49 253 "},"ç":{"ha":810,"x_min":49,"x_max":760,"o":"m 301 -364 l 301 -324 q 306 -309 301 -312 q 322 -306 312 -306 q 401 -291 365 -302 q 437 -250 437 -280 q 415 -213 437 -226 q 361 -194 394 -200 q 297 -186 328 -189 q 274 -180 277 -184 q 278 -166 272 -175 l 387 -15 q 393 -9 390 -10 q 404 -8 396 -8 l 456 -8 q 473 -11 472 -8 q 468 -22 474 -14 l 420 -90 q 413 -106 411 -102 q 433 -110 415 -109 q 533 -144 496 -115 q 570 -232 570 -174 q 547 -309 570 -280 q 485 -355 523 -339 q 403 -377 447 -371 q 318 -384 359 -383 q 301 -364 301 -385 m 49 354 q 74 503 49 433 q 149 627 99 573 q 273 712 199 681 q 443 743 347 743 q 613 713 542 743 q 722 632 684 682 q 760 523 760 582 q 720 425 760 458 q 630 392 681 392 q 543 422 576 392 q 509 501 509 452 q 522 548 509 531 q 547 575 535 564 q 560 599 560 585 q 533 634 560 621 q 464 647 507 647 q 363 610 403 647 q 302 510 323 574 q 282 368 282 447 q 297 231 282 296 q 347 126 312 167 q 444 85 382 85 q 554 122 511 85 q 624 225 597 160 q 632 237 627 234 q 650 240 638 240 l 740 240 q 757 237 754 240 q 757 224 760 234 q 690 90 735 144 q 578 7 644 35 q 427 -21 512 -21 q 214 31 298 -21 q 90 168 131 83 q 49 354 49 253 "},"ć":{"ha":810,"x_min":49,"x_max":760,"o":"m 416 827 l 365 880 q 365 903 353 892 l 515 1070 q 559 1094 531 1089 q 615 1092 587 1100 q 658 1063 643 1085 q 678 987 687 1024 q 636 932 669 950 l 440 824 q 427 819 432 819 q 416 827 423 820 m 49 354 q 74 503 49 433 q 149 627 99 573 q 273 712 199 681 q 443 743 347 743 q 613 713 542 743 q 722 632 684 682 q 760 523 760 582 q 720 425 760 458 q 630 392 681 392 q 543 422 576 392 q 509 501 509 452 q 522 548 509 531 q 547 575 535 564 q 560 599 560 585 q 533 634 560 621 q 464 647 507 647 q 363 610 403 647 q 302 510 323 574 q 282 368 282 447 q 297 231 282 296 q 347 126 312 167 q 444 85 382 85 q 554 122 511 85 q 624 225 597 160 q 632 237 627 234 q 650 240 638 240 l 740 240 q 757 237 754 240 q 757 224 760 234 q 690 90 735 144 q 578 7 644 35 q 427 -21 512 -21 q 214 31 298 -21 q 90 168 131 83 q 49 354 49 253 "},"ĉ":{"ha":810,"x_min":49,"x_max":760,"o":"m 263 837 l 232 869 q 224 880 224 877 q 231 892 224 883 l 361 1047 q 375 1057 368 1055 q 398 1058 383 1058 l 492 1058 q 512 1056 506 1058 q 524 1047 518 1053 l 657 889 q 661 881 663 884 q 655 872 660 877 l 617 834 q 607 827 610 826 q 595 833 604 827 l 460 934 q 425 935 442 947 l 288 833 q 263 837 276 824 m 49 354 q 74 503 49 433 q 149 627 99 573 q 273 712 199 681 q 443 743 347 743 q 613 713 542 743 q 722 632 684 682 q 760 523 760 582 q 720 425 760 458 q 630 392 681 392 q 543 422 576 392 q 509 501 509 452 q 522 548 509 531 q 547 575 535 564 q 560 599 560 585 q 533 634 560 621 q 464 647 507 647 q 363 610 403 647 q 302 510 323 574 q 282 368 282 447 q 297 231 282 296 q 347 126 312 167 q 444 85 382 85 q 554 122 511 85 q 624 225 597 160 q 632 237 627 234 q 650 240 638 240 l 740 240 q 757 237 754 240 q 757 224 760 234 q 690 90 735 144 q 578 7 644 35 q 427 -21 512 -21 q 214 31 298 -21 q 90 168 131 83 q 49 354 49 253 "},"ċ":{"ha":810,"x_min":49,"x_max":760,"o":"m 444 881 q 368 914 400 881 q 336 990 336 946 q 368 1067 336 1035 q 444 1099 400 1099 q 521 1067 490 1099 q 553 990 553 1035 q 521 914 553 946 q 444 881 490 881 m 49 354 q 74 503 49 433 q 149 627 99 573 q 273 712 199 681 q 443 743 347 743 q 613 713 542 743 q 722 632 684 682 q 760 523 760 582 q 720 425 760 458 q 630 392 681 392 q 543 422 576 392 q 509 501 509 452 q 522 548 509 531 q 547 575 535 564 q 560 599 560 585 q 533 634 560 621 q 464 647 507 647 q 363 610 403 647 q 302 510 323 574 q 282 368 282 447 q 297 231 282 296 q 347 126 312 167 q 444 85 382 85 q 554 122 511 85 q 624 225 597 160 q 632 237 627 234 q 650 240 638 240 l 740 240 q 757 237 754 240 q 757 224 760 234 q 690 90 735 144 q 578 7 644 35 q 427 -21 512 -21 q 214 31 298 -21 q 90 168 131 83 q 49 354 49 253 "},"č":{"ha":810,"x_min":49,"x_max":760,"o":"m 356 853 l 232 1002 q 225 1015 225 1010 q 233 1026 226 1019 l 265 1057 q 278 1064 274 1065 q 293 1056 283 1063 l 415 971 q 442 960 430 960 q 469 970 454 960 l 595 1062 q 609 1066 604 1068 q 623 1056 615 1065 l 650 1029 q 660 1016 659 1021 q 653 1003 661 1012 l 526 851 q 513 840 519 843 q 490 837 506 837 l 399 837 q 372 841 381 837 q 356 853 363 845 m 49 354 q 74 503 49 433 q 149 627 99 573 q 273 712 199 681 q 443 743 347 743 q 613 713 542 743 q 722 632 684 682 q 760 523 760 582 q 720 425 760 458 q 630 392 681 392 q 543 422 576 392 q 509 501 509 452 q 522 548 509 531 q 547 575 535 564 q 560 599 560 585 q 533 634 560 621 q 464 647 507 647 q 363 610 403 647 q 302 510 323 574 q 282 368 282 447 q 297 231 282 296 q 347 126 312 167 q 444 85 382 85 q 554 122 511 85 q 624 225 597 160 q 632 237 627 234 q 650 240 638 240 l 740 240 q 757 237 754 240 q 757 224 760 234 q 690 90 735 144 q 578 7 644 35 q 427 -21 512 -21 q 214 31 298 -21 q 90 168 131 83 q 49 354 49 253 "},"d":{"ha":956,"x_min":52,"x_max":924,"o":"m 274 360 q 294 229 274 288 q 348 135 314 170 q 427 99 383 99 q 513 135 476 99 q 570 229 550 170 q 591 360 591 288 q 570 492 591 433 q 513 586 550 551 q 427 622 476 622 q 348 586 383 622 q 294 492 314 551 q 274 360 274 433 m 52 360 q 95 567 52 482 q 210 697 138 653 q 367 742 281 742 q 495 711 442 742 q 578 625 547 680 q 589 616 587 611 q 591 648 591 620 l 591 954 q 587 969 591 967 q 571 972 583 972 l 485 972 q 469 976 472 972 q 466 992 466 980 l 466 1064 q 471 1080 466 1077 q 490 1083 476 1083 l 774 1083 q 793 1080 787 1083 q 799 1063 799 1076 l 799 138 q 804 116 799 120 q 826 111 809 111 l 906 111 q 921 107 918 111 q 924 91 924 103 l 924 22 q 920 4 924 8 q 902 0 917 0 l 614 0 q 595 5 599 0 q 591 25 591 10 l 591 85 q 587 105 591 100 q 574 94 583 109 q 488 10 538 40 q 360 -21 438 -21 q 205 24 274 -21 q 93 154 135 69 q 52 360 52 239 "},"ď":{"ha":1117,"x_min":52,"x_max":1256,"o":"m 972 1036 q 991 1101 972 1073 q 1042 1144 1010 1129 q 1110 1160 1074 1160 q 1216 1114 1175 1160 q 1256 974 1256 1069 q 1234 871 1256 920 q 1176 783 1213 822 q 1094 720 1139 744 q 1004 690 1050 696 q 988 692 993 689 q 983 707 983 694 l 983 763 q 988 777 983 774 q 1001 781 992 780 q 1070 806 1038 785 q 1126 857 1103 827 q 1153 919 1149 888 q 1151 926 1155 926 q 1141 923 1147 926 q 1118 915 1131 917 q 1088 913 1105 913 q 1004 947 1035 913 q 972 1036 972 981 m 274 360 q 294 229 274 288 q 348 135 314 170 q 427 99 383 99 q 513 135 476 99 q 570 229 550 170 q 591 360 591 288 q 570 492 591 433 q 513 586 550 551 q 427 622 476 622 q 348 586 383 622 q 294 492 314 551 q 274 360 274 433 m 52 360 q 95 567 52 482 q 210 697 138 653 q 367 742 281 742 q 495 711 442 742 q 578 625 547 680 q 589 616 587 611 q 591 648 591 620 l 591 954 q 587 969 591 967 q 571 972 583 972 l 485 972 q 469 976 472 972 q 466 992 466 980 l 466 1064 q 471 1080 466 1077 q 490 1083 476 1083 l 774 1083 q 793 1080 787 1083 q 799 1063 799 1076 l 799 138 q 804 116 799 120 q 826 111 809 111 l 906 111 q 921 107 918 111 q 924 91 924 103 l 924 22 q 920 4 924 8 q 902 0 917 0 l 614 0 q 595 5 599 0 q 591 25 591 10 l 591 85 q 587 105 591 100 q 574 94 583 109 q 488 10 538 40 q 360 -21 438 -21 q 205 24 274 -21 q 93 154 135 69 q 52 360 52 239 "},"e":{"ha":816,"x_min":49,"x_max":765,"o":"m 49 347 q 91 548 49 458 q 217 690 133 638 q 427 743 301 743 q 570 719 511 743 q 667 655 629 695 q 726 564 705 614 q 756 461 748 514 q 765 362 765 409 q 760 342 765 347 q 740 338 756 338 l 293 338 q 276 334 280 338 q 274 318 273 331 q 292 202 276 255 q 344 117 308 149 q 441 85 381 85 q 552 122 508 85 q 622 224 595 158 q 628 236 625 231 q 644 240 632 240 l 738 240 q 753 237 750 240 q 754 224 756 234 q 688 90 734 144 q 574 7 642 35 q 417 -21 506 -21 q 213 31 295 -21 q 90 166 131 82 q 49 347 49 250 m 295 440 l 531 440 q 548 442 545 440 q 550 455 551 444 q 541 519 549 486 q 518 581 533 553 q 479 626 503 609 q 423 644 456 644 q 343 618 374 644 q 295 550 311 592 q 276 461 279 508 q 278 444 276 449 q 295 440 280 440 "},"è":{"ha":816,"x_min":49,"x_max":765,"o":"m 430 822 l 231 932 q 190 987 199 950 q 209 1063 181 1024 q 253 1092 226 1085 q 309 1094 281 1100 q 353 1070 337 1089 l 501 904 q 502 879 514 892 l 451 826 q 441 819 445 820 q 430 822 438 817 m 49 347 q 91 548 49 458 q 217 690 133 638 q 427 743 301 743 q 570 719 511 743 q 667 655 629 695 q 726 564 705 614 q 756 461 748 514 q 765 362 765 409 q 760 342 765 347 q 740 338 756 338 l 293 338 q 276 334 280 338 q 274 318 273 331 q 292 202 276 255 q 344 117 308 149 q 441 85 381 85 q 552 122 508 85 q 622 224 595 158 q 628 236 625 231 q 644 240 632 240 l 738 240 q 753 237 750 240 q 754 224 756 234 q 688 90 734 144 q 574 7 642 35 q 417 -21 506 -21 q 213 31 295 -21 q 90 166 131 82 q 49 347 49 250 m 295 440 l 531 440 q 548 442 545 440 q 550 455 551 444 q 541 519 549 486 q 518 581 533 553 q 479 626 503 609 q 423 644 456 644 q 343 618 374 644 q 295 550 311 592 q 276 461 279 508 q 278 444 276 449 q 295 440 280 440 "},"é":{"ha":816,"x_min":49,"x_max":765,"o":"m 398 827 l 347 880 q 347 903 335 892 l 497 1070 q 541 1094 513 1089 q 597 1092 569 1100 q 640 1063 625 1085 q 660 987 669 1024 q 618 932 651 950 l 422 824 q 409 819 414 819 q 398 827 405 820 m 49 347 q 91 548 49 458 q 217 690 133 638 q 427 743 301 743 q 570 719 511 743 q 667 655 629 695 q 726 564 705 614 q 756 461 748 514 q 765 362 765 409 q 760 342 765 347 q 740 338 756 338 l 293 338 q 276 334 280 338 q 274 318 273 331 q 292 202 276 255 q 344 117 308 149 q 441 85 381 85 q 552 122 508 85 q 622 224 595 158 q 628 236 625 231 q 644 240 632 240 l 738 240 q 753 237 750 240 q 754 224 756 234 q 688 90 734 144 q 574 7 642 35 q 417 -21 506 -21 q 213 31 295 -21 q 90 166 131 82 q 49 347 49 250 m 295 440 l 531 440 q 548 442 545 440 q 550 455 551 444 q 541 519 549 486 q 518 581 533 553 q 479 626 503 609 q 423 644 456 644 q 343 618 374 644 q 295 550 311 592 q 276 461 279 508 q 278 444 276 449 q 295 440 280 440 "},"ê":{"ha":816,"x_min":49,"x_max":765,"o":"m 245 837 l 214 869 q 206 880 206 877 q 213 892 206 883 l 343 1047 q 357 1057 350 1055 q 380 1058 365 1058 l 474 1058 q 494 1056 488 1058 q 506 1047 500 1053 l 639 889 q 643 881 644 884 q 637 872 642 877 l 599 834 q 589 827 592 826 q 577 833 586 827 l 442 934 q 407 935 424 947 l 270 833 q 245 837 258 824 m 49 347 q 91 548 49 458 q 217 690 133 638 q 427 743 301 743 q 570 719 511 743 q 667 655 629 695 q 726 564 705 614 q 756 461 748 514 q 765 362 765 409 q 760 342 765 347 q 740 338 756 338 l 293 338 q 276 334 280 338 q 274 318 273 331 q 292 202 276 255 q 344 117 308 149 q 441 85 381 85 q 552 122 508 85 q 622 224 595 158 q 628 236 625 231 q 644 240 632 240 l 738 240 q 753 237 750 240 q 754 224 756 234 q 688 90 734 144 q 574 7 642 35 q 417 -21 506 -21 q 213 31 295 -21 q 90 166 131 82 q 49 347 49 250 m 295 440 l 531 440 q 548 442 545 440 q 550 455 551 444 q 541 519 549 486 q 518 581 533 553 q 479 626 503 609 q 423 644 456 644 q 343 618 374 644 q 295 550 311 592 q 276 461 279 508 q 278 444 276 449 q 295 440 280 440 "},"ë":{"ha":816,"x_min":49,"x_max":765,"o":"m 576 854 q 505 884 535 854 q 476 954 476 913 q 505 1025 476 996 q 576 1055 535 1055 q 647 1025 617 1055 q 676 954 676 996 q 647 884 676 913 q 576 854 617 854 m 270 854 q 200 884 229 854 q 170 954 170 913 q 200 1025 170 996 q 270 1055 229 1055 q 341 1025 312 1055 q 370 954 370 996 q 341 884 370 913 q 270 854 312 854 m 49 347 q 91 548 49 458 q 217 690 133 638 q 427 743 301 743 q 570 719 511 743 q 667 655 629 695 q 726 564 705 614 q 756 461 748 514 q 765 362 765 409 q 760 342 765 347 q 740 338 756 338 l 293 338 q 276 334 280 338 q 274 318 273 331 q 292 202 276 255 q 344 117 308 149 q 441 85 381 85 q 552 122 508 85 q 622 224 595 158 q 628 236 625 231 q 644 240 632 240 l 738 240 q 753 237 750 240 q 754 224 756 234 q 688 90 734 144 q 574 7 642 35 q 417 -21 506 -21 q 213 31 295 -21 q 90 166 131 82 q 49 347 49 250 m 295 440 l 531 440 q 548 442 545 440 q 550 455 551 444 q 541 519 549 486 q 518 581 533 553 q 479 626 503 609 q 423 644 456 644 q 343 618 374 644 q 295 550 311 592 q 276 461 279 508 q 278 444 276 449 q 295 440 280 440 "},"ē":{"ha":816,"x_min":49,"x_max":765,"o":"m 257 852 l 257 910 q 259 924 257 919 q 271 928 262 928 l 567 928 q 585 925 580 928 q 590 907 590 921 l 590 851 q 588 835 590 840 q 575 830 586 830 l 281 830 q 263 834 268 830 q 257 852 257 838 m 49 347 q 91 548 49 458 q 217 690 133 638 q 427 743 301 743 q 570 719 511 743 q 667 655 629 695 q 726 564 705 614 q 756 461 748 514 q 765 362 765 409 q 760 342 765 347 q 740 338 756 338 l 293 338 q 276 334 280 338 q 274 318 273 331 q 292 202 276 255 q 344 117 308 149 q 441 85 381 85 q 552 122 508 85 q 622 224 595 158 q 628 236 625 231 q 644 240 632 240 l 738 240 q 753 237 750 240 q 754 224 756 234 q 688 90 734 144 q 574 7 642 35 q 417 -21 506 -21 q 213 31 295 -21 q 90 166 131 82 q 49 347 49 250 m 295 440 l 531 440 q 548 442 545 440 q 550 455 551 444 q 541 519 549 486 q 518 581 533 553 q 479 626 503 609 q 423 644 456 644 q 343 618 374 644 q 295 550 311 592 q 276 461 279 508 q 278 444 276 449 q 295 440 280 440 "},"ĕ":{"ha":816,"x_min":49,"x_max":765,"o":"m 424 826 q 288 880 326 826 q 248 1027 249 934 q 264 1040 248 1040 l 312 1040 q 324 1029 324 1040 q 350 975 328 996 q 424 955 373 955 q 494 973 472 955 q 524 1020 517 991 q 527 1035 526 1030 q 541 1040 528 1040 l 588 1040 q 600 1037 599 1040 q 601 1024 602 1034 q 559 880 599 933 q 424 826 519 826 m 49 347 q 91 548 49 458 q 217 690 133 638 q 427 743 301 743 q 570 719 511 743 q 667 655 629 695 q 726 564 705 614 q 756 461 748 514 q 765 362 765 409 q 760 342 765 347 q 740 338 756 338 l 293 338 q 276 334 280 338 q 274 318 273 331 q 292 202 276 255 q 344 117 308 149 q 441 85 381 85 q 552 122 508 85 q 622 224 595 158 q 628 236 625 231 q 644 240 632 240 l 738 240 q 753 237 750 240 q 754 224 756 234 q 688 90 734 144 q 574 7 642 35 q 417 -21 506 -21 q 213 31 295 -21 q 90 166 131 82 q 49 347 49 250 m 295 440 l 531 440 q 548 442 545 440 q 550 455 551 444 q 541 519 549 486 q 518 581 533 553 q 479 626 503 609 q 423 644 456 644 q 343 618 374 644 q 295 550 311 592 q 276 461 279 508 q 278 444 276 449 q 295 440 280 440 "},"ė":{"ha":816,"x_min":49,"x_max":765,"o":"m 426 881 q 350 914 382 881 q 318 990 318 946 q 350 1067 318 1035 q 426 1099 382 1099 q 503 1067 472 1099 q 535 990 535 1035 q 503 914 535 946 q 426 881 472 881 m 49 347 q 91 548 49 458 q 217 690 133 638 q 427 743 301 743 q 570 719 511 743 q 667 655 629 695 q 726 564 705 614 q 756 461 748 514 q 765 362 765 409 q 760 342 765 347 q 740 338 756 338 l 293 338 q 276 334 280 338 q 274 318 273 331 q 292 202 276 255 q 344 117 308 149 q 441 85 381 85 q 552 122 508 85 q 622 224 595 158 q 628 236 625 231 q 644 240 632 240 l 738 240 q 753 237 750 240 q 754 224 756 234 q 688 90 734 144 q 574 7 642 35 q 417 -21 506 -21 q 213 31 295 -21 q 90 166 131 82 q 49 347 49 250 m 295 440 l 531 440 q 548 442 545 440 q 550 455 551 444 q 541 519 549 486 q 518 581 533 553 q 479 626 503 609 q 423 644 456 644 q 343 618 374 644 q 295 550 311 592 q 276 461 279 508 q 278 444 276 449 q 295 440 280 440 "},"ę":{"ha":816,"x_min":49,"x_max":765,"o":"m 574 -237 q 454 -209 502 -237 q 406 -122 406 -181 q 427 -52 406 -84 q 480 6 448 -21 q 545 56 511 33 q 608 97 580 78 q 633 102 619 105 q 651 94 647 99 q 666 76 664 83 q 660 60 668 69 q 623 20 644 42 q 586 -26 601 -1 q 570 -80 570 -51 q 586 -123 570 -106 q 633 -139 602 -139 q 675 -128 658 -139 q 703 -103 692 -117 q 723 -99 713 -90 l 750 -119 q 757 -128 757 -124 q 753 -139 757 -131 q 690 -207 732 -177 q 574 -237 648 -237 m 49 347 q 91 548 49 458 q 217 690 133 638 q 427 743 301 743 q 570 719 511 743 q 667 655 629 695 q 726 564 705 614 q 756 461 748 514 q 765 362 765 409 q 760 342 765 347 q 740 338 756 338 l 293 338 q 276 334 280 338 q 274 318 273 331 q 292 202 276 255 q 344 117 308 149 q 441 85 381 85 q 552 122 508 85 q 622 224 595 158 q 628 236 625 231 q 644 240 632 240 l 738 240 q 753 237 750 240 q 754 224 756 234 q 688 90 734 144 q 574 7 642 35 q 417 -21 506 -21 q 213 31 295 -21 q 90 166 131 82 q 49 347 49 250 m 295 440 l 531 440 q 548 442 545 440 q 550 455 551 444 q 541 519 549 486 q 518 581 533 553 q 479 626 503 609 q 423 644 456 644 q 343 618 374 644 q 295 550 311 592 q 276 461 279 508 q 278 444 276 449 q 295 440 280 440 "},"ě":{"ha":816,"x_min":49,"x_max":765,"o":"m 338 853 l 214 1002 q 207 1015 207 1010 q 215 1026 208 1019 l 247 1057 q 260 1064 256 1065 q 275 1056 265 1063 l 397 971 q 424 960 412 960 q 451 970 436 960 l 577 1062 q 591 1066 586 1068 q 605 1056 597 1065 l 632 1029 q 642 1016 641 1021 q 635 1003 643 1012 l 508 851 q 495 840 501 843 q 472 837 488 837 l 381 837 q 354 841 363 837 q 338 853 345 845 m 49 347 q 91 548 49 458 q 217 690 133 638 q 427 743 301 743 q 570 719 511 743 q 667 655 629 695 q 726 564 705 614 q 756 461 748 514 q 765 362 765 409 q 760 342 765 347 q 740 338 756 338 l 293 338 q 276 334 280 338 q 274 318 273 331 q 292 202 276 255 q 344 117 308 149 q 441 85 381 85 q 552 122 508 85 q 622 224 595 158 q 628 236 625 231 q 644 240 632 240 l 738 240 q 753 237 750 240 q 754 224 756 234 q 688 90 734 144 q 574 7 642 35 q 417 -21 506 -21 q 213 31 295 -21 q 90 166 131 82 q 49 347 49 250 m 295 440 l 531 440 q 548 442 545 440 q 550 455 551 444 q 541 519 549 486 q 518 581 533 553 q 479 626 503 609 q 423 644 456 644 q 343 618 374 644 q 295 550 311 592 q 276 461 279 508 q 278 444 276 449 q 295 440 280 440 "},"f":{"ha":591,"x_min":25,"x_max":772,"o":"m 358 586 l 358 137 q 363 116 358 120 q 384 111 367 111 l 492 111 q 516 108 507 111 q 525 88 525 104 l 525 26 q 519 5 525 9 q 497 0 514 0 l 53 0 q 31 5 37 0 q 25 27 25 10 l 25 85 q 30 106 25 101 q 50 111 35 111 l 126 111 q 146 115 142 111 q 150 135 150 119 l 150 588 q 148 606 150 601 q 132 611 145 611 l 48 611 q 30 614 35 611 q 25 631 25 617 l 25 700 q 29 718 25 714 q 47 722 33 722 l 128 722 q 146 726 142 722 q 150 745 150 731 l 150 794 q 188 949 150 878 q 302 1062 226 1019 q 493 1104 378 1104 q 646 1079 584 1104 q 740 1013 708 1054 q 772 926 772 972 q 736 832 772 862 q 649 803 700 803 q 560 830 594 803 q 526 901 526 858 q 536 943 526 928 q 556 968 546 958 q 565 988 565 978 q 549 1006 565 999 q 500 1013 533 1013 q 426 987 458 1013 q 376 907 394 962 q 358 764 358 852 l 358 740 q 362 726 358 729 q 376 722 365 722 l 515 722 q 535 719 531 722 q 539 699 539 715 l 539 634 q 535 615 539 618 q 516 611 532 611 l 383 611 q 363 606 368 611 q 358 586 358 601 "}}}
